# 3ds Max Wavefront OBJ Exporter v0.99 - (c)2007 guruware
# File Created: 31.05.2023 15:48:28

mtllib bend walls for arnie.mtl

#
# object bend
#

v  99.4063 19.9021 -34.7642
v  99.7537 20.2477 -34.7870
v  99.7537 -7.6004 -34.7870
v  99.4063 -7.9459 -34.7642
v  87.7651 19.9016 -33.7154
v  87.6938 19.9021 -34.7933
v  87.6938 -7.9459 -34.7933
v  87.7651 -7.9464 -33.7154
v  127.4976 20.2477 -34.8188
v  127.8430 19.9002 -34.8415
v  127.8430 -7.9478 -34.8415
v  127.4976 -7.6004 -34.8188
v  89.2509 19.9027 -20.0641
v  88.4439 19.9025 -24.9362
v  88.4439 -7.9455 -24.9363
v  89.2508 -7.9453 -20.0641
v  90.3768 19.9027 -15.2343
v  90.3768 -7.9453 -15.2343
v  91.8174 19.9027 -10.4859
v  91.8174 -7.9453 -10.4859
v  93.5652 19.9027 -5.8417
v  93.5652 -7.9453 -5.8417
v  95.6132 19.9027 -1.3220
v  95.6132 -7.9453 -1.3220
v  97.9522 19.9027 3.0542
v  97.9522 -7.9453 3.0542
v  100.5727 19.9027 7.2680
v  100.5726 -7.9453 7.2680
v  103.4629 19.9027 11.3016
v  103.4628 -7.9453 11.3015
v  106.6109 19.9027 15.1372
v  106.6109 -7.9453 15.1371
v  110.0028 19.9027 18.7589
v  110.0028 -7.9453 18.7589
v  113.6246 19.9027 22.1509
v  113.6246 -7.9453 22.1509
v  117.4603 19.9027 25.2989
v  117.4603 -7.9453 25.2989
v  121.4938 19.9027 28.1891
v  121.4938 -7.9453 28.1891
v  125.7075 19.9027 30.8096
v  125.7075 -7.9453 30.8096
v  130.0838 19.9027 33.1486
v  130.0838 -7.9453 33.1486
v  134.6035 19.9027 35.1966
v  134.6035 -7.9453 35.1966
v  139.2477 19.9027 36.9443
v  139.2476 -7.9453 36.9443
v  143.9960 19.9027 38.3849
v  143.9960 -7.9453 38.3849
v  148.8272 19.9027 39.5112
v  148.8272 -7.9453 39.5112
v  153.7107 19.9025 40.3188
v  153.7107 -7.9455 40.3188
v  158.8531 19.9020 40.7839
v  158.8531 -7.9461 40.7839
v  162.1602 19.9016 41.0006
v  162.1602 -7.9464 41.0006
v  87.9805 19.9020 -29.6229
v  87.9805 -7.9461 -29.6229
v  163.5885 20.2477 29.0107
v  163.5657 19.9021 29.3581
v  163.5657 -7.9459 29.3581
v  163.5885 -7.6004 29.0107
v  163.2182 19.9021 41.0706
v  163.2182 -7.9459 41.0706
v  163.6257 19.9002 0.9202
v  163.6031 20.2477 1.2656
v  163.6031 -7.6004 1.2656
v  163.6257 -7.9478 0.9202
v  99.8244 20.2477 -33.7083
v  99.8244 -7.6004 -33.7083
v  127.5376 20.2477 -34.2087
v  127.5376 -7.6004 -34.2087
v  101.1103 20.2477 -22.4259
v  102.0573 20.2477 -18.3640
v  102.0573 -7.6004 -18.3640
v  101.1103 -7.6004 -22.4259
v  100.4320 20.2477 -26.5227
v  100.4320 -7.6004 -26.5227
v  128.8006 20.2477 -25.5299
v  128.2650 20.2477 -27.8273
v  128.2650 -7.6004 -27.8273
v  128.8006 -7.6004 -25.5299
v  127.8813 20.2477 -30.1444
v  127.8813 -7.6004 -30.1444
v  103.2681 20.2477 -14.3729
v  104.7372 20.2477 -10.4693
v  104.7372 -7.6004 -10.4693
v  103.2681 -7.6004 -14.3729
v  130.3163 20.2477 -21.0646
v  129.4854 20.2477 -23.2724
v  129.4854 -7.6004 -23.2724
v  130.3163 -7.6004 -21.0646
v  106.4586 20.2477 -6.6704
v  108.4246 20.2477 -2.9920
v  108.4246 -7.6004 -2.9920
v  106.4586 -7.6004 -6.6704
v  132.4019 20.2477 -16.8353
v  131.2900 20.2477 -18.9158
v  131.2900 -7.6004 -18.9158
v  132.4019 -7.6004 -16.8353
v  110.6272 20.2477 0.5498
v  113.0564 20.2477 3.9401
v  113.0564 -7.6004 3.9401
v  110.6272 -7.6004 0.5498
v  135.0218 20.2477 -12.9145
v  133.6477 20.2477 -14.8321
v  133.6477 -7.6004 -14.8321
v  135.0218 -7.6004 -12.9145
v  115.7025 20.2477 7.1641
v  118.5535 20.2477 10.2083
v  118.5535 -7.6004 10.2083
v  115.7025 -7.6004 7.1641
v  138.1309 20.2477 -9.3692
v  136.5184 20.2477 -11.0910
v  136.5184 -7.6004 -11.0910
v  138.1309 -7.6004 -9.3692
v  121.5977 20.2477 13.0593
v  124.8217 20.2477 15.7053
v  124.8217 -7.6004 15.7053
v  121.5977 -7.6004 13.0593
v  141.6763 20.2477 -6.2600
v  139.8528 20.2477 -7.7566
v  139.8528 -7.6004 -7.7566
v  141.6763 -7.6004 -6.2600
v  128.2120 20.2477 18.1346
v  131.7538 20.2477 20.3372
v  131.7538 -7.6004 20.3372
v  128.2120 -7.6004 18.1346
v  145.5971 20.2477 -3.6402
v  143.5939 20.2477 -4.8860
v  143.5939 -7.6004 -4.8860
v  145.5971 -7.6004 -3.6402
v  135.4321 20.2477 22.3032
v  139.2311 20.2477 24.0246
v  139.2311 -7.6004 24.0246
v  135.4321 -7.6004 22.3032
v  149.8263 20.2477 -1.5545
v  147.6776 20.2477 -2.5282
v  147.6776 -7.6004 -2.5282
v  149.8263 -7.6004 -1.5545
v  143.1346 20.2477 25.4936
v  147.1258 20.2477 26.7045
v  147.1258 -7.6004 26.7045
v  143.1346 -7.6004 25.4936
v  154.2916 20.2477 -0.0388
v  152.0342 20.2477 -0.7236
v  152.0342 -7.6004 -0.7236
v  154.2916 -7.6004 -0.0388
v  151.1877 20.2477 27.6514
v  155.2944 20.2477 28.3304
v  155.2944 -7.6004 28.3304
v  151.1877 -7.6004 27.6514
v  158.9118 20.2477 0.8809
v  156.5891 20.2477 0.4968
v  156.5891 -7.6004 0.4968
v  158.9118 -7.6004 0.8809
v  159.4199 20.2477 28.7374
v  162.5296 20.2477 28.9413
v  162.5296 -7.6004 28.9413
v  159.4199 -7.6004 28.7374
v  163.0041 20.2477 1.2264
v  161.2453 20.2477 1.1111
v  161.2453 -7.6004 1.1111
v  163.0041 -7.6004 1.2264
v  100.0269 20.2477 -30.6185
v  100.0269 -7.6004 -30.6185
v  127.6522 20.2477 -32.4611
v  127.6522 -7.6004 -32.4611
v  127.8832 19.9007 -34.2341
v  162.6442 19.9001 -33.9781
v  127.9963 19.9001 -32.4949
v  128.2226 19.8992 -30.1922
v  128.6024 19.8990 -27.8944
v  129.1329 19.8990 -25.6189
v  129.8112 19.8990 -23.3830
v  130.6342 19.8990 -21.1962
v  131.5985 19.8990 -19.0680
v  132.6999 19.8990 -17.0073
v  133.9338 19.8990 -15.0232
v  135.2947 19.8990 -13.1239
v  136.7770 19.8990 -11.3178
v  138.3742 19.8990 -9.6124
v  140.0796 19.8990 -8.0153
v  141.8857 19.8990 -6.5329
v  143.7850 19.8990 -5.1720
v  145.7691 19.8990 -3.9381
v  147.8298 19.8990 -2.8368
v  149.9580 19.8990 -1.8724
v  152.1448 19.8990 -1.0494
v  154.3807 19.8990 -0.3711
v  156.6562 19.8990 0.1594
v  158.9596 19.8992 0.5396
v  161.2791 19.9001 0.7670
v  163.0296 19.9007 0.8808
v  162.6443 -7.9479 -33.9782
v  163.0296 -7.9474 0.8808
v  161.2791 -7.9480 0.7670
v  158.9596 -7.9488 0.5396
v  156.6562 -7.9491 0.1594
v  154.3807 -7.9491 -0.3711
v  152.1448 -7.9491 -1.0494
v  149.9580 -7.9491 -1.8724
v  147.8298 -7.9491 -2.8368
v  145.7691 -7.9491 -3.9381
v  143.7850 -7.9491 -5.1720
v  141.8857 -7.9491 -6.5329
v  140.0796 -7.9491 -8.0153
v  138.3742 -7.9491 -9.6124
v  136.7770 -7.9491 -11.3178
v  135.2947 -7.9491 -13.1239
v  133.9338 -7.9491 -15.0232
v  132.6999 -7.9491 -17.0073
v  131.5985 -7.9491 -19.0680
v  130.6342 -7.9491 -21.1962
v  129.8112 -7.9491 -23.3830
v  129.1329 -7.9491 -25.6189
v  128.6024 -7.9491 -27.8944
v  128.2226 -7.9488 -30.1922
v  127.9963 -7.9480 -32.4949
v  127.8832 -7.9474 -34.2341
v  99.4778 19.9016 -33.6827
v  99.4778 -7.9464 -33.6827
v  99.6808 -7.9461 -30.5843
v  100.0872 -7.9455 -26.4744
v  100.7689 -7.9453 -22.3580
v  101.7211 -7.9453 -18.2739
v  102.9385 -7.9453 -14.2610
v  104.4156 -7.9453 -10.3361
v  106.1464 -7.9453 -6.5164
v  108.1231 -7.9453 -2.8179
v  110.3377 -7.9453 0.7432
v  112.7803 -7.9453 4.1520
v  115.4408 -7.9453 7.3936
v  118.3074 -7.9453 10.4544
v  121.3682 -7.9453 13.3210
v  124.6098 -7.9453 15.9815
v  128.0186 -7.9453 18.4240
v  131.5797 -7.9453 20.6386
v  135.2782 -7.9453 22.6153
v  139.0979 -7.9453 24.3462
v  143.0228 -7.9453 25.8232
v  147.0357 -7.9453 27.0407
v  151.1198 -7.9453 27.9928
v  155.2461 -7.9455 28.6752
v  159.3858 -7.9461 29.0836
v  162.5040 -7.9464 29.2878
v  162.5040 19.9016 29.2878
v  159.3858 19.9020 29.0836
v  155.2461 19.9025 28.6752
v  151.1198 19.9027 27.9928
v  147.0357 19.9027 27.0407
v  143.0228 19.9027 25.8232
v  139.0979 19.9027 24.3462
v  135.2782 19.9027 22.6153
v  131.5797 19.9027 20.6386
v  128.0186 19.9027 18.4240
v  124.6098 19.9027 15.9815
v  121.3682 19.9027 13.3210
v  118.3074 19.9027 10.4544
v  115.4408 19.9027 7.3936
v  112.7803 19.9027 4.1520
v  110.3377 19.9027 0.7432
v  108.1231 19.9027 -2.8179
v  106.1464 19.9027 -6.5164
v  104.4156 19.9027 -10.3361
v  102.9385 19.9027 -14.2610
v  101.7211 19.9027 -18.2739
v  100.7689 19.9027 -22.3580
v  100.0872 19.9025 -26.4744
v  99.6808 19.9020 -30.5843
# 272 vertices

vn -0.0353 0.3858 -0.9219
vn 0.8623 0.0000 -0.5064
vn 0.4997 0.0000 -0.8662
vn -0.0166 -0.5706 -0.8210
vn -0.7044 0.7086 0.0420
vn -0.5972 0.5740 -0.5602
vn -0.5973 -0.5737 -0.5604
vn -0.7043 -0.7087 0.0417
vn -0.9221 -0.0000 -0.3869
vn -0.0275 0.3527 -0.9353
vn -0.0044 -0.5327 -0.8463
vn -0.6076 -0.0000 -0.7942
vn -0.7005 0.6999 0.1395
vn -0.7082 0.6998 0.0935
vn -0.7082 -0.6998 0.0936
vn -0.7005 -0.6999 0.1395
vn -0.6900 0.6998 0.1849
vn -0.6900 -0.6998 0.1849
vn -0.6764 0.6998 0.2296
vn -0.6764 -0.6998 0.2296
vn -0.6600 0.6998 0.2734
vn -0.6600 -0.6998 0.2734
vn -0.6407 0.6998 0.3159
vn -0.6407 -0.6998 0.3160
vn -0.6186 0.6998 0.3572
vn -0.6186 -0.6999 0.3571
vn -0.5939 0.6998 0.3969
vn -0.5940 -0.6998 0.3969
vn -0.5667 0.6998 0.4349
vn -0.5667 -0.6998 0.4349
vn -0.5371 0.6998 0.4710
vn -0.5371 -0.6998 0.4710
vn -0.5051 0.6998 0.5051
vn -0.5051 -0.6998 0.5051
vn -0.4710 0.6998 0.5371
vn -0.4710 -0.6998 0.5371
vn -0.4349 0.6998 0.5667
vn -0.4349 -0.6998 0.5667
vn -0.3969 0.6998 0.5940
vn -0.3969 -0.6998 0.5939
vn -0.3572 0.6998 0.6186
vn -0.3572 -0.6998 0.6186
vn -0.3159 0.6998 0.6407
vn -0.3159 -0.6998 0.6407
vn -0.2734 0.6998 0.6600
vn -0.2734 -0.6998 0.6600
vn -0.2296 0.6998 0.6764
vn -0.2296 -0.6998 0.6764
vn -0.1849 0.6998 0.6900
vn -0.1849 -0.6998 0.6900
vn -0.1394 0.6998 0.7006
vn -0.1394 -0.6999 0.7005
vn -0.0906 0.6989 0.7094
vn -0.0907 -0.6989 0.7095
vn -0.0551 0.7043 0.7077
vn -0.0553 -0.7043 0.7077
vn -0.0466 0.7071 0.7056
vn -0.0463 -0.7073 0.7054
vn -0.7102 0.7019 0.0537
vn -0.7102 -0.7020 0.0538
vn 0.5064 0.0000 -0.8623
vn 0.9241 0.3792 0.0473
vn 0.8259 -0.5628 0.0344
vn 0.8662 0.0000 -0.4997
vn 0.5498 0.5756 0.6053
vn 0.5501 -0.5753 0.6053
vn 0.9356 0.3521 0.0262
vn 0.3868 0.0000 0.9222
vn 0.7943 0.0000 0.6076
vn 0.8468 -0.5319 0.0026
vn 0.9979 0.0000 -0.0654
vn -0.9979 -0.0000 0.0654
vn 0.9807 0.0000 -0.1953
vn 0.9659 0.0000 -0.2588
vn 0.9914 0.0000 -0.1310
vn -0.9659 0.0000 0.2588
vn -0.9807 0.0000 0.1953
vn -0.9914 -0.0000 0.1310
vn 0.9469 0.0000 -0.3214
vn 0.9239 0.0000 -0.3827
vn -0.9239 0.0000 0.3827
vn -0.9469 -0.0000 0.3214
vn 0.8969 0.0000 -0.4423
vn 0.8660 0.0000 -0.5000
vn -0.8660 0.0000 0.5000
vn -0.8969 -0.0000 0.4423
vn 0.8315 -0.0000 -0.5556
vn 0.7934 -0.0000 -0.6088
vn -0.7934 0.0000 0.6088
vn -0.8315 -0.0000 0.5556
vn 0.7518 -0.0000 -0.6593
vn 0.7071 0.0000 -0.7071
vn -0.7071 -0.0000 0.7071
vn -0.7518 0.0000 0.6593
vn 0.6593 0.0000 -0.7518
vn 0.6088 0.0000 -0.7934
vn -0.6088 -0.0000 0.7934
vn -0.6593 -0.0000 0.7518
vn 0.5556 -0.0000 -0.8315
vn 0.5000 0.0000 -0.8660
vn -0.5000 -0.0000 0.8660
vn -0.5556 -0.0000 0.8315
vn 0.4423 -0.0000 -0.8969
vn 0.3827 0.0000 -0.9239
vn -0.3827 0.0000 0.9239
vn -0.4423 0.0000 0.8969
vn 0.3214 0.0000 -0.9469
vn 0.2588 0.0000 -0.9659
vn -0.2588 0.0000 0.9659
vn -0.3214 0.0000 0.9469
vn 0.1952 0.0000 -0.9808
vn 0.1307 0.0000 -0.9914
vn -0.1307 -0.0000 0.9914
vn -0.1952 0.0000 0.9808
vn 0.0818 0.0000 -0.9966
vn 0.0654 0.0000 -0.9979
vn -0.0654 -0.0000 0.9979
vn -0.0818 -0.0000 0.9966
vn 0.9966 0.0000 -0.0819
vn -0.9966 0.0000 0.0819
vn 0.0000 1.0000 -0.0002
vn 0.5750 0.5802 -0.5769
vn 0.0000 1.0000 0.0003
vn 0.0000 1.0000 0.0002
vn -0.0000 1.0000 0.0001
vn -0.0000 1.0000 0.0000
vn -0.0001 1.0000 0.0000
vn -0.0002 1.0000 0.0000
vn -0.0003 1.0000 -0.0000
vn 0.0002 1.0000 -0.0000
vn 0.5750 -0.5802 -0.5769
vn -0.0002 -1.0000 0.0000
vn 0.0003 -1.0000 0.0000
vn 0.0002 -1.0000 -0.0000
vn 0.0001 -1.0000 -0.0000
vn 0.0000 -1.0000 -0.0000
vn 0.0000 -1.0000 -0.0001
vn -0.0000 -1.0000 -0.0002
vn -0.0000 -1.0000 -0.0003
vn -0.0000 -1.0000 0.0002
vn -0.0000 1.0000 0.0002
vn 0.0000 -1.0000 -0.0002
vn 0.0000 -1.0000 0.0001
vn 0.0000 -1.0000 0.0000
vn -0.0000 -1.0000 -0.0000
vn -0.0000 -1.0000 0.0000
vn -0.0001 -1.0000 -0.0000
vn 0.0002 -1.0000 0.0000
vn -0.0002 1.0000 -0.0000
vn 0.0001 1.0000 0.0000
vn 0.0000 1.0000 0.0000
vn -0.0000 1.0000 -0.0000
vn -0.0000 1.0000 -0.0001
# 153 vertex normals

vt 0.6118 0.2193 0.0000
vt 0.6140 0.2216 0.0000
vt 0.6067 0.2145 0.0000
vt 0.4831 0.3591 0.0000
vt 0.4803 0.3574 0.0000
vt 0.5510 0.1688 0.0000
vt 0.5720 0.1843 0.0000
vt 0.5292 0.1547 0.0000
vt 0.5068 0.1418 0.0000
vt 0.4837 0.1303 0.0000
vt 0.4602 0.1199 0.0000
vt 0.4363 0.1108 0.0000
vt 0.4119 0.1029 0.0000
vt 0.3873 0.0961 0.0000
vt 0.3624 0.0905 0.0000
vt 0.3372 0.0861 0.0000
vt 0.3119 0.0828 0.0000
vt 0.2864 0.0808 0.0000
vt 0.2609 0.0799 0.0000
vt 0.2352 0.0803 0.0000
vt 0.2096 0.0820 0.0000
vt 0.1841 0.0850 0.0000
vt 0.1586 0.0893 0.0000
vt 0.1334 0.0950 0.0000
vt 0.1083 0.1022 0.0000
vt 0.0837 0.1109 0.0000
vt 0.0595 0.1212 0.0000
vt 0.0414 0.1298 0.0000
vt 0.5920 0.2011 0.0000
vt 0.0325 0.1344 0.0000
vt 0.0353 0.1328 0.0000
vt 0.1208 0.3040 0.0000
vt 0.1177 0.3049 0.0000
vt 0.0766 0.9943 0.0000
vt 0.0763 0.9874 0.0000
vt 0.2535 0.9622 0.0000
vt 0.2536 0.9661 0.0000
vt 0.0754 0.9161 0.0000
vt 0.0773 0.8904 0.0000
vt 0.0747 0.9420 0.0000
vt 0.2563 0.9047 0.0000
vt 0.2546 0.9203 0.0000
vt 0.2537 0.9357 0.0000
vt 0.0805 0.8650 0.0000
vt 0.0850 0.8399 0.0000
vt 0.2618 0.8736 0.0000
vt 0.2587 0.8891 0.0000
vt 0.0907 0.8151 0.0000
vt 0.0976 0.7907 0.0000
vt 0.2702 0.8428 0.0000
vt 0.2656 0.8581 0.0000
vt 0.1057 0.7667 0.0000
vt 0.1150 0.7431 0.0000
vt 0.2814 0.8128 0.0000
vt 0.2755 0.8277 0.0000
vt 0.1253 0.7201 0.0000
vt 0.1369 0.6976 0.0000
vt 0.2954 0.7839 0.0000
vt 0.2881 0.7982 0.0000
vt 0.1495 0.6757 0.0000
vt 0.1631 0.6545 0.0000
vt 0.3120 0.7564 0.0000
vt 0.3034 0.7699 0.0000
vt 0.1779 0.6339 0.0000
vt 0.1936 0.6141 0.0000
vt 0.3311 0.7306 0.0000
vt 0.3213 0.7433 0.0000
vt 0.2104 0.5950 0.0000
vt 0.2281 0.5767 0.0000
vt 0.3524 0.7069 0.0000
vt 0.3415 0.7185 0.0000
vt 0.2468 0.5593 0.0000
vt 0.2664 0.5428 0.0000
vt 0.3756 0.6854 0.0000
vt 0.3638 0.6958 0.0000
vt 0.2869 0.5272 0.0000
vt 0.3082 0.5125 0.0000
vt 0.4003 0.6665 0.0000
vt 0.3878 0.6756 0.0000
vt 0.3304 0.4988 0.0000
vt 0.3474 0.4888 0.0000
vt 0.4228 0.6522 0.0000
vt 0.4131 0.6582 0.0000
vt 0.0753 0.9678 0.0000
vt 0.2535 0.9509 0.0000
vt 0.3533 0.4853 0.0000
vt 0.4260 0.6502 0.0000
vt 0.4768 0.3554 0.0000
vt 0.3015 0.3245 0.0000
vt 0.4669 0.3496 0.0000
vt 0.4536 0.3420 0.0000
vt 0.4400 0.3347 0.0000
vt 0.4260 0.3278 0.0000
vt 0.4119 0.3213 0.0000
vt 0.3974 0.3153 0.0000
vt 0.3828 0.3098 0.0000
vt 0.3679 0.3049 0.0000
vt 0.3528 0.3004 0.0000
vt 0.3375 0.2966 0.0000
vt 0.3221 0.2933 0.0000
vt 0.3065 0.2906 0.0000
vt 0.2909 0.2886 0.0000
vt 0.2752 0.2871 0.0000
vt 0.2595 0.2863 0.0000
vt 0.2437 0.2860 0.0000
vt 0.2280 0.2864 0.0000
vt 0.2124 0.2874 0.0000
vt 0.1969 0.2889 0.0000
vt 0.1814 0.2910 0.0000
vt 0.1661 0.2936 0.0000
vt 0.1509 0.2967 0.0000
vt 0.1359 0.3003 0.0000
vt 0.1247 0.3031 0.0000
# 113 texture coords

o bend
g bend
usemtl wire_085028177
s off
f 1/1/1 2/2/2 3/2/3 4/1/4 
f 5/3/5 6/1/6 7/1/7 8/3/8 
f 9/4/9 10/5/10 11/5/11 12/4/12 
f 13/6/13 14/7/14 15/7/15 16/6/16 
f 17/8/17 13/6/13 16/6/16 18/8/18 
f 19/9/19 17/8/17 18/8/18 20/9/20 
f 21/10/21 19/9/19 20/9/20 22/10/22 
f 23/11/23 21/10/21 22/10/22 24/11/24 
f 25/12/25 23/11/23 24/11/24 26/12/26 
f 27/13/27 25/12/25 26/12/26 28/13/28 
f 29/14/29 27/13/27 28/13/28 30/14/30 
f 31/15/31 29/14/29 30/14/30 32/15/32 
f 33/16/33 31/15/31 32/15/32 34/16/34 
f 35/17/35 33/16/33 34/16/34 36/17/36 
f 37/18/37 35/17/35 36/17/36 38/18/38 
f 39/19/39 37/18/37 38/18/38 40/19/40 
f 41/20/41 39/19/39 40/19/40 42/20/42 
f 43/21/43 41/20/41 42/20/42 44/21/44 
f 45/22/45 43/21/43 44/21/44 46/22/46 
f 47/23/47 45/22/45 46/22/46 48/23/48 
f 49/24/49 47/23/47 48/23/48 50/24/50 
f 51/25/51 49/24/49 50/24/50 52/25/52 
f 53/26/53 51/25/51 52/25/52 54/26/54 
f 55/27/55 53/26/53 54/26/54 56/27/56 
f 57/28/57 55/27/55 56/27/56 58/28/58 
f 14/7/14 59/29/59 60/29/60 15/7/15 
f 59/29/59 5/3/5 8/3/8 60/29/60 
f 61/30/61 62/31/62 63/31/63 64/30/64 
f 65/31/65 57/28/57 58/28/58 66/31/66 
f 67/32/67 68/33/68 69/33/69 70/32/70 
f 2/34/2 71/35/71 72/35/71 3/34/3 
f 73/36/72 9/37/9 12/37/12 74/36/72 
f 75/38/73 76/39/74 77/39/74 78/38/73 
f 79/40/75 75/38/73 78/38/73 80/40/75 
f 81/41/76 82/42/77 83/42/77 84/41/76 
f 82/42/77 85/43/78 86/43/78 83/42/77 
f 87/44/79 88/45/80 89/45/80 90/44/79 
f 76/39/74 87/44/79 90/44/79 77/39/74 
f 91/46/81 92/47/82 93/47/82 94/46/81 
f 92/47/82 81/41/76 84/41/76 93/47/82 
f 95/48/83 96/49/84 97/49/84 98/48/83 
f 88/45/80 95/48/83 98/48/83 89/45/80 
f 99/50/85 100/51/86 101/51/86 102/50/85 
f 100/51/86 91/46/81 94/46/81 101/51/86 
f 103/52/87 104/53/88 105/53/88 106/52/87 
f 96/49/84 103/52/87 106/52/87 97/49/84 
f 107/54/89 108/55/90 109/55/90 110/54/89 
f 108/55/90 99/50/85 102/50/85 109/55/90 
f 111/56/91 112/57/92 113/57/92 114/56/91 
f 104/53/88 111/56/91 114/56/91 105/53/88 
f 115/58/93 116/59/94 117/59/94 118/58/93 
f 116/59/94 107/54/89 110/54/89 117/59/94 
f 119/60/95 120/61/96 121/61/96 122/60/95 
f 112/57/92 119/60/95 122/60/95 113/57/92 
f 123/62/97 124/63/98 125/63/98 126/62/97 
f 124/63/98 115/58/93 118/58/93 125/63/98 
f 127/64/99 128/65/100 129/65/100 130/64/99 
f 120/61/96 127/64/99 130/64/99 121/61/96 
f 131/66/101 132/67/102 133/67/102 134/66/101 
f 132/67/102 123/62/97 126/62/97 133/67/102 
f 135/68/103 136/69/104 137/69/104 138/68/103 
f 128/65/100 135/68/103 138/68/103 129/65/100 
f 139/70/105 140/71/106 141/71/106 142/70/105 
f 140/71/106 131/66/101 134/66/101 141/71/106 
f 143/72/107 144/73/108 145/73/108 146/72/107 
f 136/69/104 143/72/107 146/72/107 137/69/104 
f 147/74/109 148/75/110 149/75/110 150/74/109 
f 148/75/110 139/70/105 142/70/105 149/75/110 
f 151/76/111 152/77/112 153/77/112 154/76/111 
f 144/73/108 151/76/111 154/76/111 145/73/108 
f 155/78/113 156/79/114 157/79/114 158/78/113 
f 156/79/114 147/74/109 150/74/109 157/79/114 
f 159/80/115 160/81/116 161/81/116 162/80/115 
f 152/77/112 159/80/115 162/80/115 153/77/112 
f 163/82/117 164/83/118 165/83/118 166/82/117 
f 164/83/118 155/78/113 158/78/113 165/83/118 
f 167/84/119 79/40/75 80/40/75 168/84/119 
f 71/35/71 167/84/119 168/84/119 72/35/71 
f 85/43/78 169/85/120 170/85/120 86/43/78 
f 169/85/120 73/36/72 74/36/72 170/85/120 
f 160/81/116 61/86/61 64/86/64 161/81/116 
f 68/87/68 163/82/117 166/82/117 69/87/69 
f 10/5/10 171/88/121 172/89/122 
f 171/88/121 173/90/123 172/89/122 
f 173/90/123 174/91/124 172/89/122 
f 174/91/124 175/92/125 172/89/122 
f 175/92/125 176/93/126 172/89/122 
f 176/93/126 177/94/126 172/89/122 
f 177/94/126 178/95/126 172/89/122 
f 178/95/126 179/96/126 172/89/122 
f 179/96/126 180/97/126 172/89/122 
f 180/97/126 181/98/126 172/89/122 
f 181/98/126 182/99/126 172/89/122 
f 182/99/126 183/100/126 172/89/122 
f 183/100/126 184/101/126 172/89/122 
f 184/101/126 185/102/126 172/89/122 
f 185/102/126 186/103/126 172/89/122 
f 186/103/126 187/104/126 172/89/122 
f 187/104/126 188/105/126 172/89/122 
f 188/105/126 189/106/126 172/89/122 
f 189/106/126 190/107/126 172/89/122 
f 190/107/126 191/108/126 172/89/122 
f 191/108/126 192/109/126 172/89/122 
f 192/109/126 193/110/127 172/89/122 
f 193/110/127 194/111/128 172/89/122 
f 194/111/128 195/112/129 172/89/122 
f 195/112/129 196/113/130 172/89/122 
f 196/113/130 67/32/67 172/89/122 
f 67/32/67 70/32/70 197/89/131 172/89/122 
f 70/32/70 198/113/132 197/89/131 
f 198/113/132 199/112/133 197/89/131 
f 199/112/133 200/111/134 197/89/131 
f 200/111/134 201/110/135 197/89/131 
f 201/110/135 202/109/136 197/89/131 
f 202/109/136 203/108/136 197/89/131 
f 203/108/136 204/107/136 197/89/131 
f 204/107/136 205/106/136 197/89/131 
f 205/106/136 206/105/136 197/89/131 
f 206/105/136 207/104/136 197/89/131 
f 207/104/136 208/103/136 197/89/131 
f 208/103/136 209/102/136 197/89/131 
f 209/102/136 210/101/136 197/89/131 
f 210/101/136 211/100/136 197/89/131 
f 211/100/136 212/99/136 197/89/131 
f 212/99/136 213/98/136 197/89/131 
f 213/98/136 214/97/136 197/89/131 
f 214/97/136 215/96/136 197/89/131 
f 215/96/136 216/95/136 197/89/131 
f 216/95/136 217/94/136 197/89/131 
f 217/94/136 218/93/136 197/89/131 
f 218/93/136 219/92/137 197/89/131 
f 219/92/137 220/91/138 197/89/131 
f 220/91/138 221/90/139 197/89/131 
f 221/90/139 222/88/140 197/89/131 
f 222/88/140 11/5/11 197/89/131 
f 11/5/11 10/5/10 172/89/122 197/89/131 
f 223/3/141 1/1/1 6/1/6 5/3/5 
f 1/1/1 4/1/4 7/1/7 6/1/6 
f 4/1/4 224/3/142 8/3/8 7/1/7 
f 224/3/142 225/29/143 60/29/60 8/3/8 
f 225/29/143 226/7/143 15/7/15 60/29/60 
f 226/7/143 227/6/144 16/6/16 15/7/15 
f 227/6/144 228/8/144 18/8/18 16/6/16 
f 228/8/144 229/9/144 20/9/20 18/8/18 
f 229/9/144 230/10/144 22/10/22 20/9/20 
f 230/10/144 231/11/145 24/11/24 22/10/22 
f 231/11/145 232/12/145 26/12/26 24/11/24 
f 232/12/145 233/13/144 28/13/28 26/12/26 
f 233/13/144 234/14/144 30/14/30 28/13/28 
f 234/14/144 235/15/145 32/15/32 30/14/30 
f 235/15/145 236/16/144 34/16/34 32/15/32 
f 236/16/144 237/17/144 36/17/36 34/16/34 
f 237/17/144 238/18/144 38/18/38 36/17/36 
f 238/18/144 239/19/145 40/19/40 38/18/38 
f 239/19/145 240/20/146 42/20/42 40/19/40 
f 240/20/146 241/21/144 44/21/44 42/20/42 
f 241/21/144 242/22/145 46/22/46 44/21/44 
f 242/22/145 243/23/136 48/23/48 46/22/46 
f 243/23/136 244/24/144 50/24/50 48/23/48 
f 244/24/144 245/25/145 52/25/52 50/24/50 
f 245/25/145 246/26/147 54/26/54 52/25/52 
f 246/26/147 247/27/147 56/27/56 54/26/54 
f 247/27/147 248/28/148 58/28/58 56/27/56 
f 248/28/148 63/31/63 66/31/66 58/28/58 
f 63/31/63 62/31/62 65/31/65 66/31/66 
f 62/31/62 249/28/149 57/28/57 65/31/65 
f 249/28/149 250/27/150 55/27/55 57/28/57 
f 250/27/150 251/26/150 53/26/53 55/27/55 
f 251/26/150 252/25/151 51/25/51 53/26/53 
f 252/25/151 253/24/152 49/24/49 51/25/51 
f 253/24/152 254/23/152 47/23/47 49/24/49 
f 254/23/152 255/22/151 45/22/45 47/23/47 
f 255/22/151 256/21/152 43/21/43 45/22/45 
f 256/21/152 257/20/151 41/20/41 43/21/43 
f 257/20/151 258/19/151 39/19/39 41/20/41 
f 258/19/151 259/18/152 37/18/37 39/19/39 
f 259/18/152 260/17/152 35/17/35 37/18/37 
f 260/17/152 261/16/152 33/16/33 35/17/35 
f 261/16/152 262/15/152 31/15/31 33/16/33 
f 262/15/152 263/14/152 29/14/29 31/15/31 
f 263/14/152 264/13/152 27/13/27 29/14/29 
f 264/13/152 265/12/151 25/12/25 27/13/27 
f 265/12/151 266/11/151 23/11/23 25/12/25 
f 266/11/151 267/10/152 21/10/21 23/11/23 
f 267/10/152 268/9/152 19/9/19 21/10/21 
f 268/9/152 269/8/126 17/8/17 19/9/19 
f 269/8/126 270/6/152 13/6/13 17/8/17 
f 270/6/152 271/7/153 14/7/14 13/6/13 
f 271/7/153 272/29/153 59/29/59 14/7/14 
f 272/29/153 223/3/141 5/3/5 59/29/59 
# 138 polygons - 52 triangles

