# 3ds Max Wavefront OBJ Exporter v0.99 - (c)2007 guruware
# File Created: 31.05.2023 15:37:36

mtllib bend walls for arnie.mtl

#
# object bend
#

v  99.4063 -11.0733 -34.7642
v  99.4063 11.8748 -34.7642
v  99.7537 12.2203 -34.7870
v  99.7537 -10.7278 -34.7870
v  99.4778 -11.0739 -33.6827
v  99.4778 11.8743 -33.6827
v  127.4976 -10.7278 -34.8188
v  127.4976 12.2203 -34.8188
v  127.8430 11.8729 -34.8415
v  127.8430 -11.0752 -34.8415
v  127.8832 11.8733 -34.2341
v  127.8832 -11.0748 -34.2341
v  100.7689 -11.0727 -22.3580
v  100.7689 11.8754 -22.3580
v  100.0872 11.8752 -26.4744
v  100.0872 -11.0729 -26.4744
v  101.7211 -11.0727 -18.2739
v  101.7210 11.8754 -18.2739
v  128.2226 -11.0762 -30.1922
v  128.2226 11.8719 -30.1922
v  128.6024 11.8716 -27.8944
v  128.6024 -11.0765 -27.8944
v  129.1329 11.8716 -25.6189
v  129.1329 -11.0765 -25.6189
v  102.9385 -11.0727 -14.2610
v  102.9385 11.8754 -14.2610
v  104.4156 -11.0727 -10.3361
v  104.4156 11.8754 -10.3361
v  129.8112 11.8716 -23.3830
v  129.8112 -11.0765 -23.3830
v  130.6342 11.8716 -21.1962
v  130.6342 -11.0765 -21.1962
v  106.1464 -11.0727 -6.5164
v  106.1464 11.8754 -6.5164
v  108.1231 -11.0727 -2.8179
v  108.1231 11.8754 -2.8179
v  131.5985 11.8716 -19.0680
v  131.5985 -11.0765 -19.0680
v  132.6999 11.8716 -17.0073
v  132.6999 -11.0765 -17.0073
v  110.3377 -11.0727 0.7432
v  110.3377 11.8754 0.7432
v  112.7803 -11.0727 4.1520
v  112.7803 11.8754 4.1520
v  133.9338 11.8716 -15.0232
v  133.9338 -11.0765 -15.0232
v  135.2947 11.8716 -13.1239
v  135.2947 -11.0765 -13.1239
v  115.4408 -11.0727 7.3936
v  115.4408 11.8754 7.3936
v  118.3074 -11.0727 10.4544
v  118.3074 11.8754 10.4544
v  136.7770 11.8716 -11.3178
v  136.7770 -11.0765 -11.3178
v  138.3742 11.8716 -9.6124
v  138.3742 -11.0765 -9.6124
v  121.3682 -11.0727 13.3210
v  121.3682 11.8754 13.3210
v  124.6098 -11.0727 15.9815
v  124.6098 11.8754 15.9815
v  140.0796 11.8716 -8.0153
v  140.0796 -11.0765 -8.0153
v  141.8857 11.8716 -6.5329
v  141.8857 -11.0765 -6.5329
v  128.0186 -11.0727 18.4240
v  128.0186 11.8754 18.4240
v  131.5797 -11.0727 20.6386
v  131.5797 11.8754 20.6386
v  143.7850 11.8716 -5.1720
v  143.7850 -11.0765 -5.1720
v  145.7691 11.8716 -3.9381
v  145.7691 -11.0765 -3.9381
v  135.2782 -11.0727 22.6153
v  135.2782 11.8754 22.6153
v  139.0979 -11.0727 24.3462
v  139.0979 11.8754 24.3462
v  147.8298 11.8716 -2.8368
v  147.8298 -11.0765 -2.8368
v  149.9580 11.8716 -1.8724
v  149.9580 -11.0765 -1.8724
v  143.0228 -11.0727 25.8232
v  143.0228 11.8754 25.8232
v  147.0357 -11.0727 27.0407
v  147.0357 11.8754 27.0407
v  152.1448 11.8716 -1.0494
v  152.1448 -11.0765 -1.0494
v  154.3807 11.8716 -0.3711
v  154.3807 -11.0765 -0.3711
v  151.1198 -11.0727 27.9928
v  151.1198 11.8754 27.9928
v  155.2461 -11.0729 28.6752
v  155.2461 11.8752 28.6752
v  156.6562 11.8716 0.1594
v  156.6562 -11.0765 0.1594
v  158.9596 11.8719 0.5396
v  158.9596 -11.0762 0.5396
v  159.3858 -11.0735 29.0836
v  159.3858 11.8746 29.0836
v  162.5040 -11.0738 29.2878
v  162.5040 11.8743 29.2878
v  161.2791 11.8727 0.7670
v  161.2791 -11.0754 0.7670
v  163.0296 11.8733 0.8808
v  163.0296 -11.0748 0.8808
v  99.6808 11.8746 -30.5843
v  99.6808 -11.0735 -30.5843
v  127.9963 -11.0754 -32.4949
v  127.9963 11.8727 -32.4949
v  163.5885 -10.7278 29.0107
v  163.5885 12.2203 29.0107
v  163.5657 11.8748 29.3581
v  163.5657 -11.0733 29.3581
v  163.6257 -11.0752 0.9202
v  163.6257 11.8729 0.9202
v  163.6031 12.2203 1.2656
v  163.6031 -10.7278 1.2656
v  99.8244 12.2203 -33.7083
v  99.8244 -10.7278 -33.7083
v  127.5376 -10.7278 -34.2087
v  127.5376 12.2203 -34.2087
v  101.1103 -10.7278 -22.4259
v  101.1103 12.2203 -22.4259
v  102.0573 12.2203 -18.3640
v  102.0573 -10.7278 -18.3640
v  100.4320 -10.7278 -26.5227
v  100.4320 12.2203 -26.5227
v  128.8005 -10.7278 -25.5299
v  128.8006 12.2203 -25.5299
v  128.2650 12.2203 -27.8273
v  128.2650 -10.7278 -27.8273
v  127.8813 12.2203 -30.1444
v  127.8813 -10.7278 -30.1444
v  103.2681 -10.7278 -14.3729
v  103.2681 12.2203 -14.3729
v  104.7372 12.2203 -10.4693
v  104.7372 -10.7278 -10.4693
v  130.3163 -10.7278 -21.0646
v  130.3163 12.2203 -21.0646
v  129.4854 12.2203 -23.2724
v  129.4854 -10.7278 -23.2724
v  106.4586 -10.7278 -6.6704
v  106.4586 12.2203 -6.6704
v  108.4246 12.2203 -2.9920
v  108.4246 -10.7278 -2.9920
v  132.4019 -10.7278 -16.8353
v  132.4019 12.2203 -16.8353
v  131.2900 12.2203 -18.9158
v  131.2900 -10.7278 -18.9158
v  110.6272 -10.7278 0.5498
v  110.6272 12.2203 0.5498
v  113.0564 12.2203 3.9401
v  113.0564 -10.7278 3.9401
v  135.0218 -10.7278 -12.9145
v  135.0218 12.2203 -12.9145
v  133.6477 12.2203 -14.8321
v  133.6477 -10.7278 -14.8321
v  115.7025 -10.7278 7.1641
v  115.7025 12.2203 7.1641
v  118.5535 12.2203 10.2083
v  118.5535 -10.7278 10.2083
v  138.1309 -10.7278 -9.3692
v  138.1309 12.2203 -9.3692
v  136.5184 12.2203 -11.0910
v  136.5184 -10.7278 -11.0910
v  121.5977 -10.7278 13.0593
v  121.5977 12.2203 13.0593
v  124.8217 12.2203 15.7053
v  124.8217 -10.7278 15.7053
v  141.6763 -10.7278 -6.2600
v  141.6763 12.2203 -6.2600
v  139.8528 12.2203 -7.7566
v  139.8528 -10.7278 -7.7566
v  128.2120 -10.7278 18.1346
v  128.2120 12.2203 18.1346
v  131.7538 12.2203 20.3372
v  131.7538 -10.7278 20.3372
v  145.5971 -10.7278 -3.6402
v  145.5971 12.2203 -3.6402
v  143.5939 12.2203 -4.8860
v  143.5939 -10.7278 -4.8860
v  135.4322 -10.7278 22.3032
v  135.4321 12.2203 22.3032
v  139.2311 12.2203 24.0246
v  139.2311 -10.7278 24.0246
v  149.8263 -10.7278 -1.5545
v  149.8263 12.2203 -1.5545
v  147.6776 12.2203 -2.5282
v  147.6776 -10.7278 -2.5282
v  143.1346 -10.7278 25.4936
v  143.1346 12.2203 25.4936
v  147.1258 12.2203 26.7045
v  147.1258 -10.7278 26.7045
v  154.2916 -10.7278 -0.0388
v  154.2916 12.2203 -0.0388
v  152.0342 12.2203 -0.7236
v  152.0342 -10.7278 -0.7236
v  151.1877 -10.7278 27.6514
v  151.1877 12.2203 27.6514
v  155.2944 12.2204 28.3304
v  155.2944 -10.7278 28.3304
v  158.9118 -10.7278 0.8809
v  158.9118 12.2203 0.8809
v  156.5891 12.2203 0.4968
v  156.5891 -10.7278 0.4968
v  159.4200 -10.7278 28.7374
v  159.4200 12.2203 28.7374
v  162.5296 12.2204 28.9413
v  162.5296 -10.7278 28.9413
v  163.0041 -10.7278 1.2264
v  163.0041 12.2203 1.2264
v  161.2453 12.2203 1.1111
v  161.2453 -10.7278 1.1111
v  100.0269 -10.7278 -30.6185
v  100.0269 12.2203 -30.6185
v  127.6522 12.2203 -32.4611
v  127.6522 -10.7278 -32.4611
# 216 vertices

vn -0.9213 -0.0000 -0.3890
vn -0.6086 -0.0000 -0.7935
vn 0.8623 0.0000 -0.5064
vn 0.4997 0.0000 -0.8662
vn -0.9978 -0.0000 0.0657
vn -0.6076 0.0000 -0.7942
vn -0.9221 0.0000 -0.3869
vn 0.4988 -0.0000 -0.8667
vn 0.8634 -0.0000 -0.5045
vn 0.9979 -0.0000 -0.0654
vn -0.9807 -0.0000 0.1953
vn -0.9914 -0.0000 0.1310
vn -0.9659 -0.0000 0.2588
vn 0.9914 -0.0000 -0.1305
vn 0.9808 -0.0000 -0.1952
vn 0.9659 -0.0000 -0.2588
vn -0.9469 -0.0000 0.3214
vn -0.9239 -0.0000 0.3827
vn 0.9469 -0.0000 -0.3214
vn 0.9239 -0.0000 -0.3827
vn -0.8969 0.0000 0.4423
vn -0.8660 0.0000 0.5000
vn 0.8969 -0.0000 -0.4423
vn 0.8660 -0.0000 -0.5000
vn -0.8315 0.0000 0.5556
vn -0.7934 0.0000 0.6088
vn 0.8315 0.0000 -0.5556
vn 0.7934 0.0000 -0.6088
vn -0.7518 0.0000 0.6593
vn -0.7071 0.0000 0.7071
vn 0.7518 -0.0000 -0.6593
vn 0.7071 -0.0000 -0.7071
vn -0.6593 0.0000 0.7518
vn -0.6088 0.0000 0.7934
vn 0.6593 -0.0000 -0.7518
vn 0.6088 -0.0000 -0.7934
vn -0.5556 0.0000 0.8315
vn -0.5000 0.0000 0.8660
vn 0.5556 -0.0000 -0.8315
vn 0.5000 -0.0000 -0.8660
vn -0.4423 -0.0000 0.8969
vn -0.3827 -0.0000 0.9239
vn 0.4423 -0.0000 -0.8969
vn 0.3827 -0.0000 -0.9239
vn -0.3214 -0.0000 0.9469
vn -0.2588 -0.0000 0.9659
vn 0.3214 -0.0000 -0.9469
vn 0.2588 -0.0000 -0.9659
vn -0.1952 -0.0000 0.9808
vn -0.1307 -0.0000 0.9914
vn 0.1950 -0.0000 -0.9808
vn 0.1951 -0.0000 -0.9808
vn 0.1303 -0.0000 -0.9915
vn -0.0818 0.0000 0.9967
vn -0.0657 0.0000 0.9978
vn 0.0812 -0.0000 -0.9967
vn 0.0655 -0.0000 -0.9979
vn -0.9966 0.0000 0.0819
vn 0.9967 -0.0000 -0.0814
vn 0.9967 -0.0000 -0.0813
vn 0.8662 -0.0000 -0.4997
vn 0.5064 -0.0000 -0.8623
vn 0.7935 -0.0000 0.6086
vn 0.3890 -0.0000 0.9213
vn 0.5045 -0.0000 -0.8634
vn 0.8667 -0.0000 -0.4988
vn 0.3868 -0.0000 0.9222
vn 0.7943 -0.0000 0.6076
vn -0.9979 0.0000 0.0654
vn 0.9807 0.0000 -0.1953
vn 0.9659 0.0000 -0.2588
vn 0.9914 -0.0000 -0.1310
vn -0.9659 0.0000 0.2588
vn -0.9807 0.0000 0.1953
vn -0.9914 0.0000 0.1310
vn 0.9469 0.0000 -0.3214
vn 0.9239 0.0000 -0.3827
vn -0.9239 0.0000 0.3827
vn -0.9469 0.0000 0.3214
vn 0.8969 0.0000 -0.4423
vn 0.8315 -0.0000 -0.5556
vn 0.7934 -0.0000 -0.6088
vn -0.7934 -0.0000 0.6088
vn -0.7518 -0.0000 0.6593
vn -0.6088 -0.0000 0.7934
vn -0.6593 -0.0000 0.7518
vn 0.5000 0.0000 -0.8660
vn 0.4423 0.0000 -0.8969
vn 0.3827 0.0000 -0.9239
vn -0.3827 0.0000 0.9239
vn -0.4423 0.0000 0.8969
vn 0.3214 0.0000 -0.9469
vn 0.2588 0.0000 -0.9659
vn -0.2588 0.0000 0.9659
vn -0.3214 0.0000 0.9469
vn 0.1952 0.0000 -0.9808
vn 0.1307 0.0000 -0.9914
vn -0.1307 0.0000 0.9914
vn -0.1952 0.0000 0.9808
vn 0.0818 -0.0000 -0.9966
vn 0.0654 -0.0000 -0.9979
vn -0.0654 0.0000 0.9979
vn -0.0818 0.0000 0.9966
vn 0.9966 0.0000 -0.0819
# 104 vertex normals

vt 0.6118 0.2193 0.0000
vt 0.6140 0.2216 0.0000
vt 0.6067 0.2145 0.0000
vt 0.4831 0.3591 0.0000
vt 0.4803 0.3574 0.0000
vt 0.4768 0.3554 0.0000
vt 0.5510 0.1688 0.0000
vt 0.5720 0.1843 0.0000
vt 0.5292 0.1547 0.0000
vt 0.4536 0.3420 0.0000
vt 0.4400 0.3347 0.0000
vt 0.4260 0.3278 0.0000
vt 0.5068 0.1418 0.0000
vt 0.4837 0.1303 0.0000
vt 0.4119 0.3213 0.0000
vt 0.3974 0.3153 0.0000
vt 0.4602 0.1199 0.0000
vt 0.4363 0.1108 0.0000
vt 0.3828 0.3098 0.0000
vt 0.3679 0.3049 0.0000
vt 0.4119 0.1029 0.0000
vt 0.3873 0.0961 0.0000
vt 0.3528 0.3004 0.0000
vt 0.3375 0.2966 0.0000
vt 0.3624 0.0905 0.0000
vt 0.3372 0.0861 0.0000
vt 0.3221 0.2933 0.0000
vt 0.3065 0.2906 0.0000
vt 0.3119 0.0828 0.0000
vt 0.2864 0.0808 0.0000
vt 0.2909 0.2886 0.0000
vt 0.2752 0.2871 0.0000
vt 0.2609 0.0799 0.0000
vt 0.2352 0.0803 0.0000
vt 0.2595 0.2863 0.0000
vt 0.2437 0.2860 0.0000
vt 0.2096 0.0820 0.0000
vt 0.1841 0.0850 0.0000
vt 0.2280 0.2864 0.0000
vt 0.2124 0.2874 0.0000
vt 0.1586 0.0893 0.0000
vt 0.1334 0.0950 0.0000
vt 0.1969 0.2889 0.0000
vt 0.1814 0.2910 0.0000
vt 0.1083 0.1022 0.0000
vt 0.0837 0.1109 0.0000
vt 0.1661 0.2936 0.0000
vt 0.1509 0.2967 0.0000
vt 0.0595 0.1212 0.0000
vt 0.0414 0.1298 0.0000
vt 0.1359 0.3003 0.0000
vt 0.1247 0.3031 0.0000
vt 0.5920 0.2011 0.0000
vt 0.4669 0.3496 0.0000
vt 0.0325 0.1344 0.0000
vt 0.0353 0.1328 0.0000
vt 0.1208 0.3040 0.0000
vt 0.1177 0.3049 0.0000
vt 0.0766 0.9943 0.0000
vt 0.0763 0.9874 0.0000
vt 0.2535 0.9622 0.0000
vt 0.2536 0.9661 0.0000
vt 0.0754 0.9161 0.0000
vt 0.0773 0.8904 0.0000
vt 0.0747 0.9420 0.0000
vt 0.2563 0.9047 0.0000
vt 0.2546 0.9203 0.0000
vt 0.2537 0.9357 0.0000
vt 0.0805 0.8650 0.0000
vt 0.0850 0.8399 0.0000
vt 0.2618 0.8736 0.0000
vt 0.2587 0.8891 0.0000
vt 0.0907 0.8151 0.0000
vt 0.0976 0.7907 0.0000
vt 0.2702 0.8428 0.0000
vt 0.2656 0.8581 0.0000
vt 0.1057 0.7667 0.0000
vt 0.1150 0.7431 0.0000
vt 0.2814 0.8128 0.0000
vt 0.2755 0.8277 0.0000
vt 0.1253 0.7201 0.0000
vt 0.1369 0.6976 0.0000
vt 0.2954 0.7839 0.0000
vt 0.2881 0.7982 0.0000
vt 0.1495 0.6757 0.0000
vt 0.1631 0.6545 0.0000
vt 0.3120 0.7564 0.0000
vt 0.3034 0.7699 0.0000
vt 0.1779 0.6339 0.0000
vt 0.1936 0.6141 0.0000
vt 0.3311 0.7306 0.0000
vt 0.3213 0.7433 0.0000
vt 0.2104 0.5950 0.0000
vt 0.2281 0.5767 0.0000
vt 0.3524 0.7069 0.0000
vt 0.3415 0.7185 0.0000
vt 0.2468 0.5593 0.0000
vt 0.2664 0.5428 0.0000
vt 0.3756 0.6854 0.0000
vt 0.3638 0.6958 0.0000
vt 0.2869 0.5272 0.0000
vt 0.3082 0.5125 0.0000
vt 0.4003 0.6665 0.0000
vt 0.3878 0.6756 0.0000
vt 0.3304 0.4988 0.0000
vt 0.3474 0.4888 0.0000
vt 0.4228 0.6522 0.0000
vt 0.4131 0.6582 0.0000
vt 0.0753 0.9678 0.0000
vt 0.2535 0.9509 0.0000
vt 0.3533 0.4853 0.0000
vt 0.4260 0.6502 0.0000
# 112 texture coords

o bend
g bend
usemtl wire_085028177
s off
f 1/1/1 2/1/2 3/2/3 4/2/4 
f 5/3/5 6/3/5 2/1/2 1/1/1 
f 7/4/6 8/4/7 9/5/8 10/5/9 
f 10/5/9 9/5/8 11/6/10 12/6/10 
f 13/7/11 14/7/11 15/8/12 16/8/12 
f 17/9/13 18/9/13 14/7/11 13/7/11 
f 19/10/14 20/10/14 21/11/15 22/11/15 
f 22/11/15 21/11/15 23/12/16 24/12/16 
f 25/13/17 26/13/17 18/9/13 17/9/13 
f 27/14/18 28/14/18 26/13/17 25/13/17 
f 24/12/16 23/12/16 29/15/19 30/15/19 
f 30/15/19 29/15/19 31/16/20 32/16/20 
f 33/17/21 34/17/21 28/14/18 27/14/18 
f 35/18/22 36/18/22 34/17/21 33/17/21 
f 32/16/20 31/16/20 37/19/23 38/19/23 
f 38/19/23 37/19/23 39/20/24 40/20/24 
f 41/21/25 42/21/25 36/18/22 35/18/22 
f 43/22/26 44/22/26 42/21/25 41/21/25 
f 40/20/24 39/20/24 45/23/27 46/23/27 
f 46/23/27 45/23/27 47/24/28 48/24/28 
f 49/25/29 50/25/29 44/22/26 43/22/26 
f 51/26/30 52/26/30 50/25/29 49/25/29 
f 48/24/28 47/24/28 53/27/31 54/27/31 
f 54/27/31 53/27/31 55/28/32 56/28/32 
f 57/29/33 58/29/33 52/26/30 51/26/30 
f 59/30/34 60/30/34 58/29/33 57/29/33 
f 56/28/32 55/28/32 61/31/35 62/31/35 
f 62/31/35 61/31/35 63/32/36 64/32/36 
f 65/33/37 66/33/37 60/30/34 59/30/34 
f 67/34/38 68/34/38 66/33/37 65/33/37 
f 64/32/36 63/32/36 69/35/39 70/35/39 
f 70/35/39 69/35/39 71/36/40 72/36/40 
f 73/37/41 74/37/41 68/34/38 67/34/38 
f 75/38/42 76/38/42 74/37/41 73/37/41 
f 72/36/40 71/36/40 77/39/43 78/39/43 
f 78/39/43 77/39/43 79/40/44 80/40/44 
f 81/41/45 82/41/45 76/38/42 75/38/42 
f 83/42/46 84/42/46 82/41/45 81/41/45 
f 80/40/44 79/40/44 85/43/47 86/43/47 
f 86/43/47 85/43/47 87/44/48 88/44/48 
f 89/45/49 90/45/49 84/42/46 83/42/46 
f 91/46/50 92/46/50 90/45/49 89/45/49 
f 88/44/48 87/44/48 93/47/51 94/47/52 
f 94/47/52 93/47/51 95/48/53 96/48/53 
f 97/49/54 98/49/54 92/46/50 91/46/50 
f 99/50/55 100/50/55 98/49/54 97/49/54 
f 96/48/53 95/48/53 101/51/56 102/51/56 
f 102/51/56 101/51/56 103/52/57 104/52/57 
f 16/8/12 15/8/12 105/53/58 106/53/58 
f 106/53/58 105/53/58 6/3/5 5/3/5 
f 107/54/59 108/54/60 20/10/14 19/10/14 
f 12/6/10 11/6/10 108/54/60 107/54/59 
f 109/55/61 110/55/62 111/56/63 112/56/64 
f 112/56/64 111/56/63 100/50/55 99/50/55 
f 113/57/65 114/57/66 115/58/67 116/58/68 
f 104/52/57 103/52/57 114/57/66 113/57/65 
f 4/59/4 3/59/3 117/60/10 118/60/10 
f 119/61/69 120/61/69 8/62/7 7/62/6 
f 121/63/70 122/63/70 123/64/71 124/64/71 
f 125/65/72 126/65/72 122/63/70 121/63/70 
f 127/66/73 128/66/73 129/67/74 130/67/74 
f 130/67/74 129/67/74 131/68/75 132/68/75 
f 133/69/76 134/69/76 135/70/77 136/70/77 
f 124/64/71 123/64/71 134/69/76 133/69/76 
f 137/71/78 138/71/78 139/72/79 140/72/79 
f 140/72/79 139/72/79 128/66/73 127/66/73 
f 141/73/80 142/73/80 143/74/24 144/74/24 
f 136/70/77 135/70/77 142/73/80 141/73/80 
f 145/75/22 146/75/22 147/76/21 148/76/21 
f 148/76/21 147/76/21 138/71/78 137/71/78 
f 149/77/81 150/77/81 151/78/82 152/78/82 
f 144/74/24 143/74/24 150/77/81 149/77/81 
f 153/79/83 154/79/83 155/80/25 156/80/25 
f 156/80/25 155/80/25 146/75/22 145/75/22 
f 157/81/31 158/81/31 159/82/32 160/82/32 
f 152/78/82 151/78/82 158/81/31 157/81/31 
f 161/83/30 162/83/30 163/84/84 164/84/84 
f 164/84/84 163/84/84 154/79/83 153/79/83 
f 165/85/35 166/85/35 167/86/36 168/86/36 
f 160/82/32 159/82/32 166/85/35 165/85/35 
f 169/87/85 170/87/85 171/88/86 172/88/86 
f 172/88/86 171/88/86 162/83/30 161/83/30 
f 173/89/39 174/89/39 175/90/87 176/90/87 
f 168/86/36 167/86/36 174/89/39 173/89/39 
f 177/91/38 178/91/38 179/92/37 180/92/37 
f 180/92/37 179/92/37 170/87/85 169/87/85 
f 181/93/88 182/93/88 183/94/89 184/94/89 
f 176/90/87 175/90/87 182/93/88 181/93/88 
f 185/95/90 186/95/90 187/96/91 188/96/91 
f 188/96/91 187/96/91 178/91/38 177/91/38 
f 189/97/92 190/97/92 191/98/93 192/98/93 
f 184/94/89 183/94/89 190/97/92 189/97/92 
f 193/99/94 194/99/94 195/100/95 196/100/95 
f 196/100/95 195/100/95 186/95/90 185/95/90 
f 197/101/96 198/101/96 199/102/97 200/102/97 
f 192/98/93 191/98/93 198/101/96 197/101/96 
f 201/103/98 202/103/98 203/104/99 204/104/99 
f 204/104/99 203/104/99 194/99/94 193/99/94 
f 205/105/100 206/105/100 207/106/101 208/106/101 
f 200/102/97 199/102/97 206/105/100 205/105/100 
f 209/107/102 210/107/102 211/108/103 212/108/103 
f 212/108/103 211/108/103 202/103/98 201/103/98 
f 213/109/104 214/109/104 126/65/72 125/65/72 
f 118/60/10 117/60/10 214/109/104 213/109/104 
f 132/68/75 131/68/75 215/110/58 216/110/58 
f 216/110/58 215/110/58 120/61/69 119/61/69 
f 208/106/101 207/106/101 110/111/62 109/111/61 
f 116/112/68 115/112/67 210/107/102 209/107/102 
# 108 polygons

