# 3ds Max Wavefront OBJ Exporter v0.99 - (c)2007 guruware
# File Created: 02.05.2023 13:29:28

mtllib Park gate pillar.mtl

#
# object Park_Gate_pillar
#

v  -70.4761 5.0000 -1.1942
v  -70.4761 -5.0000 -1.1942
v  -60.4761 -5.0000 -1.1942
v  -60.4761 5.0000 -1.1942
v  -60.4761 5.0000 -50.5384
v  -70.4761 5.0000 -50.5384
v  -60.4761 -5.0000 -50.5384
v  -70.4761 -5.0000 -50.5384
v  -58.4761 7.0000 -50.5384
v  -72.4761 7.0000 -50.5384
v  -58.4761 -7.0000 -50.5384
v  -72.4761 -7.0000 -50.5384
v  -65.4761 -0.0000 -57.5260
# 13 vertices

vn -0.5774 0.5774 0.5774
vn -0.5774 -0.5774 0.5774
vn 0.5774 -0.5774 0.5774
vn 0.5774 0.5774 0.5774
vn 0.3015 0.3015 0.9045
vn -0.3015 0.3015 0.9045
vn 0.3015 -0.3015 0.9045
vn -0.3015 -0.3015 0.9045
vn 0.7066 0.7066 0.0395
vn -0.7066 0.7066 0.0395
vn 0.7066 -0.7066 0.0395
vn -0.7066 -0.7066 0.0395
vn 0.0000 -0.0000 -1.0000
# 13 vertex normals

vt 0.0091 0.1614 0.0000
vt 0.0091 0.0114 0.0000
vt 0.1591 0.0114 0.0000
vt 0.1591 0.1614 0.0000
vt 0.9841 0.8842 0.0000
vt 0.8082 0.8842 0.0000
vt 0.8082 0.0159 0.0000
vt 0.9841 0.0159 0.0000
vt 0.0370 0.3447 0.0000
vt 0.1561 0.3447 0.0000
vt 0.1799 0.3686 0.0000
vt 0.0132 0.3686 0.0000
vt 0.1561 0.2257 0.0000
vt 0.1799 0.2019 0.0000
vt 0.0370 0.2257 0.0000
vt 0.0132 0.2019 0.0000
vt 0.0965 0.2852 0.0000
# 17 texture coords

o Park_Gate_pillar
g Park_Gate_pillar
usemtl wire_115115115
s 2
f 1/1/1 2/2/2 3/3/3 4/4/4 
s 8
f 1/5/1 4/6/4 5/7/5 6/8/6 
s 16
f 4/5/4 3/6/3 7/7/7 5/8/5 
s 32
f 3/5/3 2/6/2 8/7/8 7/8/7 
s 64
f 2/7/2 1/8/1 6/5/6 8/6/8 
s off
f 6/9/6 5/10/5 9/11/9 10/12/10 
f 5/10/5 7/13/7 11/14/11 9/11/9 
f 7/13/7 8/15/8 12/16/12 11/14/11 
f 8/15/8 6/9/6 10/12/10 12/16/12 
f 10/12/10 9/11/9 13/17/13 
f 9/11/9 11/14/11 13/17/13 
f 11/14/11 12/16/12 13/17/13 
f 12/16/12 10/12/10 13/17/13 
# 9 polygons - 4 triangles

