# 3ds Max Wavefront OBJ Exporter v0.99 - (c)2007 guruware
# File Created: 31.05.2023 17:35:07

mtllib Byle coin.mtl

#
# object Byle_Coin
#

v  -12.0213 9.4140 -10.0870
v  -14.7463 9.4140 -5.3672
v  -15.6926 9.4140 -0.0000
v  -14.7463 9.4140 5.3672
v  -12.0213 9.4140 10.0870
v  -7.8463 9.4140 13.5902
v  -2.7250 9.4140 -15.4542
v  -7.8463 9.4140 -13.5902
v  -2.7250 9.4140 15.4542
v  2.7250 9.4140 15.4542
v  7.8463 9.4140 -13.5902
v  2.7250 9.4140 -15.4542
v  7.8463 9.4140 13.5902
v  12.0213 9.4140 10.0870
v  14.7463 9.4140 -5.3672
v  12.0213 9.4140 -10.0870
v  14.7463 9.4140 5.3672
v  15.6926 9.4140 -0.0000
v  14.7463 0.0000 -5.3672
v  12.0213 0.0000 -10.0870
v  7.8463 0.0000 -13.5902
v  2.7250 0.0000 -15.4542
v  -2.7250 0.0000 -15.4542
v  -7.8463 0.0000 -13.5902
v  -12.0213 0.0000 -10.0870
v  -14.7463 0.0000 -5.3672
v  -15.6926 0.0000 -0.0000
v  -7.8463 0.0000 13.5902
v  -2.7250 0.0000 15.4542
v  2.7250 0.0000 15.4542
v  7.8463 0.0000 13.5902
v  12.0213 0.0000 10.0870
v  14.7463 0.0000 5.3672
v  15.6926 0.0000 -0.0000
v  -14.7463 0.0000 5.3672
v  -12.0213 0.0000 10.0870
# 36 vertices

vn -0.5687 0.6700 -0.4772
vn -0.6976 0.6700 -0.2539
vn -0.7423 0.6700 -0.0000
vn -0.6976 0.6700 0.2539
vn -0.5686 0.6701 0.4771
vn -0.3711 0.6701 0.6429
vn -0.1289 0.6701 -0.7310
vn -0.3712 0.6701 -0.6428
vn -0.1289 0.6700 0.7311
vn 0.1289 0.6700 0.7311
vn 0.3711 0.6701 -0.6429
vn 0.1289 0.6700 -0.7311
vn 0.3712 0.6700 0.6429
vn 0.5687 0.6700 0.4772
vn 0.6975 0.6701 -0.2539
vn 0.5686 0.6701 -0.4771
vn 0.6976 0.6700 0.2539
vn 0.7423 0.6701 0.0000
vn 0.6975 -0.6701 -0.2539
vn 0.5686 -0.6701 -0.4771
vn 0.3711 -0.6701 -0.6429
vn 0.1289 -0.6700 -0.7311
vn -0.1289 -0.6701 -0.7310
vn -0.3712 -0.6701 -0.6428
vn -0.5687 -0.6700 -0.4772
vn -0.6976 -0.6700 -0.2539
vn -0.7423 -0.6700 -0.0000
vn -0.3711 -0.6701 0.6429
vn -0.1289 -0.6700 0.7311
vn 0.1289 -0.6700 0.7311
vn 0.3712 -0.6700 0.6429
vn 0.5687 -0.6700 0.4772
vn 0.6976 -0.6700 0.2539
vn 0.7423 -0.6701 0.0000
vn -0.6976 -0.6700 0.2539
vn -0.5686 -0.6701 0.4771
# 36 vertex normals

vt 0.0731 0.0666 0.0000
vt 0.1418 0.0207 0.0000
vt 0.2220 0.0010 0.0000
vt 0.3041 0.0099 0.0000
vt 0.3782 0.0462 0.0000
vt 0.4354 0.1057 0.0000
vt 0.0010 0.2123 0.0000
vt 0.0242 0.1331 0.0000
vt 0.4688 0.1811 0.0000
vt 0.4745 0.2632 0.0000
vt 0.0393 0.3700 0.0000
vt 0.0063 0.2946 0.0000
vt 0.4516 0.3423 0.0000
vt 0.4031 0.4088 0.0000
vt 0.1699 0.4661 0.0000
vt 0.0962 0.4296 0.0000
vt 0.3348 0.4546 0.0000
vt 0.2517 0.4750 0.0000
vt 0.1159 0.6092 0.0000
vt 0.1691 0.5293 0.0000
vt 0.1980 0.5587 0.0000
vt 0.1509 0.6251 0.0000
vt 0.0906 0.7000 0.0000
vt 0.1302 0.7035 0.0000
vt 0.0981 0.7945 0.0000
vt 0.1367 0.7847 0.0000
vt 0.1372 0.8809 0.0000
vt 0.1703 0.8588 0.0000
vt 0.2035 0.9489 0.0000
vt 0.2271 0.9168 0.0000
vt 0.2891 0.9899 0.0000
vt 0.3003 0.9517 0.0000
vt 0.3840 0.9990 0.0000
vt 0.3811 0.9592 0.0000
vt 0.4777 0.9758 0.0000
vt 0.4603 0.9381 0.0000
vt 0.6242 0.6560 0.0000
vt 0.6339 0.7497 0.0000
vt 0.5942 0.7470 0.0000
vt 0.5871 0.6660 0.0000
vt 0.5857 0.5699 0.0000
vt 0.5528 0.5921 0.0000
vt 0.5193 0.5019 0.0000
vt 0.4958 0.5341 0.0000
vt 0.4328 0.4599 0.0000
vt 0.4219 0.4997 0.0000
vt 0.3412 0.4920 0.0000
vt 0.2648 0.5122 0.0000
vt 0.5275 0.8916 0.0000
vt 0.5738 0.8252 0.0000
vt 0.5562 0.9194 0.0000
vt 0.6103 0.8412 0.0000
# 52 texture coords

o Byle_Coin
g Byle_Coin
usemtl wire_135110008
s 1
f 1/1/1 2/2/2 3/3/3 4/4/4 
f 5/5/5 6/6/6 7/7/7 8/8/8 
f 8/8/8 1/1/1 4/4/4 5/5/5 
f 9/9/9 10/10/10 11/11/11 12/12/12 
f 12/12/12 7/7/7 6/6/6 9/9/9 
f 13/13/13 14/14/14 15/15/15 16/16/16 
f 16/16/16 11/11/11 10/10/10 13/13/13 
f 14/14/14 17/17/17 18/18/18 15/15/15 
s 8
f 16/19/16 15/20/15 19/21/19 20/22/20 
f 11/23/11 16/19/16 20/22/20 21/24/21 
f 12/25/12 11/23/11 21/24/21 22/26/22 
f 7/27/7 12/25/12 22/26/22 23/28/23 
f 8/29/8 7/27/7 23/28/23 24/30/24 
f 1/31/1 8/29/8 24/30/24 25/32/25 
f 2/33/2 1/31/1 25/32/25 26/34/26 
f 3/35/3 2/33/2 26/34/26 27/36/27 
f 9/37/9 6/38/6 28/39/28 29/40/29 
f 10/41/10 9/37/9 29/40/29 30/42/30 
f 13/43/13 10/41/10 30/42/30 31/44/31 
f 17/17/17 14/45/14 32/46/32 33/47/33 
f 18/18/18 17/17/17 33/47/33 34/48/34 
s 1
f 25/32/25 35/49/35 27/36/27 26/34/26 
f 36/50/36 24/30/24 23/28/23 28/39/28 
f 24/30/24 36/50/36 35/49/35 25/32/25 
f 29/40/29 22/26/22 21/24/21 30/42/30 
f 22/26/22 29/40/29 28/39/28 23/28/23 
f 31/44/31 20/22/20 19/21/19 32/46/32 
f 20/22/20 31/44/31 30/42/30 21/24/21 
f 32/46/32 19/21/19 34/48/34 33/47/33 
s 8
f 15/20/15 18/18/18 34/48/34 19/21/19 
f 4/51/4 3/35/3 27/36/27 35/49/35 
f 5/52/5 4/51/4 35/49/35 36/50/36 
f 6/38/6 5/52/5 36/50/36 28/39/28 
f 14/45/14 13/43/13 31/44/31 32/46/32 
# 34 polygons

