# 3ds Max Wavefront OBJ Exporter v0.99 - (c)2007 guruware
# File Created: 27.02.2023 13:47:57

mtllib cross roads.mtl

#
# object Box003
#

v  0.0000 -0.7500 -50.0000
v  38.1786 -0.7500 -50.0000
v  38.1786 -0.7500 -100.0000
v  0.0000 -0.7500 -100.0000
v  50.0000 0.2500 -100.0000
v  50.0000 0.2500 -150.0000
v  38.1786 0.2500 -150.0000
v  38.1786 0.2500 -100.0000
v  38.1785 0.2500 -50.0000
v  50.0000 0.2500 -50.0000
v  38.1786 -0.7500 -150.0000
v  0.0000 -0.7500 -150.0000
v  -38.1786 -0.7500 -100.0000
v  -38.1786 -0.7500 -50.0000
v  -50.0000 0.2500 -100.0000
v  -38.1786 0.2500 -100.0000
v  -38.1786 0.2500 -150.0000
v  -50.0000 0.2500 -150.0000
v  -38.1610 0.2500 -50.0000
v  -50.0000 0.2500 -50.0000
v  -38.1786 -0.7500 -150.0000
v  50.0000 -0.7500 -50.0000
v  50.0000 -0.7500 -100.0000
v  50.0000 -0.7500 -150.0000
v  -50.0000 -0.7500 -150.0000
v  -50.0000 -0.7500 -100.0000
v  -50.0000 -0.7500 -50.0000
v  150.0000 -0.7500 -0.0000
v  150.0000 -0.7500 -38.2702
v  50.0000 -0.7500 -38.2702
v  50.0000 -0.7500 -0.0000
v  150.0000 0.2500 -38.2702
v  150.0000 0.2500 -50.0000
v  50.0000 0.2500 -38.2702
v  150.0000 -0.7500 -50.0000
v  -150.0000 0.2500 -50.0000
v  -150.0000 0.2500 -38.2702
v  -50.0000 0.2500 -38.2702
v  38.1785 -0.7500 -38.2531
v  38.1784 -0.7500 -0.0000
v  -150.0000 -0.7500 -38.2702
v  -150.0000 -0.7500 -0.0000
v  -50.0000 -0.7500 -0.0000
v  -50.0000 -0.7500 -38.2702
v  38.1785 0.2500 -38.2531
v  -38.1610 -0.7500 -38.2531
v  -38.1610 0.2500 -38.2531
v  -150.0000 -0.7500 -50.0000
v  -0.0073 -0.7500 -38.2531
v  -0.0147 -0.7500 -0.0000
v  -38.1434 -0.7500 -0.0000
v  0.0000 -0.7500 50.0000
v  0.0000 -0.7500 100.0000
v  38.1786 -0.7500 100.0000
v  38.1786 -0.7500 50.0000
v  50.0000 0.2500 100.0000
v  38.1786 0.2500 100.0000
v  38.1786 0.2500 150.0000
v  50.0000 0.2500 150.0000
v  38.1785 0.2500 50.0000
v  50.0000 0.2500 50.0000
v  38.1786 -0.7500 150.0000
v  0.0000 -0.7500 150.0000
v  -38.1786 -0.7500 50.0000
v  -38.1786 -0.7500 100.0000
v  -50.0000 0.2500 100.0000
v  -50.0000 0.2500 150.0000
v  -38.1786 0.2500 150.0000
v  -38.1786 0.2500 100.0000
v  -38.1610 0.2500 50.0000
v  -50.0000 0.2500 50.0000
v  -38.1786 -0.7500 150.0000
v  50.0000 -0.7500 50.0000
v  50.0000 -0.7500 100.0000
v  50.0000 -0.7500 150.0000
v  -50.0000 -0.7500 150.0000
v  -50.0000 -0.7500 100.0000
v  -50.0000 -0.7500 50.0000
v  50.0000 -0.7500 38.2702
v  150.0000 -0.7500 38.2702
v  150.0000 0.2500 38.2702
v  50.0000 0.2500 38.2702
v  150.0000 0.2500 50.0000
v  150.0000 -0.7500 50.0000
v  -150.0000 0.2500 50.0000
v  -50.0000 0.2500 38.2702
v  -150.0000 0.2500 38.2702
v  38.1785 -0.7500 38.2531
v  -150.0000 -0.7500 38.2702
v  -50.0000 -0.7500 38.2702
v  38.1785 0.2500 38.2531
v  -38.1610 0.2500 38.2531
v  -38.1610 -0.7500 38.2531
v  -150.0000 -0.7500 50.0000
v  -0.0073 -0.7500 38.2531
# 95 vertices

vn 0.0000 1.0000 -0.0000
vn -0.7071 0.7071 -0.0000
vn 0.7071 0.7071 -0.0000
vn 0.3015 0.9045 -0.3015
vn 0.7134 0.7008 -0.0005
vn 0.7071 0.7071 -0.0001
vn 0.7133 0.7009 -0.0001
vn -0.3015 0.9045 -0.3015
vn 1.0000 0.0000 -0.0000
vn -1.0000 0.0000 -0.0000
vn 0.0000 0.7071 0.7071
vn 0.0005 0.7069 0.7073
vn 0.0000 0.7071 -0.7071
vn 0.0005 0.7073 0.7069
vn 0.0000 0.0000 -1.0000
vn -0.0005 0.7073 0.7069
vn -0.3010 0.9047 0.3015
vn -0.0005 0.7069 0.7073
vn -0.5770 0.5773 0.5778
vn 0.3010 0.9049 0.3010
vn 0.5770 0.5773 0.5778
vn -0.7071 0.7071 0.0000
vn 0.3015 0.9045 0.3015
vn 0.7134 0.7008 0.0005
vn 0.7071 0.7071 0.0001
vn 0.7133 0.7009 0.0001
vn -0.3015 0.9045 0.3015
vn 0.0005 0.7069 -0.7073
vn 0.0005 0.7073 -0.7069
vn 0.0000 0.0000 1.0000
vn -0.0005 0.7073 -0.7069
vn -0.3010 0.9047 -0.3015
vn -0.0005 0.7069 -0.7073
vn -0.5770 0.5773 -0.5778
vn 0.5770 0.5773 -0.5778
vn 0.3010 0.9049 -0.3010
# 36 vertex normals

vt 0.4704 0.6513 0.0000
vt 0.5947 0.6811 0.0000
vt 0.5511 0.8268 0.0000
vt 0.4455 0.7964 0.0000
vt 0.5834 0.8412 0.0000
vt 0.5481 0.9874 0.0000
vt 0.5157 0.9762 0.0000
vt 0.5537 0.8278 0.0000
vt 0.5981 0.6821 0.0000
vt 0.6379 0.6944 0.0000
vt 0.5132 0.9749 0.0000
vt 0.4195 0.9416 0.0000
vt 0.3363 0.7886 0.0000
vt 0.3442 0.6363 0.0000
vt 0.3011 0.7908 0.0000
vt 0.3335 0.7884 0.0000
vt 0.3168 0.9405 0.0000
vt 0.2826 0.9395 0.0000
vt 0.3408 0.6361 0.0000
vt 0.2994 0.6341 0.0000
vt 0.3196 0.9402 0.0000
vt 0.6394 0.6971 0.0000
vt 0.5857 0.8426 0.0000
vt 0.5506 0.9890 0.0000
vt 0.2796 0.9401 0.0000
vt 0.2984 0.7909 0.0000
vt 0.2971 0.6361 0.0000
vt 0.9448 0.5848 0.0000
vt 0.9230 0.6854 0.0000
vt 0.6377 0.6519 0.0000
vt 0.6511 0.5292 0.0000
vt 0.9231 0.6881 0.0000
vt 0.9189 0.7197 0.0000
vt 0.6377 0.6552 0.0000
vt 0.9192 0.7224 0.0000
vt 0.6401 0.6965 0.0000
vt 0.0124 0.5438 0.0000
vt 0.0239 0.5146 0.0000
vt 0.3136 0.5974 0.0000
vt 0.6009 0.6451 0.0000
vt 0.6159 0.5226 0.0000
vt 0.0249 0.5121 0.0000
vt 0.0544 0.4163 0.0000
vt 0.3421 0.4707 0.0000
vt 0.3146 0.5942 0.0000
vt 0.6028 0.6477 0.0000
vt 0.3519 0.6004 0.0000
vt 0.3494 0.6022 0.0000
vt 0.2966 0.6352 0.0000
vt 0.0110 0.5461 0.0000
vt 0.4791 0.6170 0.0000
vt 0.4953 0.4997 0.0000
vt 0.3780 0.4775 0.0000
vt 0.5276 0.3496 0.0000
vt 0.5574 0.2054 0.0000
vt 0.6667 0.2157 0.0000
vt 0.6542 0.3672 0.0000
vt 0.7021 0.2141 0.0000
vt 0.6695 0.2157 0.0000
vt 0.6884 0.0637 0.0000
vt 0.7226 0.0651 0.0000
vt 0.6576 0.3675 0.0000
vt 0.6992 0.3707 0.0000
vt 0.6856 0.0640 0.0000
vt 0.5862 0.0607 0.0000
vt 0.4045 0.3174 0.0000
vt 0.4528 0.1727 0.0000
vt 0.4209 0.1578 0.0000
vt 0.4580 0.0126 0.0000
vt 0.4902 0.0242 0.0000
vt 0.4502 0.1719 0.0000
vt 0.4013 0.3163 0.0000
vt 0.3621 0.3031 0.0000
vt 0.4927 0.0256 0.0000
vt 0.7015 0.3687 0.0000
vt 0.7048 0.2136 0.0000
vt 0.7256 0.0645 0.0000
vt 0.4554 0.0110 0.0000
vt 0.4184 0.1567 0.0000
vt 0.3606 0.3004 0.0000
vt 0.6835 0.4101 0.0000
vt 0.9613 0.4832 0.0000
vt 0.9623 0.4807 0.0000
vt 0.6847 0.4071 0.0000
vt 0.9700 0.4498 0.0000
vt 0.9713 0.4474 0.0000
vt 0.7020 0.3695 0.0000
vt 0.0619 0.2822 0.0000
vt 0.3618 0.3424 0.0000
vt 0.0619 0.3136 0.0000
vt 0.6467 0.4030 0.0000
vt 0.0620 0.3163 0.0000
vt 0.3617 0.3458 0.0000
vt 0.6494 0.4013 0.0000
vt 0.3969 0.3510 0.0000
vt 0.3986 0.3536 0.0000
vt 0.3598 0.3010 0.0000
vt 0.0615 0.2796 0.0000
vt 0.5231 0.3846 0.0000
# 99 texture coords

o Box003
g Box003
usemtl Material__50
s 1
f 1/1/1 2/2/2 3/3/2 4/4/1 
f 5/5/3 6/6/3 7/7/2 8/8/2 
f 9/9/2 10/10/4 5/5/3 8/8/2 
f 11/11/2 12/12/1 4/4/1 3/3/2 
f 1/1/1 4/4/1 13/13/3 14/14/5 
f 15/15/2 16/16/6 17/17/3 18/18/2 
f 19/19/7 16/16/6 15/15/2 20/20/8 
f 21/21/3 13/13/3 4/4/1 12/12/1 
s off
f 11/11/2 3/3/2 8/8/2 7/7/2 
f 3/3/2 2/2/2 9/9/2 8/8/2 
f 22/22/9 23/23/9 5/5/3 10/10/4 
f 23/23/9 24/24/9 6/6/3 5/5/3 
f 14/14/5 13/13/3 16/16/6 19/19/7 
f 13/13/3 21/21/3 17/17/3 16/16/6 
f 25/25/10 26/26/10 15/15/2 18/18/2 
f 26/26/10 27/27/10 20/20/8 15/15/2 
s 1
f 28/28/1 29/29/11 30/30/12 31/31/1 
f 32/32/11 33/33/13 10/10/4 34/34/14 
s off
f 30/30/12 29/29/11 32/32/11 34/34/14 
f 35/35/15 22/36/15 10/10/4 33/33/13 
s 1
f 36/37/13 37/38/11 38/39/16 20/20/8 
f 31/31/1 30/30/12 39/40/17 40/41/1 
f 41/42/11 42/43/1 43/44/1 44/45/18 
f 34/34/14 10/10/4 9/9/2 45/46/19 
s off
f 41/42/11 44/45/18 38/39/16 37/38/11 
f 44/45/18 46/47/20 47/48/21 38/39/16 
f 27/49/15 48/50/15 36/37/13 20/20/8 
s 1
f 39/40/17 49/51/1 50/52/1 40/41/1 
s off
f 39/40/17 30/30/12 34/34/14 45/46/19 
s 1
f 46/47/20 44/45/18 43/44/1 51/53/1 
f 19/19/7 20/20/8 38/39/16 47/48/21 
s off
f 2/2/2 1/1/1 49/51/1 39/40/17 
f 1/1/1 14/14/5 46/47/20 49/51/1 
f 9/9/2 2/2/2 39/40/17 45/46/19 
f 14/14/5 19/19/7 47/48/21 46/47/20 
s 1
f 49/51/1 46/47/20 51/53/1 50/52/1 
f 52/54/1 53/55/1 54/56/2 55/57/22 
f 56/58/3 57/59/22 58/60/2 59/61/3 
f 60/62/22 57/59/22 56/58/3 61/63/23 
f 62/64/2 54/56/2 53/55/1 63/65/1 
f 52/54/1 64/66/24 65/67/3 53/55/1 
f 66/68/2 67/69/2 68/70/3 69/71/25 
f 70/72/26 71/73/27 66/68/2 69/71/25 
f 72/74/3 63/65/1 53/55/1 65/67/3 
s off
f 62/64/2 58/60/2 57/59/22 54/56/2 
f 54/56/2 57/59/22 60/62/22 55/57/22 
f 73/75/9 61/63/23 56/58/3 74/76/9 
f 74/76/9 56/58/3 59/61/3 75/77/9 
f 64/66/24 70/72/26 69/71/25 65/67/3 
f 65/67/3 69/71/25 68/70/3 72/74/3 
f 76/78/10 67/69/2 66/68/2 77/79/10 
f 77/79/10 66/68/2 71/73/27 78/80/10 
s 1
f 28/28/1 31/31/1 79/81/28 80/82/13 
f 81/83/13 82/84/29 61/63/23 83/85/11 
s off
f 79/81/28 82/84/29 81/83/13 80/82/13 
f 84/86/30 83/85/11 61/63/23 73/87/30 
s 1
f 85/88/11 71/73/27 86/89/31 87/90/13 
f 31/31/1 40/41/1 88/91/32 79/81/28 
f 89/92/13 90/93/33 43/44/1 42/43/1 
f 82/84/29 91/94/34 60/62/22 61/63/23 
s off
f 89/92/13 87/90/13 86/89/31 90/93/33 
f 90/93/33 86/89/31 92/95/35 93/96/36 
f 78/97/30 71/73/27 85/88/11 94/98/30 
s 1
f 88/91/32 40/41/1 50/52/1 95/99/1 
s off
f 88/91/32 91/94/34 82/84/29 79/81/28 
s 1
f 93/96/36 51/53/1 43/44/1 90/93/33 
f 70/72/26 92/95/35 86/89/31 71/73/27 
s off
f 55/57/22 88/91/32 95/99/1 52/54/1 
f 52/54/1 95/99/1 93/96/36 64/66/24 
f 60/62/22 91/94/34 88/91/32 55/57/22 
f 64/66/24 93/96/36 92/95/35 70/72/26 
s 1
f 95/99/1 50/52/1 51/53/1 93/96/36 
# 72 polygons

