# 3ds Max Wavefront OBJ Exporter v0.99 - (c)2007 guruware
# File Created: 31.05.2023 18:06:17

mtllib Sewer hatch.mtl

#
# object Pipe_hatch
#

v  -22.0180 8.0869 175.9366
v  -20.4242 8.0869 175.9366
v  -20.8773 4.3445 175.9366
v  -18.8057 0.6134 175.9366
v  -18.2765 8.0869 175.9366
v  -16.5028 8.0869 175.9366
v  -16.7281 -1.9231 175.9366
v  -18.9397 8.0869 175.9366
v  -19.1724 1.1622 175.9366
v  -13.1763 -4.8340 175.9366
v  -12.8645 8.0869 175.9366
v  -10.1378 8.0869 175.9366
v  -10.2862 -6.3823 175.9366
v  -16.2615 -2.3897 175.9366
v  -15.8396 8.0869 175.9366
v  -13.5277 8.0869 175.9366
v  -13.7251 -4.4673 175.9366
v  -5.8907 -7.7123 175.9366
v  -5.7934 8.0869 175.9366
v  -2.6298 8.0869 175.9366
v  -2.6281 -8.0368 175.9366
v  -9.6765 -6.6348 175.9366
v  -9.4746 8.0869 175.9366
v  -6.4566 8.0869 175.9366
v  -6.5381 -7.5835 175.9366
v  5.0801 -6.6348 175.9366
v  1.9417 -7.5835 175.9366
v  1.8602 8.0869 175.9366
v  4.8782 8.0869 175.9366
v  -1.9666 8.0869 175.9366
v  1.1970 8.0869 175.9366
v  1.2944 -7.7123 175.9366
v  -1.9682 -8.0368 175.9366
v  11.6651 -2.3897 175.9366
v  9.1286 -4.4673 175.9366
v  8.9313 8.0869 175.9366
v  11.2432 8.0869 175.9366
v  5.5414 8.0869 175.9366
v  8.2681 8.0869 175.9366
v  8.5798 -4.8340 175.9366
v  5.6898 -6.3823 175.9366
v  14.5760 1.1622 175.9366
v  14.3433 8.0869 175.9366
v  15.8278 8.0869 175.9366
v  16.2809 4.3445 175.9366
v  11.9064 8.0869 175.9366
v  13.6801 8.0869 175.9366
v  14.2093 0.6134 175.9366
v  12.1317 -1.9231 175.9366
v  17.4216 8.0869 175.9366
v  1.8602 8.0869 176.8114
v  4.8782 8.0869 176.8114
v  -18.6081 8.0869 175.7383
v  -18.6081 8.0869 177.0097
v  -18.2765 8.0869 176.8114
v  -16.1712 8.0869 175.7383
v  -16.5064 -2.1680 175.7383
v  -19.0024 0.8788 175.7383
v  -9.8062 8.0869 175.7383
v  -9.9876 -6.5237 175.7383
v  -13.4596 -4.6640 175.7383
v  -13.1961 8.0869 175.7383
v  -2.2982 8.0869 175.7383
v  -2.2982 -8.0532 175.7383
v  -6.2175 -7.6637 175.7383
v  -6.1250 8.0869 175.7383
v  5.2098 8.0869 175.7383
v  5.3912 -6.5237 175.7383
v  1.6212 -7.6637 175.7383
v  1.5286 8.0869 175.7383
v  11.5748 8.0869 175.7383
v  11.9100 -2.1680 175.7383
v  8.8632 -4.6640 175.7383
v  8.5997 8.0869 175.7383
v  14.4060 0.8788 175.7383
v  14.0117 8.0869 175.7383
v  -16.5028 8.0869 176.8114
v  -13.1961 8.0869 177.0097
v  -12.8645 8.0869 176.8114
v  5.2098 8.0869 177.0097
v  5.5414 8.0869 176.8114
v  -6.1250 8.0869 177.0097
v  -5.7934 8.0869 176.8114
v  -16.1712 8.0869 177.0097
v  -15.8396 8.0869 176.8114
v  8.2681 8.0869 176.8114
v  11.9064 8.0869 176.8114
v  13.6801 8.0869 176.8114
v  -9.4746 8.0869 176.8114
v  -6.4566 8.0869 176.8114
v  15.8278 8.0869 176.8114
v  17.4216 8.0869 176.8114
v  -1.9666 8.0869 176.8114
v  1.1970 8.0869 176.8114
v  1.5286 8.0869 177.0097
v  14.0117 8.0869 177.0097
v  11.2432 8.0869 176.8114
v  11.5748 8.0869 177.0097
v  -13.5277 8.0869 176.8114
v  -22.0180 8.0869 176.8114
v  -20.8773 4.3445 176.8114
v  -20.4242 8.0869 176.8114
v  -18.8057 0.6134 176.8114
v  -16.7281 -1.9231 176.8114
v  -19.1724 1.1622 176.8114
v  -18.9397 8.0869 176.8114
v  -13.1763 -4.8340 176.8114
v  -10.2862 -6.3823 176.8114
v  -10.1378 8.0869 176.8114
v  -16.2615 -2.3897 176.8114
v  -13.7251 -4.4673 176.8114
v  -5.8907 -7.7123 176.8114
v  -2.6281 -8.0368 176.8114
v  -2.6298 8.0869 176.8114
v  -9.6765 -6.6348 176.8114
v  -6.5381 -7.5835 176.8114
v  5.0801 -6.6348 176.8114
v  1.9417 -7.5835 176.8114
v  -1.9682 -8.0368 176.8114
v  1.2944 -7.7123 176.8114
v  11.6651 -2.3897 176.8114
v  8.9313 8.0869 176.8114
v  9.1286 -4.4673 176.8114
v  5.6898 -6.3823 176.8114
v  8.5798 -4.8340 176.8114
v  14.5760 1.1622 176.8114
v  16.2809 4.3445 176.8114
v  14.3433 8.0869 176.8114
v  12.1317 -1.9231 176.8114
v  14.2093 0.6134 176.8114
v  -16.5064 -2.1680 177.0097
v  -19.0024 0.8788 177.0097
v  -9.9876 -6.5237 177.0097
v  -9.8062 8.0869 177.0097
v  -13.4596 -4.6640 177.0097
v  -2.2982 -8.0532 177.0097
v  -2.2982 8.0869 177.0097
v  -6.2175 -7.6637 177.0097
v  5.3912 -6.5237 177.0097
v  1.6212 -7.6637 177.0097
v  11.9100 -2.1680 177.0097
v  8.5997 8.0869 177.0097
v  8.8632 -4.6640 177.0097
v  14.4060 0.8788 177.0097
# 144 vertices

vn 0.0000 0.7764 -0.6302
vn 0.0000 0.7071 -0.7071
vn 0.0000 0.0000 -1.0000
vn 0.1896 -0.0134 -0.9818
vn 0.1638 0.7666 -0.6209
vn -0.1708 0.7741 -0.6096
vn -0.5237 0.0118 -0.8518
vn -0.1716 0.7750 -0.6082
vn -0.6389 0.0215 -0.7690
vn 0.2117 -0.0051 -0.9773
vn 0.1674 0.7703 -0.6154
vn -0.1699 0.7731 -0.6111
vn -0.3673 0.0038 -0.9301
vn 0.1991 -0.0080 -0.9799
vn 0.1661 0.7690 -0.6173
vn -0.1703 0.7735 -0.6105
vn -0.4336 0.0068 -0.9011
vn 0.2506 -0.0015 -0.9681
vn 0.1687 0.7717 -0.6132
vn -0.1692 0.7722 -0.6124
vn -0.2796 -0.0000 -0.9601
vn 0.2288 -0.0031 -0.9735
vn 0.1681 0.7711 -0.6141
vn -0.1695 0.7727 -0.6118
vn -0.3169 0.0016 -0.9484
vn -0.2288 -0.0031 -0.9735
vn 0.3169 0.0016 -0.9484
vn 0.1695 0.7727 -0.6118
vn -0.1681 0.7711 -0.6141
vn 0.1692 0.7722 -0.6124
vn -0.1687 0.7717 -0.6132
vn -0.2506 -0.0015 -0.9681
vn 0.2796 -0.0000 -0.9601
vn -0.1991 -0.0080 -0.9799
vn 0.4336 0.0068 -0.9011
vn 0.1703 0.7735 -0.6105
vn -0.1661 0.7690 -0.6173
vn 0.1699 0.7731 -0.6111
vn -0.1674 0.7703 -0.6154
vn -0.2117 -0.0051 -0.9773
vn 0.3673 0.0038 -0.9301
vn 0.6389 0.0215 -0.7690
vn 0.1716 0.7750 -0.6082
vn 0.1708 0.7741 -0.6096
vn -0.1638 0.7666 -0.6209
vn -0.1896 -0.0134 -0.9818
vn 0.5237 0.0118 -0.8518
vn 0.1695 0.7727 0.6118
vn -0.1681 0.7711 0.6141
vn 0.0142 0.6074 -0.7943
vn 0.0142 0.6074 0.7943
vn 0.1638 0.7666 0.6209
vn 0.0085 0.6076 -0.7942
vn 0.2973 -0.0097 -0.9547
vn 0.4123 -0.0226 -0.9108
vn 0.0032 0.6078 -0.7941
vn 0.1268 -0.0016 -0.9919
vn 0.2036 -0.0042 -0.9790
vn 0.0054 0.6077 -0.7941
vn 0.0000 0.6078 -0.7941
vn 0.0609 -0.0004 -0.9981
vn 0.0015 0.6078 -0.7941
vn -0.0032 0.6078 -0.7941
vn -0.1268 -0.0016 -0.9919
vn -0.0609 -0.0004 -0.9981
vn -0.0015 0.6078 -0.7941
vn -0.0085 0.6076 -0.7942
vn -0.2972 -0.0097 -0.9548
vn -0.2036 -0.0042 -0.9790
vn -0.0054 0.6077 -0.7941
vn -0.4123 -0.0226 -0.9108
vn -0.0142 0.6074 -0.7943
vn -0.1708 0.7741 0.6096
vn 0.0054 0.6077 0.7941
vn 0.1674 0.7703 0.6154
vn -0.0032 0.6078 0.7941
vn 0.1699 0.7731 0.6111
vn 0.0015 0.6078 0.7941
vn 0.1687 0.7717 0.6132
vn 0.0085 0.6076 0.7942
vn 0.1661 0.7690 0.6173
vn -0.1674 0.7703 0.6154
vn 0.1708 0.7741 0.6096
vn -0.1638 0.7666 0.6209
vn 0.1681 0.7711 0.6141
vn -0.1695 0.7727 0.6118
vn 0.0000 0.7071 0.7071
vn 0.0000 0.7764 0.6302
vn 0.1692 0.7722 0.6124
vn -0.1687 0.7717 0.6132
vn -0.0015 0.6078 0.7941
vn -0.0142 0.6074 0.7943
vn -0.1661 0.7690 0.6173
vn -0.0085 0.6076 0.7942
vn -0.1703 0.7735 0.6105
vn 0.0000 0.0000 1.0000
vn 0.1896 -0.0134 0.9818
vn -0.5237 0.0118 0.8518
vn -0.6389 0.0215 0.7690
vn -0.1716 0.7750 0.6082
vn 0.2117 -0.0051 0.9773
vn -0.3673 0.0038 0.9301
vn -0.1699 0.7731 0.6111
vn 0.1991 -0.0080 0.9799
vn -0.4336 0.0068 0.9011
vn 0.2506 -0.0015 0.9681
vn -0.2796 -0.0000 0.9601
vn -0.1692 0.7722 0.6124
vn 0.2288 -0.0031 0.9735
vn -0.3169 0.0016 0.9484
vn -0.2288 -0.0031 0.9735
vn 0.3169 0.0016 0.9484
vn 0.2796 -0.0000 0.9601
vn -0.2506 -0.0015 0.9681
vn -0.1991 -0.0080 0.9799
vn 0.1703 0.7735 0.6105
vn 0.4336 0.0068 0.9011
vn 0.3673 0.0038 0.9301
vn -0.2117 -0.0051 0.9773
vn 0.6389 0.0215 0.7690
vn 0.1716 0.7750 0.6082
vn 0.5237 0.0118 0.8518
vn -0.1896 -0.0134 0.9818
vn 0.2973 -0.0097 0.9547
vn 0.4123 -0.0226 0.9108
vn 0.1268 -0.0016 0.9919
vn 0.0032 0.6078 0.7941
vn 0.2036 -0.0042 0.9790
vn 0.0000 0.6078 0.7941
vn 0.0609 -0.0004 0.9981
vn -0.1268 -0.0016 0.9919
vn -0.0609 -0.0004 0.9981
vn -0.2972 -0.0097 0.9548
vn -0.0054 0.6077 0.7941
vn -0.2036 -0.0042 0.9790
vn -0.4123 -0.0226 0.9108
# 136 vertex normals

vt 0.9990 0.4095 0.0000
vt 0.9587 0.4095 0.0000
vt 0.9701 0.3148 0.0000
vt 0.9177 0.2203 0.0000
vt 0.9043 0.4095 0.0000
vt 0.8594 0.4095 0.0000
vt 0.8651 0.1561 0.0000
vt 0.9211 0.4095 0.0000
vt 0.9270 0.2342 0.0000
vt 0.7753 0.0825 0.0000
vt 0.7674 0.4095 0.0000
vt 0.6984 0.4095 0.0000
vt 0.7021 0.0433 0.0000
vt 0.8533 0.1443 0.0000
vt 0.8427 0.4095 0.0000
vt 0.7842 0.4095 0.0000
vt 0.7892 0.0917 0.0000
vt 0.5909 0.0096 0.0000
vt 0.5884 0.4095 0.0000
vt 0.5084 0.4095 0.0000
vt 0.5083 0.0014 0.0000
vt 0.6867 0.0369 0.0000
vt 0.6816 0.4095 0.0000
vt 0.6052 0.4095 0.0000
vt 0.6073 0.0129 0.0000
vt 0.3133 0.0369 0.0000
vt 0.3927 0.0129 0.0000
vt 0.3948 0.4096 0.0000
vt 0.3184 0.4096 0.0000
vt 0.4916 0.4095 0.0000
vt 0.4116 0.4096 0.0000
vt 0.4091 0.0096 0.0000
vt 0.4917 0.0014 0.0000
vt 0.1467 0.1444 0.0000
vt 0.2108 0.0918 0.0000
vt 0.2158 0.4096 0.0000
vt 0.1573 0.4096 0.0000
vt 0.3016 0.4096 0.0000
vt 0.2326 0.4096 0.0000
vt 0.2247 0.0825 0.0000
vt 0.2979 0.0433 0.0000
vt 0.0730 0.2343 0.0000
vt 0.0789 0.4096 0.0000
vt 0.0413 0.4096 0.0000
vt 0.0299 0.3148 0.0000
vt 0.1406 0.4096 0.0000
vt 0.0957 0.4096 0.0000
vt 0.0823 0.2204 0.0000
vt 0.1349 0.1562 0.0000
vt 0.0010 0.4096 0.0000
vt 0.6039 0.8471 0.0000
vt 0.6039 0.8250 0.0000
vt 0.6801 0.8250 0.0000
vt 0.6801 0.8471 0.0000
vt 0.0955 0.8471 0.0000
vt 0.0871 0.8521 0.0000
vt 0.0871 0.8200 0.0000
vt 0.0955 0.8250 0.0000
vt 0.8512 0.4095 0.0000
vt 0.8597 0.1500 0.0000
vt 0.9228 0.2271 0.0000
vt 0.9128 0.4095 0.0000
vt 0.6901 0.4095 0.0000
vt 0.6947 0.0397 0.0000
vt 0.7826 0.0868 0.0000
vt 0.7759 0.4095 0.0000
vt 0.5001 0.4096 0.0000
vt 0.5001 0.0010 0.0000
vt 0.5993 0.0109 0.0000
vt 0.5970 0.4096 0.0000
vt 0.3101 0.4096 0.0000
vt 0.3056 0.0397 0.0000
vt 0.4010 0.0109 0.0000
vt 0.4033 0.4096 0.0000
vt 0.1491 0.4096 0.0000
vt 0.1406 0.1500 0.0000
vt 0.2177 0.0868 0.0000
vt 0.2244 0.4096 0.0000
vt 0.0774 0.2271 0.0000
vt 0.0874 0.4096 0.0000
vt 0.1402 0.8471 0.0000
vt 0.1402 0.8250 0.0000
vt 0.2321 0.8471 0.0000
vt 0.2237 0.8521 0.0000
vt 0.2237 0.8200 0.0000
vt 0.2321 0.8250 0.0000
vt 0.6968 0.8471 0.0000
vt 0.6884 0.8521 0.0000
vt 0.6884 0.8200 0.0000
vt 0.6968 0.8250 0.0000
vt 0.4106 0.8471 0.0000
vt 0.4023 0.8521 0.0000
vt 0.4023 0.8200 0.0000
vt 0.4106 0.8250 0.0000
vt 0.1570 0.8471 0.0000
vt 0.1486 0.8521 0.0000
vt 0.1486 0.8200 0.0000
vt 0.1570 0.8250 0.0000
vt 0.7656 0.8471 0.0000
vt 0.7656 0.8250 0.0000
vt 0.9023 0.8471 0.0000
vt 0.8575 0.8471 0.0000
vt 0.8575 0.8250 0.0000
vt 0.9023 0.8250 0.0000
vt 0.3939 0.8471 0.0000
vt 0.3177 0.8471 0.0000
vt 0.3177 0.8250 0.0000
vt 0.3939 0.8250 0.0000
vt 0.9967 0.8471 0.0000
vt 0.9565 0.8471 0.0000
vt 0.9565 0.8250 0.0000
vt 0.9967 0.8250 0.0000
vt 0.5871 0.8471 0.0000
vt 0.5072 0.8471 0.0000
vt 0.5072 0.8250 0.0000
vt 0.5871 0.8250 0.0000
vt 0.5955 0.8521 0.0000
vt 0.5955 0.8200 0.0000
vt 0.9107 0.8521 0.0000
vt 0.9107 0.8200 0.0000
vt 0.8491 0.8521 0.0000
vt 0.8408 0.8471 0.0000
vt 0.8408 0.8250 0.0000
vt 0.8491 0.8200 0.0000
vt 0.2154 0.8471 0.0000
vt 0.2154 0.8250 0.0000
vt 0.0010 0.8191 0.0000
vt 0.0299 0.7243 0.0000
vt 0.0413 0.8191 0.0000
vt 0.0823 0.6299 0.0000
vt 0.1349 0.5657 0.0000
vt 0.1406 0.8191 0.0000
vt 0.0957 0.8191 0.0000
vt 0.0730 0.6438 0.0000
vt 0.0789 0.8191 0.0000
vt 0.2247 0.4920 0.0000
vt 0.2979 0.4528 0.0000
vt 0.3016 0.8191 0.0000
vt 0.2326 0.8191 0.0000
vt 0.1467 0.5539 0.0000
vt 0.2108 0.5013 0.0000
vt 0.2158 0.8191 0.0000
vt 0.1573 0.8191 0.0000
vt 0.4091 0.4191 0.0000
vt 0.4917 0.4109 0.0000
vt 0.4916 0.8191 0.0000
vt 0.4116 0.8191 0.0000
vt 0.3133 0.4464 0.0000
vt 0.3927 0.4224 0.0000
vt 0.3948 0.8191 0.0000
vt 0.3184 0.8191 0.0000
vt 0.6867 0.4464 0.0000
vt 0.6816 0.8191 0.0000
vt 0.6052 0.8191 0.0000
vt 0.6073 0.4224 0.0000
vt 0.5084 0.8191 0.0000
vt 0.5083 0.4109 0.0000
vt 0.5909 0.4191 0.0000
vt 0.5884 0.8191 0.0000
vt 0.8533 0.5539 0.0000
vt 0.8427 0.8191 0.0000
vt 0.7842 0.8191 0.0000
vt 0.7891 0.5013 0.0000
vt 0.6984 0.8191 0.0000
vt 0.7021 0.4528 0.0000
vt 0.7753 0.4920 0.0000
vt 0.7674 0.8191 0.0000
vt 0.9270 0.6438 0.0000
vt 0.9701 0.7243 0.0000
vt 0.9587 0.8191 0.0000
vt 0.9211 0.8191 0.0000
vt 0.8594 0.8191 0.0000
vt 0.8651 0.5657 0.0000
vt 0.9177 0.6299 0.0000
vt 0.9043 0.8191 0.0000
vt 0.9990 0.8191 0.0000
vt 0.4905 0.8250 0.0000
vt 0.4905 0.8471 0.0000
vt 0.7824 0.8250 0.0000
vt 0.7824 0.8471 0.0000
vt 0.0010 0.8250 0.0000
vt 0.0412 0.8250 0.0000
vt 0.0412 0.8471 0.0000
vt 0.0010 0.8471 0.0000
vt 0.9190 0.8250 0.0000
vt 0.9190 0.8471 0.0000
vt 0.1406 0.5595 0.0000
vt 0.1491 0.8191 0.0000
vt 0.0874 0.8191 0.0000
vt 0.0774 0.6366 0.0000
vt 0.3056 0.4492 0.0000
vt 0.3101 0.8191 0.0000
vt 0.2244 0.8191 0.0000
vt 0.2177 0.4963 0.0000
vt 0.5001 0.4105 0.0000
vt 0.5001 0.8191 0.0000
vt 0.4033 0.8191 0.0000
vt 0.4010 0.4204 0.0000
vt 0.6947 0.4492 0.0000
vt 0.6901 0.8191 0.0000
vt 0.5970 0.8191 0.0000
vt 0.5993 0.4204 0.0000
vt 0.8597 0.5595 0.0000
vt 0.8512 0.8191 0.0000
vt 0.7759 0.8191 0.0000
vt 0.7826 0.4963 0.0000
vt 0.9128 0.8191 0.0000
vt 0.9228 0.6366 0.0000
vt 0.4989 0.8521 0.0000
vt 0.4989 0.8200 0.0000
vt 0.7740 0.8521 0.0000
vt 0.7740 0.8200 0.0000
vt 0.3093 0.8521 0.0000
vt 0.3093 0.8200 0.0000
vt 0.3009 0.8471 0.0000
vt 0.3009 0.8250 0.0000
vt 0.0787 0.8471 0.0000
vt 0.0787 0.8250 0.0000
# 218 texture coords

o Pipe_hatch
g Pipe_hatch
usemtl 1x2_wire_085028177
s 1
f 1/1/1 2/2/2 3/3/3 
f 4/4/4 5/5/5 6/6/6 7/7/7 
f 2/2/2 8/8/8 9/9/9 3/3/3 
f 10/10/10 11/11/11 12/12/12 13/13/13 
s 2
f 14/14/14 15/15/15 16/16/16 17/17/17 
s 1
f 18/18/18 19/19/19 20/20/20 21/21/21 
s 2
f 22/22/22 23/23/23 24/24/24 25/25/25 
s 1
f 26/26/26 27/27/27 28/28/28 29/29/29 
s 2
f 30/30/30 31/31/31 32/32/32 33/33/33 
s 1
f 34/34/34 35/35/35 36/36/36 37/37/37 
s 2
f 38/38/38 39/39/39 40/40/40 41/41/41 
s 1
f 42/42/42 43/43/43 44/44/2 45/45/3 
f 46/46/44 47/47/45 48/48/46 49/49/47 
f 44/44/2 50/50/1 45/45/3 
s 4
f 28/51/28 51/52/48 52/53/49 29/54/29 
f 5/55/5 53/56/50 54/57/51 55/58/52 
s 2
f 7/7/7 6/6/6 56/59/53 57/60/54 
s 16
f 5/5/5 4/4/4 58/61/55 53/62/50 
s 2
f 9/9/9 8/8/8 53/62/50 58/61/55 
s 1
f 13/13/13 12/12/12 59/63/56 60/64/57 
f 11/11/11 10/10/10 61/65/58 62/66/59 
s 2
f 17/17/17 16/16/16 62/66/59 61/65/58 
s 1
f 15/15/15 14/14/14 57/60/54 56/59/53 
f 21/21/21 20/20/20 63/67/60 64/68/3 
f 19/19/19 18/18/18 65/69/61 66/70/62 
s 2
f 25/25/25 24/24/24 66/70/62 65/69/61 
f 23/23/23 22/22/22 60/64/57 59/63/56 
s 1
f 26/26/26 29/29/29 67/71/63 68/72/64 
f 28/28/28 27/27/27 69/73/65 70/74/66 
s 2
f 30/30/30 33/33/33 64/68/3 63/67/60 
f 32/32/32 31/31/31 70/74/66 69/73/65 
s 16
f 34/34/34 37/37/37 71/75/67 72/76/68 
s 1
f 36/36/36 35/35/35 73/77/69 74/78/70 
s 2
f 38/38/38 41/41/41 68/72/64 67/71/63 
f 40/40/40 39/39/39 74/78/70 73/77/69 
f 43/43/43 42/42/42 75/79/71 76/80/72 
f 46/46/44 49/49/47 72/76/68 71/75/67 
s 16
f 48/48/46 47/47/45 76/80/72 75/79/71 
s 4
f 6/81/6 5/55/5 55/58/52 77/82/73 
f 11/83/11 62/84/59 78/85/74 79/86/75 
f 38/87/38 67/88/63 80/89/76 81/90/77 
f 19/91/19 66/92/62 82/93/78 83/94/79 
f 15/95/15 56/96/53 84/97/80 85/98/81 
f 39/99/39 38/87/38 81/90/77 86/100/82 
f 47/101/45 46/102/44 87/103/83 88/104/84 
f 24/105/24 23/106/23 89/107/85 90/108/86 
f 50/109/1 44/110/2 91/111/87 92/112/88 
f 31/113/31 30/114/30 93/115/89 94/116/90 
f 70/117/66 31/113/31 94/116/90 95/118/91 
f 76/119/72 47/101/45 88/104/84 96/120/92 
f 71/121/67 37/122/37 97/123/93 98/124/94 
f 62/84/59 16/125/16 99/126/95 78/85/74 
s 1
f 100/127/88 101/128/96 102/129/87 
f 103/130/97 104/131/98 77/132/73 55/133/52 
f 102/129/87 101/128/96 105/134/99 106/135/100 
f 107/136/101 108/137/102 109/138/103 79/139/75 
s 2
f 110/140/104 111/141/105 99/142/95 85/143/81 
s 1
f 112/144/106 113/145/107 114/146/108 83/147/79 
s 2
f 115/148/109 116/149/110 90/150/86 89/151/85 
s 1
f 117/152/111 52/153/49 51/154/48 118/155/112 
s 2
f 93/156/89 119/157/113 120/158/114 94/159/90 
s 1
f 121/160/115 97/161/93 122/162/116 123/163/117 
s 2
f 81/164/77 124/165/118 125/166/119 86/167/82 
s 1
f 126/168/120 127/169/96 91/170/87 128/171/121 
f 87/172/83 129/173/122 130/174/123 88/175/84 
f 91/170/87 127/169/96 92/176/88 
s 4
f 83/94/79 114/177/108 20/178/20 19/91/19 
f 122/179/116 97/123/93 37/122/37 36/180/36 
f 100/181/88 102/182/87 2/183/2 1/184/1 
f 51/52/48 28/51/28 70/117/66 95/118/91 
f 128/185/121 43/186/43 76/119/72 96/120/92 
s 2
f 104/131/98 131/187/124 84/188/80 77/132/73 
s 16
f 55/133/52 54/189/51 132/190/125 103/130/97 
s 2
f 105/134/99 132/190/125 54/189/51 106/135/100 
s 1
f 108/137/102 133/191/126 134/192/127 109/138/103 
f 79/139/75 78/193/74 135/194/128 107/136/101 
s 2
f 111/141/105 135/194/128 78/193/74 99/142/95 
s 1
f 85/143/81 84/188/80 131/187/124 110/140/104 
f 113/145/107 136/195/96 137/196/129 114/146/108 
f 83/147/79 82/197/78 138/198/130 112/144/106 
s 2
f 116/149/110 138/198/130 82/197/78 90/150/86 
f 89/151/85 134/192/127 133/191/126 115/148/109 
s 1
f 117/152/111 139/199/131 80/200/76 52/153/49 
f 51/154/48 95/201/91 140/202/132 118/155/112 
s 2
f 93/156/89 137/196/129 136/195/96 119/157/113 
f 120/158/114 140/202/132 95/201/91 94/159/90 
s 16
f 121/160/115 141/203/133 98/204/94 97/161/93 
s 1
f 122/162/116 142/205/134 143/206/135 123/163/117 
s 2
f 81/164/77 80/200/76 139/199/131 124/165/118 
f 125/166/119 143/206/135 142/205/134 86/167/82 
f 128/171/121 96/207/92 144/208/136 126/168/120 
f 87/172/83 98/204/94 141/203/133 129/173/122 
s 16
f 130/174/123 144/208/136 96/207/92 88/175/84 
s 4
f 44/110/2 43/186/43 128/185/121 91/111/87 
f 30/114/30 63/209/60 137/210/129 93/115/89 
f 46/102/44 71/121/67 98/124/94 87/103/83 
f 36/180/36 74/211/70 142/212/134 122/179/116 
f 23/106/23 59/213/56 134/214/127 89/107/85 
f 12/215/12 11/83/11 79/86/75 109/216/103 
f 53/56/50 8/217/8 106/218/100 54/57/51 
f 56/96/53 6/81/6 77/82/73 84/97/80 
f 63/209/60 20/178/20 114/177/108 137/210/129 
f 66/92/62 24/105/24 90/108/86 82/93/78 
f 8/217/8 2/183/2 102/182/87 106/218/100 
f 16/125/16 15/95/15 85/98/81 99/126/95 
f 59/213/56 12/215/12 109/216/103 134/214/127 
f 74/211/70 39/99/39 86/100/82 142/212/134 
f 67/88/63 29/54/29 52/53/49 80/89/76 
# 104 polygons - 4 triangles

