# 3ds Max Wavefront OBJ Exporter v0.99 - (c)2007 guruware
# File Created: 17.02.2023 14:11:13

mtllib chain link fence.mtl

#
# object Plane001
#

v  -19.5873 51.0352 0.0000
v  -19.5873 0.0376 -0.0000
v  19.5873 0.0376 -0.0000
v  19.5873 51.0352 0.0000
v  20.5000 0.0000 0.8660
v  20.0000 0.0000 1.0000
v  19.5000 0.0000 0.8660
v  19.1340 0.0000 0.5000
v  21.0000 0.0000 0.0000
v  20.8660 0.0000 -0.5000
v  20.8660 49.7095 -0.5000
v  21.0000 49.7095 -0.0000
v  20.5000 0.0000 -0.8660
v  20.5000 49.7095 -0.8660
v  20.0000 0.0000 -1.0000
v  20.0000 49.7095 -1.0000
v  19.5000 0.0000 -0.8660
v  19.5000 49.7095 -0.8660
v  19.1340 0.0000 -0.5000
v  19.1340 49.7095 -0.5000
v  19.0000 0.0000 -0.0000
v  19.0000 49.7095 -0.0000
v  19.1340 49.7095 0.5000
v  19.5000 49.7095 0.8660
v  20.0000 49.7095 1.0000
v  20.5000 49.7095 0.8660
v  20.8660 0.0000 0.5000
v  20.8660 49.7095 0.5000
v  20.8660 64.2912 -7.0031
v  21.0000 63.9699 -7.3862
v  20.8660 63.6485 -7.7692
v  20.5000 64.5265 -6.7228
v  21.0000 56.8449 -2.2896
v  20.8660 56.6929 -2.7910
v  20.5000 56.5807 -3.1586
v  20.5000 63.4132 -8.0496
v  20.0000 56.5394 -3.2933
v  20.0000 63.3271 -8.1522
v  19.5000 56.5807 -3.1586
v  19.5000 63.4132 -8.0496
v  19.1340 56.6929 -2.7910
v  19.1340 63.6485 -7.7692
v  19.0000 56.8449 -2.2896
v  19.0000 63.9699 -7.3862
v  19.1340 56.9957 -1.7889
v  19.1340 64.2912 -7.0031
v  19.5000 57.1053 -1.4229
v  19.5000 64.5265 -6.7228
v  20.0000 57.1453 -1.2890
v  20.0000 64.6126 -6.6201
v  20.5000 57.1053 -1.4229
v  20.8660 56.9957 -1.7889
v  20.8660 53.3257 -1.0600
v  21.0000 53.4608 -0.5724
v  20.5000 53.2266 -1.4170
v  20.0000 53.1903 -1.5478
v  19.5000 53.2266 -1.4170
v  19.1340 53.3257 -1.0600
v  19.0000 53.4608 -0.5724
v  19.1340 53.5955 -0.0850
v  19.5000 53.6940 0.2717
v  20.0000 53.7300 0.4022
v  20.5000 53.6940 0.2717
v  20.8660 53.5955 -0.0850
v  -19.5000 0.0000 0.8660
v  -20.0000 0.0000 1.0000
v  -20.5000 0.0000 0.8660
v  -20.8660 0.0000 0.5000
v  -19.0000 0.0000 0.0000
v  -19.1340 0.0000 -0.5000
v  -19.1340 49.7095 -0.5000
v  -19.0000 49.7095 -0.0000
v  -19.5000 0.0000 -0.8660
v  -19.5000 49.7095 -0.8660
v  -20.0000 0.0000 -1.0000
v  -20.0000 49.7095 -1.0000
v  -20.5000 0.0000 -0.8660
v  -20.5000 49.7095 -0.8660
v  -20.8660 0.0000 -0.5000
v  -20.8660 49.7095 -0.5000
v  -21.0000 0.0000 -0.0000
v  -21.0000 49.7095 -0.0000
v  -20.8660 49.7095 0.5000
v  -20.5000 49.7095 0.8660
v  -20.0000 49.7095 1.0000
v  -19.5000 49.7095 0.8660
v  -19.1340 0.0000 0.5000
v  -19.1340 49.7095 0.5000
v  -19.1340 64.2912 -7.0031
v  -19.0000 63.9699 -7.3862
v  -19.1340 63.6485 -7.7692
v  -19.5000 64.5265 -6.7228
v  -19.0000 56.8449 -2.2896
v  -19.1340 56.6929 -2.7910
v  -19.5000 56.5807 -3.1586
v  -19.5000 63.4132 -8.0496
v  -20.0000 56.5394 -3.2933
v  -20.0000 63.3271 -8.1522
v  -20.5000 56.5807 -3.1586
v  -20.5000 63.4132 -8.0496
v  -20.8660 56.6929 -2.7910
v  -20.8660 63.6485 -7.7692
v  -21.0000 56.8449 -2.2896
v  -21.0000 63.9699 -7.3862
v  -20.8660 56.9957 -1.7889
v  -20.8660 64.2912 -7.0031
v  -20.5000 57.1053 -1.4229
v  -20.5000 64.5265 -6.7228
v  -20.0000 57.1453 -1.2890
v  -20.0000 64.6126 -6.6201
v  -19.5000 57.1053 -1.4229
v  -19.1340 56.9957 -1.7889
v  -19.1340 53.3257 -1.0600
v  -19.0000 53.4608 -0.5724
v  -19.5000 53.2266 -1.4170
v  -20.0000 53.1903 -1.5478
v  -20.5000 53.2266 -1.4170
v  -20.8660 53.3257 -1.0600
v  -21.0000 53.4608 -0.5724
v  -20.8660 53.5955 -0.0850
v  -20.5000 53.6940 0.2717
v  -20.0000 53.7300 0.4022
v  -19.5000 53.6940 0.2717
v  -19.1340 53.5955 -0.0850
v  -19.5452 56.3623 -2.0953
v  -19.5452 54.7419 -0.9607
v  19.5452 54.7419 -0.9607
v  19.5452 56.3623 -2.0953
v  -19.5452 59.0232 -3.9585
v  -19.5452 57.4028 -2.8239
v  19.5452 57.4028 -2.8239
v  19.5452 59.0232 -3.9585
v  -19.5452 61.6802 -5.8190
v  -19.5452 60.0598 -4.6843
v  19.5452 60.0598 -4.6843
v  19.5452 61.6802 -5.8190
# 136 vertices

vn 0.0000 -0.0000 1.0000
vn 0.4952 -0.6457 0.5813
vn -0.0000 -0.6287 0.7777
vn -0.4952 -0.6457 0.5813
vn -0.6973 -0.6655 0.2661
vn 0.7410 -0.6715 0.0000
vn 0.6973 -0.6655 -0.2661
vn 0.9370 -0.0244 -0.3486
vn 1.0000 0.0010 0.0074
vn 0.4952 -0.6457 -0.5813
vn 0.6545 -0.0546 -0.7541
vn 0.0000 -0.6286 -0.7777
vn -0.0000 -0.0734 -0.9973
vn -0.4952 -0.6456 -0.5813
vn -0.6545 -0.0546 -0.7541
vn -0.6973 -0.6656 -0.2661
vn -0.9370 -0.0244 -0.3486
vn -0.7410 -0.6715 -0.0000
vn -1.0000 0.0010 0.0074
vn -0.9311 0.0257 0.3638
vn -0.6414 0.0524 0.7654
vn -0.0000 0.0671 0.9977
vn 0.6414 0.0524 0.7654
vn 0.6973 -0.6656 0.2661
vn 0.9311 0.0257 0.3638
vn 0.7117 0.6642 -0.2287
vn 0.7407 0.5050 -0.4430
vn 0.6876 0.3454 -0.6387
vn 0.5156 0.8555 0.0486
vn 1.0000 0.0052 0.0062
vn 0.9410 -0.1655 -0.2953
vn 0.6663 -0.3683 -0.6484
vn 0.4895 0.1477 -0.8594
vn -0.0000 -0.4969 -0.8678
vn 0.0000 0.0149 -0.9999
vn -0.6663 -0.3683 -0.6484
vn -0.4895 0.1477 -0.8594
vn -0.9410 -0.1655 -0.2953
vn -0.6876 0.3454 -0.6387
vn -1.0000 0.0052 0.0062
vn -0.7407 0.5050 -0.4430
vn -0.9346 0.1747 0.3100
vn -0.7117 0.6642 -0.2288
vn -0.6509 0.3684 0.6638
vn -0.5156 0.8555 0.0486
vn 0.0000 0.4814 0.8765
vn 0.0000 0.9738 0.2274
vn 0.6509 0.3684 0.6638
vn 0.9346 0.1747 0.3100
vn 0.9423 -0.0966 -0.3206
vn 0.9999 0.0044 0.0149
vn 0.6688 -0.2165 -0.7112
vn 0.0000 -0.2924 -0.9563
vn -0.6688 -0.2165 -0.7112
vn -0.9423 -0.0966 -0.3206
vn -0.9999 0.0044 0.0149
vn -0.9300 0.1035 0.3525
vn -0.6401 0.2149 0.7376
vn -0.0000 0.2793 0.9602
vn 0.6401 0.2149 0.7376
vn 0.9300 0.1035 0.3525
vn 0.0000 0.5431 0.8397
# 62 vertex normals

vt 0.0010 0.9990 0.0000
vt 0.0010 0.6468 0.0000
vt 0.3532 0.6468 0.0000
vt 0.3532 0.9990 0.0000
vt 0.0101 0.3404 0.0000
vt 0.0073 0.3365 0.0000
vt 0.0068 0.3316 0.0000
vt 0.0088 0.3272 0.0000
vt 0.0213 0.3436 0.0000
vt 0.0233 0.3392 0.0000
vt 0.4484 0.5340 0.0000
vt 0.4461 0.5383 0.0000
vt 0.0254 0.3348 0.0000
vt 0.4505 0.5296 0.0000
vt 0.0010 0.3879 0.0000
vt 0.0030 0.3835 0.0000
vt 0.4284 0.5783 0.0000
vt 0.4263 0.5827 0.0000
vt 0.0051 0.3790 0.0000
vt 0.4303 0.5738 0.0000
vt 0.0071 0.3746 0.0000
vt 0.4322 0.5693 0.0000
vt 0.0091 0.3702 0.0000
vt 0.4339 0.5648 0.0000
vt 0.0111 0.3658 0.0000
vt 0.4357 0.5603 0.0000
vt 0.0132 0.3613 0.0000
vt 0.4376 0.5558 0.0000
vt 0.0152 0.3569 0.0000
vt 0.4396 0.5513 0.0000
vt 0.0172 0.3525 0.0000
vt 0.4417 0.5469 0.0000
vt 0.0193 0.3480 0.0000
vt 0.4438 0.5426 0.0000
vt 0.5908 0.6060 0.0000
vt 0.5877 0.6022 0.0000
vt 0.5870 0.5974 0.0000
vt 0.5953 0.6077 0.0000
vt 0.5107 0.5678 0.0000
vt 0.5138 0.5639 0.0000
vt 0.5853 0.6020 0.0000
vt 0.5166 0.5598 0.0000
vt 0.5887 0.5928 0.0000
vt 0.4920 0.6129 0.0000
vt 0.4944 0.6086 0.0000
vt 0.5662 0.6416 0.0000
vt 0.5642 0.6461 0.0000
vt 0.4962 0.6041 0.0000
vt 0.5684 0.6373 0.0000
vt 0.4975 0.5993 0.0000
vt 0.5707 0.6330 0.0000
vt 0.4984 0.5944 0.0000
vt 0.5731 0.6287 0.0000
vt 0.4994 0.5895 0.0000
vt 0.5755 0.6244 0.0000
vt 0.5007 0.5847 0.0000
vt 0.5778 0.6201 0.0000
vt 0.5024 0.5802 0.0000
vt 0.5799 0.6157 0.0000
vt 0.5047 0.5759 0.0000
vt 0.5819 0.6111 0.0000
vt 0.5076 0.5718 0.0000
vt 0.5837 0.6066 0.0000
vt 0.4803 0.5490 0.0000
vt 0.4781 0.5533 0.0000
vt 0.4824 0.5447 0.0000
vt 0.4605 0.5926 0.0000
vt 0.4583 0.5970 0.0000
vt 0.4625 0.5882 0.0000
vt 0.4644 0.5838 0.0000
vt 0.4662 0.5793 0.0000
vt 0.4681 0.5749 0.0000
vt 0.4700 0.5705 0.0000
vt 0.4719 0.5662 0.0000
vt 0.4739 0.5619 0.0000
vt 0.4760 0.5576 0.0000
vt 0.0128 0.3244 0.0000
vt 0.0177 0.3239 0.0000
vt 0.0194 0.3420 0.0000
vt 0.0145 0.3425 0.0000
vt 0.0221 0.3259 0.0000
vt 0.0249 0.3299 0.0000
vt 0.5925 0.5898 0.0000
vt 0.6039 0.6039 0.0000
vt 0.6001 0.6070 0.0000
vt 0.5973 0.5890 0.0000
vt 0.6019 0.5908 0.0000
vt 0.6049 0.5946 0.0000
vt 0.6057 0.5994 0.0000
vt 0.0101 0.0175 0.0000
vt 0.0073 0.0135 0.0000
vt 0.0068 0.0087 0.0000
vt 0.0088 0.0043 0.0000
vt 0.0213 0.0207 0.0000
vt 0.0233 0.0163 0.0000
vt 0.4484 0.2110 0.0000
vt 0.4461 0.2154 0.0000
vt 0.0254 0.0118 0.0000
vt 0.4505 0.2067 0.0000
vt 0.0010 0.0650 0.0000
vt 0.0030 0.0606 0.0000
vt 0.4284 0.2554 0.0000
vt 0.4263 0.2598 0.0000
vt 0.0051 0.0561 0.0000
vt 0.4303 0.2509 0.0000
vt 0.0071 0.0517 0.0000
vt 0.4322 0.2464 0.0000
vt 0.0091 0.0473 0.0000
vt 0.4340 0.2419 0.0000
vt 0.0111 0.0429 0.0000
vt 0.4357 0.2373 0.0000
vt 0.0132 0.0384 0.0000
vt 0.4376 0.2329 0.0000
vt 0.0152 0.0340 0.0000
vt 0.4396 0.2284 0.0000
vt 0.0172 0.0296 0.0000
vt 0.4417 0.2240 0.0000
vt 0.0193 0.0251 0.0000
vt 0.4438 0.2197 0.0000
vt 0.5908 0.2830 0.0000
vt 0.5877 0.2793 0.0000
vt 0.5870 0.2745 0.0000
vt 0.5953 0.2848 0.0000
vt 0.5107 0.2449 0.0000
vt 0.5138 0.2410 0.0000
vt 0.5853 0.2790 0.0000
vt 0.5166 0.2369 0.0000
vt 0.5887 0.2699 0.0000
vt 0.4920 0.2900 0.0000
vt 0.4944 0.2857 0.0000
vt 0.5662 0.3187 0.0000
vt 0.5642 0.3232 0.0000
vt 0.4962 0.2812 0.0000
vt 0.5684 0.3144 0.0000
vt 0.4975 0.2764 0.0000
vt 0.5707 0.3101 0.0000
vt 0.4984 0.2715 0.0000
vt 0.5731 0.3058 0.0000
vt 0.4994 0.2665 0.0000
vt 0.5755 0.3015 0.0000
vt 0.5007 0.2618 0.0000
vt 0.5778 0.2972 0.0000
vt 0.5024 0.2572 0.0000
vt 0.5799 0.2928 0.0000
vt 0.5047 0.2530 0.0000
vt 0.5819 0.2882 0.0000
vt 0.5076 0.2489 0.0000
vt 0.5837 0.2836 0.0000
vt 0.4803 0.2261 0.0000
vt 0.4781 0.2304 0.0000
vt 0.4824 0.2218 0.0000
vt 0.4605 0.2697 0.0000
vt 0.4583 0.2741 0.0000
vt 0.4625 0.2653 0.0000
vt 0.4644 0.2608 0.0000
vt 0.4662 0.2564 0.0000
vt 0.4681 0.2520 0.0000
vt 0.4700 0.2476 0.0000
vt 0.4719 0.2433 0.0000
vt 0.4739 0.2390 0.0000
vt 0.4760 0.2347 0.0000
vt 0.0128 0.0015 0.0000
vt 0.0177 0.0010 0.0000
vt 0.0194 0.0191 0.0000
vt 0.0145 0.0195 0.0000
vt 0.0221 0.0030 0.0000
vt 0.0249 0.0070 0.0000
vt 0.5925 0.2669 0.0000
vt 0.6039 0.2810 0.0000
vt 0.6001 0.2841 0.0000
vt 0.5973 0.2661 0.0000
vt 0.6019 0.2679 0.0000
vt 0.6049 0.2717 0.0000
vt 0.6057 0.2765 0.0000
vt 0.0010 0.6209 0.0000
vt 0.0010 0.6095 0.0000
vt 0.2252 0.6095 0.0000
vt 0.2252 0.6209 0.0000
vt 0.0010 0.5968 0.0000
vt 0.0010 0.5855 0.0000
vt 0.2252 0.5855 0.0000
vt 0.2252 0.5968 0.0000
vt 0.0010 0.6088 0.0000
vt 0.0010 0.5975 0.0000
vt 0.2252 0.5975 0.0000
vt 0.2252 0.6088 0.0000
# 186 texture coords

o Plane001
g Plane001
usemtl Material__25
s 1
f 1/1/1 2/2/1 3/3/1 4/4/1 
f 5/5/2 6/6/3 7/7/4 8/8/5 
s 2
f 9/9/6 10/10/7 11/11/8 12/12/9 
f 10/10/7 13/13/10 14/14/11 11/11/8 
f 13/15/10 15/16/12 16/17/13 14/18/11 
f 15/16/12 17/19/14 18/20/15 16/17/13 
f 17/19/14 19/21/16 20/22/17 18/20/15 
f 19/21/16 21/23/18 22/24/19 20/22/17 
f 21/23/18 8/25/5 23/26/20 22/24/19 
f 8/25/5 7/27/4 24/28/21 23/26/20 
f 7/27/4 6/29/3 25/30/22 24/28/21 
f 6/29/3 5/31/2 26/32/23 25/30/22 
f 5/31/2 27/33/24 28/34/25 26/32/23 
s 4
f 27/33/24 9/9/6 12/12/9 28/34/25 
s 1
f 29/35/26 30/36/27 31/37/28 32/38/29 
s 2
f 33/39/30 34/40/31 31/37/28 30/41/27 
f 34/40/31 35/42/32 36/43/33 31/37/28 
f 35/44/32 37/45/34 38/46/35 36/47/33 
f 37/45/34 39/48/36 40/49/37 38/46/35 
f 39/48/36 41/50/38 42/51/39 40/49/37 
f 41/50/38 43/52/40 44/53/41 42/51/39 
f 43/52/40 45/54/42 46/55/43 44/53/41 
f 45/54/42 47/56/44 48/57/45 46/55/43 
f 47/56/44 49/58/46 50/59/47 48/57/45 
f 49/58/46 51/60/48 32/61/29 50/59/47 
f 51/60/48 52/62/49 29/63/26 32/61/29 
s 4
f 52/62/49 33/39/30 30/41/27 29/63/26 
s 2
f 12/12/9 11/11/8 53/64/50 54/65/51 
f 11/11/8 14/14/11 55/66/52 53/64/50 
f 14/18/11 16/17/13 56/67/53 55/68/52 
f 16/17/13 18/20/15 57/69/54 56/67/53 
f 18/20/15 20/22/17 58/70/55 57/69/54 
f 20/22/17 22/24/19 59/71/56 58/70/55 
f 22/24/19 23/26/20 60/72/57 59/71/56 
f 23/26/20 24/28/21 61/73/58 60/72/57 
f 24/28/21 25/30/22 62/74/59 61/73/58 
f 25/30/22 26/32/23 63/75/60 62/74/59 
f 26/32/23 28/34/25 64/76/61 63/75/60 
s 4
f 28/34/25 12/12/9 54/65/51 64/76/61 
s 2
f 34/40/31 33/39/30 54/65/51 53/64/50 
f 35/42/32 34/40/31 53/64/50 55/66/52 
f 37/45/34 35/44/32 55/68/52 56/67/53 
f 39/48/36 37/45/34 56/67/53 57/69/54 
f 41/50/38 39/48/36 57/69/54 58/70/55 
f 43/52/40 41/50/38 58/70/55 59/71/56 
f 45/54/42 43/52/40 59/71/56 60/72/57 
f 47/56/44 45/54/42 60/72/57 61/73/58 
f 49/58/46 47/56/44 61/73/58 62/74/59 
f 51/60/48 49/58/46 62/74/59 63/75/60 
f 52/62/49 51/60/48 63/75/60 64/76/61 
s 4
f 33/39/30 52/62/49 64/76/61 54/65/51 
s 1
f 21/77/18 19/78/16 9/79/6 27/80/24 
f 27/80/24 5/5/2 8/8/5 21/77/18 
f 17/81/14 15/82/12 13/13/10 10/10/7 
f 10/10/7 9/79/6 19/78/16 17/81/14 
f 36/43/33 38/83/35 48/84/45 50/85/47 
f 50/85/47 32/38/29 31/37/28 36/43/33 
f 40/86/37 42/87/39 44/88/41 46/89/43 
f 46/89/43 48/84/45 38/83/35 40/86/37 
f 65/90/2 66/91/3 67/92/4 68/93/5 
s 2
f 69/94/6 70/95/7 71/96/8 72/97/9 
f 70/95/7 73/98/10 74/99/11 71/96/8 
f 73/100/10 75/101/12 76/102/13 74/103/11 
f 75/101/12 77/104/14 78/105/15 76/102/13 
f 77/104/14 79/106/16 80/107/17 78/105/15 
f 79/106/16 81/108/18 82/109/19 80/107/17 
f 81/108/18 68/110/5 83/111/20 82/109/19 
f 68/110/5 67/112/4 84/113/21 83/111/20 
f 67/112/4 66/114/3 85/115/22 84/113/21 
f 66/114/3 65/116/2 86/117/23 85/115/22 
f 65/116/2 87/118/24 88/119/25 86/117/23 
s 4
f 87/118/24 69/94/6 72/97/9 88/119/25 
s 1
f 89/120/26 90/121/27 91/122/28 92/123/29 
s 2
f 93/124/30 94/125/31 91/122/28 90/126/27 
f 94/125/31 95/127/32 96/128/33 91/122/28 
f 95/129/32 97/130/34 98/131/35 96/132/33 
f 97/130/34 99/133/36 100/134/37 98/131/35 
f 99/133/36 101/135/38 102/136/39 100/134/37 
f 101/135/38 103/137/40 104/138/41 102/136/39 
f 103/137/40 105/139/42 106/140/43 104/138/41 
f 105/139/42 107/141/44 108/142/45 106/140/43 
f 107/141/44 109/143/46 110/144/47 108/142/45 
f 109/143/46 111/145/48 92/146/29 110/144/47 
f 111/145/48 112/147/49 89/148/26 92/146/29 
s 4
f 112/147/49 93/124/30 90/126/27 89/148/26 
s 2
f 72/97/9 71/96/8 113/149/50 114/150/51 
f 71/96/8 74/99/11 115/151/52 113/149/50 
f 74/103/11 76/102/13 116/152/53 115/153/52 
f 76/102/13 78/105/15 117/154/54 116/152/53 
f 78/105/15 80/107/17 118/155/55 117/154/54 
f 80/107/17 82/109/19 119/156/56 118/155/55 
f 82/109/19 83/111/20 120/157/57 119/156/56 
f 83/111/20 84/113/21 121/158/58 120/157/57 
f 84/113/21 85/115/22 122/159/59 121/158/58 
f 85/115/22 86/117/23 123/160/60 122/159/59 
f 86/117/23 88/119/25 124/161/61 123/160/60 
s 4
f 88/119/25 72/97/9 114/150/51 124/161/61 
s 2
f 94/125/31 93/124/30 114/150/51 113/149/50 
f 95/127/32 94/125/31 113/149/50 115/151/52 
f 97/130/34 95/129/32 115/153/52 116/152/53 
f 99/133/36 97/130/34 116/152/53 117/154/54 
f 101/135/38 99/133/36 117/154/54 118/155/55 
f 103/137/40 101/135/38 118/155/55 119/156/56 
f 105/139/42 103/137/40 119/156/56 120/157/57 
f 107/141/44 105/139/42 120/157/57 121/158/58 
f 109/143/46 107/141/44 121/158/58 122/159/59 
f 111/145/48 109/143/46 122/159/59 123/160/60 
f 112/147/49 111/145/48 123/160/60 124/161/61 
s 4
f 93/124/30 112/147/49 124/161/61 114/150/51 
s 1
f 81/162/18 79/163/16 69/164/6 87/165/24 
f 87/165/24 65/90/2 68/93/5 81/162/18 
f 77/166/14 75/167/12 73/98/10 70/95/7 
f 70/95/7 69/164/6 79/163/16 77/166/14 
f 96/128/33 98/168/35 108/169/45 110/170/47 
f 110/170/47 92/123/29 91/122/28 96/128/33 
f 100/171/37 102/172/39 104/173/41 106/174/43 
f 106/174/43 108/169/45 98/168/35 100/171/37 
f 125/175/62 126/176/62 127/177/62 128/178/62 
f 129/179/62 130/180/62 131/181/62 132/182/62 
f 133/183/62 134/184/62 135/185/62 136/186/62 
# 120 polygons

