# 3ds Max Wavefront OBJ Exporter v0.99 - (c)2007 guruware
# File Created: 31.05.2023 21:46:46

mtllib bridge transparent.mtl

#
# object Object001
#

v  -10.8199 -0.4149 71.7703
v  10.8199 -0.4149 71.7703
v  10.8199 -0.4149 50.7772
v  -10.8199 -0.4149 50.7772
# 4 vertices

vn 0.0000 1.0000 -0.0000
# 1 vertex normals

vt 0.5196 0.5488 0.0000
vt 0.9648 0.5488 0.0000
vt 0.9648 0.9806 0.0000
vt 0.5196 0.9806 0.0000
# 4 texture coords

o Object001
g Object001
usemtl wire_057008136
s 2
f 1/1/1 2/2/1 3/3/1 4/4/1 
# 1 polygons

