# 3ds Max Wavefront OBJ Exporter v0.99 - (c)2007 guruware
# File Created: 02.05.2023 18:34:44

mtllib 1x1 corner.mtl

#
# object 1x1_corner_level_2
#

v  -50.0000 -0.5000 12.0000
v  -50.0000 -0.5000 50.0000
v  -12.0000 -0.5000 50.0000
v  -12.0000 -0.5000 12.0000
v  -50.0000 -0.5000 -50.0000
v  -50.0000 -0.5000 -12.0000
v  -12.0000 -0.5000 -12.0000
v  -12.0000 -0.5000 -50.0000
v  -12.0000 -0.5000 9.0024
v  -12.0000 -0.5000 -0.0000
v  -50.0000 -0.5000 -0.0000
v  -50.0000 -0.5000 9.0333
v  50.0000 -0.5000 -12.0000
v  12.0000 -0.5000 -12.0000
v  12.0000 -0.5000 -8.9790
v  50.0000 -0.5000 -8.9124
v  12.0000 -0.5000 50.0000
v  50.0000 -0.5000 50.0000
v  50.0000 -0.5000 12.0000
v  12.0000 -0.5000 12.0000
v  50.0000 -0.5000 -50.0000
v  12.0000 -0.5000 -50.0000
v  50.0000 -0.5000 -0.0000
v  12.0000 -0.5000 -0.0000
v  -50.0000 -0.5000 -8.9903
v  -12.0000 -0.5000 -8.9993
v  -9.2461 -0.5000 50.0000
v  0.0000 -0.5000 50.0000
v  0.0000 -0.5000 12.0000
v  -9.0257 -0.5000 12.0000
v  -9.0000 -0.5000 -0.0000
v  -9.0336 -0.5000 9.0000
v  0.0000 -0.5000 9.0000
v  0.0000 -0.5000 -0.0000
v  8.9870 -0.5000 -50.0000
v  0.0000 -0.5000 -50.0000
v  0.0000 -0.5000 -12.0000
v  8.9991 -0.5000 -12.0000
v  9.0000 -0.5000 9.0000
v  9.0000 -0.5000 -0.0000
v  -9.0000 -0.5000 -9.0000
v  0.0000 -0.5000 -9.0000
v  -50.0000 0.5000 9.0333
v  -50.0000 0.5000 12.0000
v  -12.0000 0.5000 12.0000
v  -12.0000 0.5000 9.0024
v  -8.9701 0.5000 -50.0000
v  -12.0000 0.5000 -50.0000
v  -12.0000 0.5000 -12.0000
v  -8.9978 0.5000 -12.0000
v  -9.0257 0.5000 12.0000
v  0.0000 0.5000 12.0000
v  0.0000 0.5000 9.0000
v  -9.0336 0.5000 9.0000
v  12.0000 0.5000 12.0000
v  9.0000 0.5000 9.0000
v  12.0000 0.5000 -0.0000
v  9.0000 0.5000 -0.0000
v  12.0000 0.5000 -8.9790
v  12.0000 0.5000 -12.0000
v  8.9991 0.5000 -12.0000
v  9.0000 0.5000 -8.9921
v  9.0000 -0.5000 -8.9921
v  -12.0000 0.5000 -8.9993
v  -9.0000 0.5000 -9.0000
v  -50.0000 0.5000 -12.0000
v  -50.0000 0.5000 -8.9903
v  -8.9978 -0.5000 -12.0000
v  -8.9701 -0.5000 -50.0000
v  12.0000 0.5000 -50.0000
v  8.9870 0.5000 -50.0000
# 71 vertices

vn -0.5774 0.5774 0.5774
vn 0.0000 1.0000 -0.0000
vn 0.0000 0.7071 0.7071
vn -0.5774 0.5774 -0.5774
vn -0.0006 0.7072 -0.7070
vn -0.5778 0.5770 -0.5772
vn 0.7071 0.7071 -0.0000
vn 0.3015 0.9045 0.3015
vn 0.5774 0.5774 -0.5774
vn -0.5773 0.5774 0.5774
vn 0.0002 0.7071 0.7071
vn -0.0003 0.7072 -0.7070
vn -0.0000 0.7071 -0.7071
vn -0.5774 0.5775 -0.5772
vn -0.7071 0.7071 0.0002
vn -0.7071 0.7071 -0.0000
vn 0.3016 0.9044 0.3017
vn -0.5776 0.5774 -0.5770
vn 0.5776 0.5773 -0.5772
vn -0.3015 0.9045 -0.3015
vn 0.7071 0.7071 0.0005
vn -0.0003 0.7071 -0.7072
vn 0.5774 0.5774 0.5774
vn -0.7071 0.7071 0.0001
vn 0.5772 0.5774 0.5775
vn 0.5774 0.5777 -0.5770
vn -0.5775 0.5773 -0.5773
# 27 vertex normals

vt 0.6386 0.0408 0.0000
vt 0.9890 0.0678 0.0000
vt 0.9597 0.4116 0.0000
vt 0.6119 0.3812 0.0000
vt 0.0303 0.0110 0.0000
vt 0.3853 0.0114 0.0000
vt 0.3564 0.3525 0.0000
vt 0.0110 0.3691 0.0000
vt 0.5649 0.3767 0.0000
vt 0.4805 0.3724 0.0000
vt 0.5138 0.0285 0.0000
vt 0.5969 0.0387 0.0000
vt 0.3922 0.9617 0.0000
vt 0.3721 0.6102 0.0000
vt 0.3991 0.6092 0.0000
vt 0.4199 0.9597 0.0000
vt 0.9404 0.6234 0.0000
vt 0.9326 0.9500 0.0000
vt 0.6054 0.9480 0.0000
vt 0.5865 0.5939 0.0000
vt 0.0455 0.9733 0.0000
vt 0.0331 0.6252 0.0000
vt 0.4997 0.9547 0.0000
vt 0.4797 0.6062 0.0000
vt 0.4289 0.0184 0.0000
vt 0.3985 0.3637 0.0000
vt 0.9575 0.4362 0.0000
vt 0.9499 0.5182 0.0000
vt 0.6033 0.4882 0.0000
vt 0.6096 0.4075 0.0000
vt 0.4784 0.3985 0.0000
vt 0.5633 0.4030 0.0000
vt 0.5583 0.4815 0.0000
vt 0.4748 0.4776 0.0000
vt 0.0313 0.5826 0.0000
vt 0.0241 0.4989 0.0000
vt 0.3690 0.4782 0.0000
vt 0.3708 0.5629 0.0000
vt 0.5496 0.5558 0.0000
vt 0.4747 0.5608 0.0000
vt 0.3921 0.3917 0.0000
vt 0.3952 0.4774 0.0000
vt 0.6040 0.0442 0.0000
vt 0.6306 0.0451 0.0000
vt 0.6026 0.3805 0.0000
vt 0.5743 0.3776 0.0000
vt 0.0210 0.4047 0.0000
vt 0.0166 0.3765 0.0000
vt 0.3622 0.3587 0.0000
vt 0.3629 0.3866 0.0000
vt 0.6003 0.4065 0.0000
vt 0.5943 0.4864 0.0000
vt 0.5674 0.4830 0.0000
vt 0.5726 0.4037 0.0000
vt 0.5806 0.5875 0.0000
vt 0.5553 0.5621 0.0000
vt 0.4783 0.5973 0.0000
vt 0.4758 0.5698 0.0000
vt 0.3986 0.5999 0.0000
vt 0.3720 0.6007 0.0000
vt 0.3712 0.5723 0.0000
vt 0.3972 0.5718 0.0000
vt 0.3971 0.5624 0.0000
vt 0.3896 0.3621 0.0000
vt 0.3864 0.3851 0.0000
vt 0.3921 0.0178 0.0000
vt 0.4202 0.0219 0.0000
vt 0.3635 0.3958 0.0000
vt 0.0168 0.4132 0.0000
vt 0.0380 0.6174 0.0000
vt 0.0363 0.5901 0.0000
# 71 texture coords

o 1x1_corner_level_2
g 1x1_corner_level_2
usemtl wire_228153184
s 1
f 1/1/1 2/2/2 3/3/2 4/4/3 
f 5/5/2 6/6/4 7/7/4 8/8/4 
f 9/9/5 10/10/2 11/11/2 12/12/6 
f 13/13/2 14/14/7 15/15/7 16/16/2 
f 17/17/2 18/18/2 19/19/2 20/20/8 
f 14/14/7 13/13/2 21/21/2 22/22/9 
f 20/20/8 19/19/2 23/23/2 24/24/7 
f 25/25/10 11/11/2 10/10/2 26/26/11 
f 27/27/2 28/28/2 29/29/3 30/30/3 
f 31/31/2 32/32/12 33/33/13 34/34/2 
f 17/17/2 20/20/8 29/29/3 28/28/2 
f 35/35/14 36/36/2 37/37/2 38/38/15 
f 39/39/4 40/40/16 34/34/2 33/33/13 
f 41/41/17 31/31/2 34/34/2 42/42/2 
s off
f 43/43/18 44/44/1 45/45/3 46/46/5 
f 47/47/19 48/48/4 49/49/20 50/50/21 
f 51/51/3 52/52/3 53/53/13 54/54/22 
f 52/52/3 55/55/23 56/56/20 53/53/13 
f 55/55/23 57/57/7 58/58/16 56/56/20 
f 59/59/7 60/60/7 61/61/15 62/62/24 
f 38/38/15 37/37/2 42/42/2 63/63/24 
f 50/50/21 49/49/20 64/64/11 65/65/25 
f 26/26/11 10/10/2 31/31/2 41/41/17 
f 64/64/11 49/49/20 66/66/4 67/67/10 
f 41/41/17 42/42/2 37/37/2 68/68/21 
s 1
f 68/68/21 37/37/2 36/36/2 69/69/26 
s off
f 61/61/15 60/60/7 70/70/9 71/71/27 
s 1
f 42/42/2 34/34/2 40/40/16 63/63/24 
s off
f 62/62/24 58/58/16 57/57/7 59/59/7 
s 1
f 15/15/7 24/24/7 23/23/2 16/16/2 
s off
f 31/31/2 10/10/2 9/9/5 32/32/12 
f 54/54/22 46/46/5 45/45/3 51/51/3 
s 1
f 30/30/3 4/4/3 3/3/2 27/27/2 
s off
f 1/1/1 4/4/3 45/45/3 44/44/1 
f 4/4/3 30/30/3 51/51/3 45/45/3 
f 30/30/3 29/29/3 52/52/3 51/51/3 
f 29/29/3 20/20/8 55/55/23 52/52/3 
f 20/20/8 24/24/7 57/57/7 55/55/23 
f 24/24/7 15/15/7 59/59/7 57/57/7 
f 15/15/7 14/14/7 60/60/7 59/59/7 
f 14/14/7 22/22/9 70/70/9 60/60/7 
f 22/22/9 35/35/14 71/71/27 70/70/9 
f 35/35/14 38/38/15 61/61/15 71/71/27 
f 38/38/15 63/63/24 62/62/24 61/61/15 
f 63/63/24 40/40/16 58/58/16 62/62/24 
f 40/40/16 39/39/4 56/56/20 58/58/16 
f 39/39/4 33/33/13 53/53/13 56/56/20 
f 33/33/13 32/32/12 54/54/22 53/53/13 
f 32/32/12 9/9/5 46/46/5 54/54/22 
f 9/9/5 12/12/6 43/43/18 46/46/5 
f 12/12/6 1/1/1 44/44/1 43/43/18 
f 7/7/4 6/6/4 66/66/4 49/49/20 
f 6/6/4 25/25/10 67/67/10 66/66/4 
f 25/25/10 26/26/11 64/64/11 67/67/10 
f 26/26/11 41/41/17 65/65/25 64/64/11 
f 41/41/17 68/68/21 50/50/21 65/65/25 
f 68/68/21 69/69/26 47/47/19 50/50/21 
f 69/69/26 8/8/4 48/48/4 47/47/19 
f 8/8/4 7/7/4 49/49/20 48/48/4 
# 59 polygons

