# 3ds Max Wavefront OBJ Exporter v0.99 - (c)2007 guruware
# File Created: 02.05.2023 18:27:18

mtllib 1x1.mtl

#
# object 1x1_level_001
#

v  -8.3333 -0.5000 -12.4109
v  0.0000 -0.5000 -10.5693
v  0.0000 -0.5000 -50.0000
v  -8.3333 -0.5000 -50.0000
v  -8.3333 -0.5000 50.0000
v  0.0000 -0.5000 50.0000
v  0.0000 -0.5000 13.4307
v  -8.3333 -0.5000 11.5891
v  -8.3333 -0.5000 -0.4109
v  0.0000 -0.5000 1.4307
v  0.0000 -0.5000 -7.5702
v  -8.3333 -0.5000 -9.4118
v  8.3333 -0.5000 2.8445
v  0.0000 -0.5000 10.4308
v  8.3333 -0.5000 11.8446
v  -8.3333 0.5000 11.5891
v  0.0000 0.5000 13.4307
v  0.0000 0.5000 10.4308
v  -8.3333 0.5000 8.5892
v  8.3333 0.5000 -9.1555
v  0.0000 0.5000 -10.5693
v  0.0000 0.5000 -7.5702
v  8.3333 0.5000 -6.1564
v  41.6667 -0.5000 -12.0000
v  50.0000 -0.5000 -12.0000
v  50.0000 -0.5000 -50.0000
v  41.6667 -0.5000 -50.0000
v  33.3333 -0.5000 -10.8580
v  33.3333 -0.5000 -50.0000
v  25.0000 -0.5000 -9.7096
v  25.0000 -0.5000 -50.0000
v  16.6667 -0.5000 -8.8520
v  16.6667 -0.5000 -50.0000
v  8.3333 -0.5000 -9.1555
v  8.3333 -0.5000 -50.0000
v  -41.6667 -0.5000 -50.0000
v  -50.0000 -0.5000 -50.0000
v  -50.0000 -0.5000 -12.0000
v  -41.6667 -0.5000 -12.0000
v  -33.3333 -0.5000 -50.0000
v  -33.3333 -0.5000 -12.0000
v  -25.0000 -0.5000 -50.0000
v  -25.0000 -0.5000 -12.4132
v  -16.6667 -0.5000 -50.0000
v  -16.6667 -0.5000 -12.8304
v  41.6667 -0.5000 50.0000
v  50.0000 -0.5000 50.0000
v  50.0000 -0.5000 12.0000
v  41.6667 -0.5000 12.0000
v  33.3333 -0.5000 50.0000
v  33.3333 -0.5000 13.1420
v  25.0000 -0.5000 50.0000
v  25.0000 -0.5000 14.2904
v  16.6667 -0.5000 50.0000
v  16.6667 -0.5000 15.1480
v  8.3333 -0.5000 50.0000
v  8.3333 -0.5000 14.8445
v  -41.6667 -0.5000 12.0000
v  -50.0000 -0.5000 12.0000
v  -50.0000 -0.5000 50.0000
v  -41.6667 -0.5000 50.0000
v  -33.3333 -0.5000 12.0000
v  -33.3333 -0.5000 50.0000
v  -25.0000 -0.5000 11.5868
v  -25.0000 -0.5000 50.0000
v  -16.6667 -0.5000 11.1696
v  -16.6667 -0.5000 50.0000
v  41.6667 -0.5000 0.0000
v  50.0000 -0.5000 0.0000
v  50.0000 -0.5000 -9.0009
v  41.6667 -0.5000 -9.0009
v  33.3333 -0.5000 1.1420
v  33.3333 -0.5000 -7.8589
v  25.0000 -0.5000 2.2904
v  25.0000 -0.5000 -6.7105
v  16.6667 -0.5000 3.1480
v  16.6667 -0.5000 -5.8529
v  8.3333 -0.5000 -6.1564
v  -41.6667 -0.5000 -9.0009
v  -50.0000 -0.5000 -9.0009
v  -50.0000 -0.5000 -0.0000
v  -41.6667 -0.5000 -0.0000
v  -33.3333 -0.5000 -9.0009
v  -33.3333 -0.5000 -0.0000
v  -25.0000 -0.5000 -9.4141
v  -25.0000 -0.5000 -0.4132
v  -16.6667 -0.5000 -9.8313
v  -16.6667 -0.5000 -0.8304
v  -50.0000 -0.5000 9.0001
v  -41.6667 -0.5000 9.0001
v  -33.3333 -0.5000 9.0001
v  -25.0000 -0.5000 8.5869
v  -16.6667 -0.5000 8.1697
v  -8.3333 -0.5000 8.5892
v  41.6667 -0.5000 9.0001
v  50.0000 -0.5000 9.0001
v  33.3333 -0.5000 10.1421
v  25.0000 -0.5000 11.2905
v  16.6667 -0.5000 12.1481
v  41.6667 0.5000 12.0000
v  50.0000 0.5000 12.0000
v  50.0000 0.5000 9.0001
v  41.6667 0.5000 9.0001
v  33.3333 0.5000 13.1420
v  33.3333 0.5000 10.1421
v  25.0000 0.5000 14.2904
v  25.0000 0.5000 11.2905
v  16.6667 0.5000 15.1480
v  16.6667 0.5000 12.1481
v  8.3333 0.5000 14.8445
v  8.3333 0.5000 11.8446
v  -41.6667 0.5000 9.0001
v  -50.0000 0.5000 9.0001
v  -50.0000 0.5000 12.0000
v  -41.6667 0.5000 12.0000
v  -33.3333 0.5000 9.0001
v  -33.3333 0.5000 12.0000
v  -25.0000 0.5000 8.5869
v  -25.0000 0.5000 11.5868
v  -16.6667 0.5000 8.1697
v  -16.6667 0.5000 11.1696
v  -41.6667 0.5000 -12.0000
v  -50.0000 0.5000 -12.0000
v  -50.0000 0.5000 -9.0009
v  -41.6667 0.5000 -9.0009
v  -33.3333 0.5000 -12.0000
v  -33.3333 0.5000 -9.0009
v  -25.0000 0.5000 -12.4132
v  -25.0000 0.5000 -9.4141
v  -16.6667 0.5000 -12.8304
v  -16.6667 0.5000 -9.8313
v  -8.3333 0.5000 -12.4109
v  -8.3333 0.5000 -9.4118
v  41.6667 0.5000 -9.0009
v  50.0000 0.5000 -9.0009
v  50.0000 0.5000 -12.0000
v  41.6667 0.5000 -12.0000
v  33.3333 0.5000 -7.8589
v  33.3333 0.5000 -10.8580
v  25.0000 0.5000 -6.7105
v  25.0000 0.5000 -9.7096
v  16.6667 0.5000 -5.8529
v  16.6667 0.5000 -8.8520
# 143 vertices

vn 0.0917 0.7264 -0.6811
vn 0.1365 0.7016 -0.6994
vn 0.0000 1.0000 -0.0000
vn -0.1344 0.7127 0.6885
vn -0.0968 0.6888 0.7185
vn 0.0736 0.6926 -0.7176
vn -0.0917 0.7264 0.6811
vn -0.1365 0.7016 0.6994
vn 0.1344 0.7127 -0.6885
vn 0.0968 0.6888 -0.7185
vn 0.0706 0.7222 -0.6881
vn -0.0736 0.6926 0.7176
vn -0.0470 0.7227 -0.6895
vn 0.5774 0.5774 -0.5774
vn -0.0963 0.7072 -0.7004
vn -0.0849 0.7033 -0.7058
vn -0.0239 0.6918 -0.7217
vn -0.5774 0.5774 -0.5774
vn 0.0000 0.7071 -0.7071
vn -0.0176 0.7016 -0.7123
vn -0.0352 0.7071 -0.7062
vn 0.0001 0.7186 -0.6955
vn 0.5774 0.5774 0.5774
vn 0.0491 0.6921 0.7201
vn 0.0963 0.7070 0.7006
vn 0.0840 0.7110 0.6982
vn 0.0228 0.7231 0.6904
vn -0.0706 0.7222 0.6881
vn 0.0000 0.7071 0.7071
vn -0.5774 0.5774 0.5774
vn 0.0174 0.7128 0.7012
vn 0.0352 0.7072 0.7061
vn -0.0001 0.6960 0.7180
vn 0.0470 0.7227 0.6895
vn -0.0491 0.6921 -0.7201
vn 0.0963 0.7072 0.7004
vn -0.0963 0.7070 -0.7006
vn 0.0849 0.7033 0.7058
vn -0.0840 0.7110 -0.6982
vn 0.0239 0.6918 0.7217
vn -0.0228 0.7231 -0.6904
vn -0.0174 0.7128 -0.7012
vn 0.0176 0.7016 0.7123
vn -0.0352 0.7072 -0.7061
vn 0.0352 0.7071 0.7062
vn 0.0001 0.6960 -0.7180
vn -0.0001 0.7186 0.6955
# 47 vertex normals

vt 0.4222 0.6354 0.0000
vt 0.4983 0.6180 0.0000
vt 0.5080 0.9839 0.0000
vt 0.4296 0.9855 0.0000
vt 0.4014 0.0197 0.0000
vt 0.4800 0.0175 0.0000
vt 0.4898 0.3572 0.0000
vt 0.4140 0.3747 0.0000
vt 0.4180 0.5053 0.0000
vt 0.4942 0.4875 0.0000
vt 0.4951 0.5716 0.0000
vt 0.4195 0.5889 0.0000
vt 0.5703 0.4734 0.0000
vt 0.4931 0.4036 0.0000
vt 0.5687 0.3896 0.0000
vt 0.4153 0.3839 0.0000
vt 0.4915 0.3664 0.0000
vt 0.4914 0.3944 0.0000
vt 0.4155 0.4118 0.0000
vt 0.5730 0.5946 0.0000
vt 0.4966 0.6088 0.0000
vt 0.4968 0.5808 0.0000
vt 0.5727 0.5667 0.0000
vt 0.8793 0.6162 0.0000
vt 0.9561 0.6094 0.0000
vt 0.9765 0.9594 0.0000
vt 0.8993 0.9655 0.0000
vt 0.8026 0.6097 0.0000
vt 0.8213 0.9703 0.0000
vt 0.7260 0.6029 0.0000
vt 0.7432 0.9748 0.0000
vt 0.6497 0.5987 0.0000
vt 0.6649 0.9786 0.0000
vt 0.5740 0.6039 0.0000
vt 0.5865 0.9816 0.0000
vt 0.1168 0.9890 0.0000
vt 0.0386 0.9885 0.0000
vt 0.0391 0.6345 0.0000
vt 0.1153 0.6397 0.0000
vt 0.1951 0.9890 0.0000
vt 0.1921 0.6385 0.0000
vt 0.2734 0.9882 0.0000
vt 0.2688 0.6402 0.0000
vt 0.3515 0.9870 0.0000
vt 0.3456 0.6414 0.0000
vt 0.8712 0.0110 0.0000
vt 0.9496 0.0111 0.0000
vt 0.9506 0.3657 0.0000
vt 0.8745 0.3599 0.0000
vt 0.7929 0.0115 0.0000
vt 0.7975 0.3518 0.0000
vt 0.7147 0.0126 0.0000
vt 0.7204 0.3436 0.0000
vt 0.6365 0.0141 0.0000
vt 0.6432 0.3384 0.0000
vt 0.5584 0.0157 0.0000
vt 0.5663 0.3431 0.0000
vt 0.1091 0.3840 0.0000
vt 0.0324 0.3918 0.0000
vt 0.0110 0.0423 0.0000
vt 0.0882 0.0360 0.0000
vt 0.1852 0.3808 0.0000
vt 0.1663 0.0310 0.0000
vt 0.2617 0.3810 0.0000
vt 0.2445 0.0266 0.0000
vt 0.3380 0.3812 0.0000
vt 0.3228 0.0228 0.0000
vt 0.8768 0.4887 0.0000
vt 0.9553 0.4866 0.0000
vt 0.9546 0.5722 0.0000
vt 0.8791 0.5695 0.0000
vt 0.7996 0.4807 0.0000
vt 0.8024 0.5637 0.0000
vt 0.7229 0.4734 0.0000
vt 0.7258 0.5567 0.0000
vt 0.6464 0.4685 0.0000
vt 0.6486 0.5523 0.0000
vt 0.5716 0.5574 0.0000
vt 0.1157 0.5931 0.0000
vt 0.0384 0.5972 0.0000
vt 0.0340 0.5139 0.0000
vt 0.1123 0.5114 0.0000
vt 0.1916 0.5925 0.0000
vt 0.1893 0.5095 0.0000
vt 0.2680 0.5939 0.0000
vt 0.2657 0.5105 0.0000
vt 0.3440 0.5949 0.0000
vt 0.3419 0.5113 0.0000
vt 0.0345 0.4288 0.0000
vt 0.1103 0.4305 0.0000
vt 0.1869 0.4269 0.0000
vt 0.2631 0.4272 0.0000
vt 0.3398 0.4276 0.0000
vt 0.4168 0.4211 0.0000
vt 0.8732 0.4065 0.0000
vt 0.9508 0.4031 0.0000
vt 0.7967 0.3978 0.0000
vt 0.7202 0.3899 0.0000
vt 0.6441 0.3850 0.0000
vt 0.8733 0.3691 0.0000
vt 0.9445 0.3717 0.0000
vt 0.9457 0.3964 0.0000
vt 0.8731 0.3973 0.0000
vt 0.7967 0.3610 0.0000
vt 0.7978 0.3886 0.0000
vt 0.7198 0.3528 0.0000
vt 0.7209 0.3807 0.0000
vt 0.6432 0.3478 0.0000
vt 0.6441 0.3757 0.0000
vt 0.5673 0.3524 0.0000
vt 0.5676 0.3804 0.0000
vt 0.1106 0.4212 0.0000
vt 0.0403 0.4225 0.0000
vt 0.0377 0.3981 0.0000
vt 0.1102 0.3930 0.0000
vt 0.1866 0.4177 0.0000
vt 0.1853 0.3900 0.0000
vt 0.2631 0.4180 0.0000
vt 0.2617 0.3903 0.0000
vt 0.3395 0.4183 0.0000
vt 0.3384 0.3905 0.0000
vt 0.1159 0.6304 0.0000
vt 0.0451 0.6284 0.0000
vt 0.0435 0.6038 0.0000
vt 0.1164 0.6022 0.0000
vt 0.1920 0.6293 0.0000
vt 0.1914 0.6017 0.0000
vt 0.2689 0.6309 0.0000
vt 0.2678 0.6032 0.0000
vt 0.3452 0.6321 0.0000
vt 0.3443 0.6042 0.0000
vt 0.4210 0.6261 0.0000
vt 0.4207 0.5981 0.0000
vt 0.8782 0.5788 0.0000
vt 0.9487 0.5784 0.0000
vt 0.9509 0.6029 0.0000
vt 0.8788 0.6070 0.0000
vt 0.8018 0.5729 0.0000
vt 0.8034 0.6005 0.0000
vt 0.7252 0.5659 0.0000
vt 0.7266 0.5937 0.0000
vt 0.6487 0.5616 0.0000
vt 0.6497 0.5895 0.0000
# 143 texture coords

o 1x1_level_001
g 1x1_level_001
usemtl wire_228153184
s 1
f 1/1/1 2/2/2 3/3/3 4/4/3 
f 5/5/3 6/6/3 7/7/4 8/8/5 
f 9/9/3 10/10/3 11/11/4 12/12/5 
f 13/13/3 10/10/3 14/14/2 15/15/6 
s off
f 16/16/7 17/17/8 18/18/9 19/19/10 
f 20/20/11 21/21/9 22/22/8 23/23/12 
s 1
f 24/24/13 25/25/14 26/26/3 27/27/3 
f 28/28/15 24/24/13 27/27/3 29/29/3 
f 30/30/16 28/28/15 29/29/3 31/31/3 
f 32/32/17 30/30/16 31/31/3 33/33/3 
f 34/34/6 32/32/17 33/33/3 35/35/3 
f 2/2/2 34/34/6 35/35/3 3/3/3 
f 36/36/3 37/37/3 38/38/18 39/39/19 
f 40/40/3 36/36/3 39/39/19 41/41/20 
f 42/42/3 40/40/3 41/41/20 43/43/21 
f 44/44/3 42/42/3 43/43/21 45/45/22 
f 4/4/3 44/44/3 45/45/22 1/1/1 
f 46/46/3 47/47/3 48/48/23 49/49/24 
f 50/50/3 46/46/3 49/49/24 51/51/25 
f 52/52/3 50/50/3 51/51/25 53/53/26 
f 54/54/3 52/52/3 53/53/26 55/55/27 
f 56/56/3 54/54/3 55/55/27 57/57/28 
f 6/6/3 56/56/3 57/57/28 7/7/4 
f 58/58/29 59/59/30 60/60/3 61/61/3 
f 62/62/31 58/58/29 61/61/3 63/63/3 
f 64/64/32 62/62/31 63/63/3 65/65/3 
f 66/66/33 64/64/32 65/65/3 67/67/3 
f 8/8/5 66/66/33 67/67/3 5/5/3 
f 68/68/3 69/69/3 70/70/23 71/71/24 
f 72/72/3 68/68/3 71/71/24 73/73/25 
f 74/74/3 72/72/3 73/73/25 75/75/26 
f 76/76/3 74/74/3 75/75/26 77/77/27 
f 13/13/3 76/76/3 77/77/27 78/78/28 
f 10/10/3 13/13/3 78/78/28 11/11/4 
f 79/79/29 80/80/30 81/81/3 82/82/3 
f 83/83/31 79/79/29 82/82/3 84/84/3 
f 85/85/32 83/83/31 84/84/3 86/86/3 
f 87/87/33 85/85/32 86/86/3 88/88/3 
f 12/12/5 87/87/33 88/88/3 9/9/3 
f 82/82/3 81/81/3 89/89/18 90/90/19 
f 84/84/3 82/82/3 90/90/19 91/91/20 
f 86/86/3 84/84/3 91/91/20 92/92/21 
f 88/88/3 86/86/3 92/92/21 93/93/22 
f 9/9/3 88/88/3 93/93/22 94/94/1 
f 10/10/3 9/9/3 94/94/1 14/14/2 
f 95/95/13 96/96/14 69/69/3 68/68/3 
f 97/97/15 95/95/13 68/68/3 72/72/3 
f 98/98/16 97/97/15 72/72/3 74/74/3 
f 99/99/17 98/98/16 74/74/3 76/76/3 
f 15/15/6 99/99/17 76/76/3 13/13/3 
s off
f 100/100/34 101/101/23 102/102/14 103/103/35 
f 104/104/36 100/100/34 103/103/35 105/105/37 
f 106/106/38 104/104/36 105/105/37 107/107/39 
f 108/108/40 106/106/38 107/107/39 109/109/41 
f 110/110/12 108/108/40 109/109/41 111/111/11 
f 17/17/8 110/110/12 111/111/11 18/18/9 
f 112/112/19 113/113/18 114/114/30 115/115/29 
f 116/116/42 112/112/19 115/115/29 117/117/43 
f 118/118/44 116/116/42 117/117/43 119/119/45 
f 120/120/46 118/118/44 119/119/45 121/121/47 
f 19/19/10 120/120/46 121/121/47 16/16/7 
f 122/122/19 123/123/18 124/124/30 125/125/29 
f 126/126/42 122/122/19 125/125/29 127/127/43 
f 128/128/44 126/126/42 127/127/43 129/129/45 
f 130/130/46 128/128/44 129/129/45 131/131/47 
f 132/132/10 130/130/46 131/131/47 133/133/7 
f 21/21/9 132/132/10 133/133/7 22/22/8 
f 134/134/34 135/135/23 136/136/14 137/137/35 
f 138/138/36 134/134/34 137/137/35 139/139/37 
f 140/140/38 138/138/36 139/139/37 141/141/39 
f 142/142/40 140/140/38 141/141/39 143/143/41 
f 23/23/12 142/142/40 143/143/41 20/20/11 
f 59/59/30 58/58/29 115/115/29 114/114/30 
f 58/58/29 62/62/31 117/117/43 115/115/29 
f 62/62/31 64/64/32 119/119/45 117/117/43 
f 64/64/32 66/66/33 121/121/47 119/119/45 
f 66/66/33 8/8/5 16/16/7 121/121/47 
f 8/8/5 7/7/4 17/17/8 16/16/7 
f 7/7/4 57/57/28 110/110/12 17/17/8 
f 57/57/28 55/55/27 108/108/40 110/110/12 
f 55/55/27 53/53/26 106/106/38 108/108/40 
f 53/53/26 51/51/25 104/104/36 106/106/38 
f 51/51/25 49/49/24 100/100/34 104/104/36 
f 49/49/24 48/48/23 101/101/23 100/100/34 
f 48/48/23 96/96/14 102/102/14 101/101/23 
f 96/96/14 95/95/13 103/103/35 102/102/14 
f 95/95/13 97/97/15 105/105/37 103/103/35 
f 97/97/15 98/98/16 107/107/39 105/105/37 
f 98/98/16 99/99/17 109/109/41 107/107/39 
f 99/99/17 15/15/6 111/111/11 109/109/41 
f 15/15/6 14/14/2 18/18/9 111/111/11 
f 14/14/2 94/94/1 19/19/10 18/18/9 
f 94/94/1 93/93/22 120/120/46 19/19/10 
f 93/93/22 92/92/21 118/118/44 120/120/46 
f 92/92/21 91/91/20 116/116/42 118/118/44 
f 91/91/20 90/90/19 112/112/19 116/116/42 
f 90/90/19 89/89/18 113/113/18 112/112/19 
f 89/89/18 59/59/30 114/114/30 113/113/18 
f 25/25/14 24/24/13 137/137/35 136/136/14 
f 24/24/13 28/28/15 139/139/37 137/137/35 
f 28/28/15 30/30/16 141/141/39 139/139/37 
f 30/30/16 32/32/17 143/143/41 141/141/39 
f 32/32/17 34/34/6 20/20/11 143/143/41 
f 34/34/6 2/2/2 21/21/9 20/20/11 
f 2/2/2 1/1/1 132/132/10 21/21/9 
f 1/1/1 45/45/22 130/130/46 132/132/10 
f 45/45/22 43/43/21 128/128/44 130/130/46 
f 43/43/21 41/41/20 126/126/42 128/128/44 
f 41/41/20 39/39/19 122/122/19 126/126/42 
f 39/39/19 38/38/18 123/123/18 122/122/19 
f 38/38/18 80/80/30 124/124/30 123/123/18 
f 80/80/30 79/79/29 125/125/29 124/124/30 
f 79/79/29 83/83/31 127/127/43 125/125/29 
f 83/83/31 85/85/32 129/129/45 127/127/43 
f 85/85/32 87/87/33 131/131/47 129/129/45 
f 87/87/33 12/12/5 133/133/7 131/131/47 
f 12/12/5 11/11/4 22/22/8 133/133/7 
f 11/11/4 78/78/28 23/23/12 22/22/8 
f 78/78/28 77/77/27 142/142/40 23/23/12 
f 77/77/27 75/75/26 140/140/38 142/142/40 
f 75/75/26 73/73/25 138/138/36 140/140/38 
f 73/73/25 71/71/24 134/134/34 138/138/36 
f 71/71/24 70/70/23 135/135/23 134/134/34 
f 70/70/23 25/25/14 136/136/14 135/135/23 
# 124 polygons

