# 3ds Max Wavefront OBJ Exporter v0.99 - (c)2007 guruware
# File Created: 02.05.2023 18:27:40

mtllib 1x2.mtl

#
# object 2x1_level_2
#

v  -50.0000 -0.5000 -7.6923
v  -50.0000 -0.5000 7.6923
v  -10.3184 -0.5000 7.6923
v  -6.5873 -0.5000 -7.6923
v  17.4127 -0.5000 -7.6923
v  13.6816 -0.5000 7.6923
v  50.0000 -0.5000 7.6923
v  50.0000 -0.5000 -7.6923
v  1.6816 -0.5000 7.6923
v  5.4127 -0.5000 -7.6923
v  -3.5520 -0.5000 -7.6923
v  -7.2830 -0.5000 7.6923
v  10.6932 -0.5000 7.6923
v  14.4243 -0.5000 -7.6923
v  13.6816 0.5000 7.6923
v  17.4127 0.5000 -7.6923
v  14.4243 0.5000 -7.6923
v  10.6932 0.5000 7.6923
v  -6.5873 0.5000 -7.6923
v  -10.3184 0.5000 7.6923
v  -7.2830 0.5000 7.6923
v  -3.5520 0.5000 -7.6923
v  -50.0000 -0.5000 84.6154
v  -50.0000 -0.5000 100.0000
v  -12.0000 -0.5000 100.0000
v  -12.0000 -0.5000 84.6154
v  -50.0000 -0.5000 69.2308
v  -14.3513 -0.5000 69.2308
v  -50.0000 -0.5000 53.8462
v  -16.0303 -0.5000 53.8462
v  -50.0000 -0.5000 38.4615
v  -15.6979 -0.5000 38.4615
v  -50.0000 -0.5000 23.0769
v  -13.3441 -0.5000 23.0769
v  -12.0000 -0.5000 -84.6154
v  -12.0000 -0.5000 -100.0000
v  -50.0000 -0.5000 -100.0000
v  -50.0000 -0.5000 -84.6154
v  -8.6053 -0.5000 -69.2308
v  -50.0000 -0.5000 -69.2308
v  -4.8660 -0.5000 -53.8461
v  -50.0000 -0.5000 -53.8461
v  -2.4856 -0.5000 -38.4615
v  -50.0000 -0.5000 -38.4615
v  -3.5093 -0.5000 -23.0769
v  -50.0000 -0.5000 -23.0769
v  12.0000 -0.5000 84.6154
v  12.0000 -0.5000 100.0000
v  50.0000 -0.5000 100.0000
v  50.0000 -0.5000 84.6154
v  9.6487 -0.5000 69.2308
v  50.0000 -0.5000 69.2308
v  7.9697 -0.5000 53.8461
v  50.0000 -0.5000 53.8461
v  8.3021 -0.5000 38.4615
v  50.0000 -0.5000 38.4615
v  10.6559 -0.5000 23.0769
v  50.0000 -0.5000 23.0769
v  50.0000 -0.5000 -84.6154
v  50.0000 -0.5000 -100.0000
v  12.0000 -0.5000 -100.0000
v  12.0000 -0.5000 -84.6154
v  50.0000 -0.5000 -69.2308
v  15.3947 -0.5000 -69.2308
v  50.0000 -0.5000 -53.8462
v  19.1340 -0.5000 -53.8462
v  50.0000 -0.5000 -38.4615
v  21.5144 -0.5000 -38.4615
v  50.0000 -0.5000 -23.0769
v  20.4907 -0.5000 -23.0769
v  0.0000 -0.5000 -84.6154
v  0.0000 -0.5000 -100.0000
v  -8.9646 -0.5000 -100.0000
v  -8.9646 -0.5000 -84.6154
v  3.3947 -0.5000 -69.2308
v  -5.5699 -0.5000 -69.2308
v  7.1340 -0.5000 -53.8462
v  -1.8306 -0.5000 -53.8461
v  9.5144 -0.5000 -38.4615
v  0.5498 -0.5000 -38.4615
v  8.4907 -0.5000 -23.0769
v  -0.4739 -0.5000 -23.0769
v  -8.9646 -0.5000 84.6154
v  -8.9646 -0.5000 100.0000
v  0.0000 -0.5000 100.0000
v  0.0000 -0.5000 84.6154
v  -11.3159 -0.5000 69.2308
v  -2.3513 -0.5000 69.2308
v  -12.9949 -0.5000 53.8462
v  -4.0303 -0.5000 53.8461
v  -12.6625 -0.5000 38.4615
v  -3.6979 -0.5000 38.4615
v  -10.3087 -0.5000 23.0769
v  -1.3441 -0.5000 23.0769
v  9.0117 -0.5000 100.0000
v  9.0117 -0.5000 84.6154
v  6.6604 -0.5000 69.2308
v  4.9814 -0.5000 53.8462
v  5.3137 -0.5000 38.4615
v  7.6675 -0.5000 23.0769
v  9.0117 -0.5000 -84.6154
v  9.0117 -0.5000 -100.0000
v  12.4064 -0.5000 -69.2308
v  16.1457 -0.5000 -53.8461
v  18.5260 -0.5000 -38.4615
v  17.5023 -0.5000 -23.0769
v  12.0000 0.5000 -84.6154
v  12.0000 0.5000 -100.0000
v  9.0117 0.5000 -100.0000
v  9.0117 0.5000 -84.6154
v  15.3947 0.5000 -69.2308
v  12.4064 0.5000 -69.2308
v  19.1340 0.5000 -53.8462
v  16.1457 0.5000 -53.8461
v  21.5144 0.5000 -38.4615
v  18.5260 0.5000 -38.4615
v  20.4907 0.5000 -23.0769
v  17.5023 0.5000 -23.0769
v  9.0117 0.5000 84.6154
v  9.0117 0.5000 100.0000
v  12.0000 0.5000 100.0000
v  12.0000 0.5000 84.6154
v  6.6604 0.5000 69.2308
v  9.6487 0.5000 69.2308
v  4.9814 0.5000 53.8462
v  7.9697 0.5000 53.8461
v  5.3137 0.5000 38.4615
v  8.3021 0.5000 38.4615
v  7.6675 0.5000 23.0769
v  10.6559 0.5000 23.0769
v  -12.0000 0.5000 84.6154
v  -12.0000 0.5000 100.0000
v  -8.9646 0.5000 100.0000
v  -8.9646 0.5000 84.6154
v  -14.3513 0.5000 69.2308
v  -11.3159 0.5000 69.2308
v  -16.0303 0.5000 53.8462
v  -12.9949 0.5000 53.8462
v  -15.6979 0.5000 38.4615
v  -12.6625 0.5000 38.4615
v  -13.3441 0.5000 23.0769
v  -10.3087 0.5000 23.0769
v  -8.9646 0.5000 -84.6154
v  -8.9646 0.5000 -100.0000
v  -12.0000 0.5000 -100.0000
v  -12.0000 0.5000 -84.6154
v  -5.5699 0.5000 -69.2308
v  -8.6053 0.5000 -69.2308
v  -1.8306 0.5000 -53.8461
v  -4.8660 0.5000 -53.8461
v  0.5498 0.5000 -38.4615
v  -2.4856 0.5000 -38.4615
v  -0.4739 0.5000 -23.0769
v  -3.5093 0.5000 -23.0769
# 154 vertices

vn 0.0000 1.0000 -0.0000
vn -0.6858 0.7121 -0.1505
vn -0.6948 0.7026 -0.1537
vn 0.6859 0.7117 0.1517
vn 0.6954 0.7023 0.1526
vn 0.6858 0.7121 0.1505
vn 0.6948 0.7026 0.1537
vn -0.6859 0.7117 -0.1517
vn -0.6954 0.7023 -0.1526
vn -0.5774 0.5774 0.5774
vn -0.7213 0.6904 0.0548
vn -0.6962 0.7120 0.0912
vn -0.6911 0.7221 0.0301
vn -0.6892 0.7220 -0.0599
vn -0.6918 0.7119 -0.1209
vn -0.6769 0.7323 0.0738
vn -0.5774 0.5774 -0.5774
vn -0.6865 0.7095 0.1591
vn -0.7027 0.6977 0.1395
vn -0.7295 0.6832 0.0318
vn -0.7150 0.6927 -0.0949
vn 0.6872 0.7246 -0.0522
vn 0.5774 0.5774 0.5774
vn 0.7058 0.7023 -0.0924
vn 0.7205 0.6928 -0.0314
vn 0.7185 0.6928 0.0625
vn 0.7011 0.7024 0.1225
vn 0.5774 0.5774 -0.5774
vn 0.7256 0.6835 -0.0791
vn 0.6911 0.7048 -0.1602
vn 0.6839 0.7168 -0.1358
vn 0.6799 0.7327 -0.0296
vn 0.6857 0.7221 0.0910
vn 0.6912 0.7047 -0.1602
vn 0.6769 0.7324 -0.0738
vn -0.7256 0.6835 0.0791
vn 0.6865 0.7095 -0.1591
vn -0.6912 0.7047 0.1602
vn 0.7027 0.6977 -0.1395
vn -0.6839 0.7168 0.1358
vn 0.7295 0.6832 -0.0318
vn -0.6799 0.7327 0.0296
vn 0.7150 0.6927 0.0949
vn -0.6857 0.7221 -0.0910
vn -0.6872 0.7246 0.0522
vn 0.7213 0.6904 -0.0548
vn -0.7058 0.7023 0.0924
vn 0.6962 0.7120 -0.0912
vn -0.7205 0.6928 0.0314
vn 0.6911 0.7221 -0.0301
vn -0.7185 0.6928 -0.0625
vn 0.6892 0.7220 0.0599
vn -0.7011 0.7024 -0.1225
vn 0.6918 0.7119 0.1209
vn 0.6769 0.7323 -0.0738
# 55 vertex normals

vt 0.0216 0.5461 0.0000
vt 0.0200 0.4723 0.0000
vt 0.2094 0.4669 0.0000
vt 0.2285 0.5386 0.0000
vt 0.3621 0.5319 0.0000
vt 0.3431 0.4599 0.0000
vt 0.5162 0.4546 0.0000
vt 0.5174 0.5282 0.0000
vt 0.2763 0.4634 0.0000
vt 0.2920 0.5428 0.0000
vt 0.2524 0.5361 0.0000
vt 0.2333 0.4644 0.0000
vt 0.3195 0.4624 0.0000
vt 0.3352 0.5419 0.0000
vt 0.3384 0.4610 0.0000
vt 0.3575 0.5330 0.0000
vt 0.3432 0.5332 0.0000
vt 0.3241 0.4613 0.0000
vt 0.2332 0.5375 0.0000
vt 0.2141 0.4658 0.0000
vt 0.2286 0.4655 0.0000
vt 0.2477 0.5372 0.0000
vt 0.0111 0.1056 0.0000
vt 0.0110 0.0315 0.0000
vt 0.1906 0.0323 0.0000
vt 0.1880 0.1042 0.0000
vt 0.0124 0.1792 0.0000
vt 0.1805 0.1771 0.0000
vt 0.0146 0.2525 0.0000
vt 0.1760 0.2500 0.0000
vt 0.0167 0.3256 0.0000
vt 0.1802 0.3225 0.0000
vt 0.0184 0.3989 0.0000
vt 0.1932 0.3948 0.0000
vt 0.2221 0.8997 0.0000
vt 0.2275 0.9715 0.0000
vt 0.0528 0.9890 0.0000
vt 0.0443 0.9159 0.0000
vt 0.2328 0.8266 0.0000
vt 0.0380 0.8425 0.0000
vt 0.2453 0.7537 0.0000
vt 0.0321 0.7688 0.0000
vt 0.2519 0.6814 0.0000
vt 0.0273 0.6947 0.0000
vt 0.2447 0.6100 0.0000
vt 0.0239 0.6203 0.0000
vt 0.3183 0.1002 0.0000
vt 0.3122 0.0284 0.0000
vt 0.4873 0.0110 0.0000
vt 0.4960 0.0841 0.0000
vt 0.3126 0.1729 0.0000
vt 0.5023 0.1578 0.0000
vt 0.3092 0.2451 0.0000
vt 0.5077 0.2319 0.0000
vt 0.3139 0.3168 0.0000
vt 0.5117 0.3063 0.0000
vt 0.3269 0.3882 0.0000
vt 0.5143 0.3806 0.0000
vt 0.5292 0.8943 0.0000
vt 0.5297 0.9686 0.0000
vt 0.3493 0.9686 0.0000
vt 0.3524 0.8968 0.0000
vt 0.5272 0.8203 0.0000
vt 0.3646 0.8237 0.0000
vt 0.5240 0.7468 0.0000
vt 0.3780 0.7504 0.0000
vt 0.5209 0.6741 0.0000
vt 0.3852 0.6771 0.0000
vt 0.5188 0.6013 0.0000
vt 0.3782 0.6043 0.0000
vt 0.2870 0.8970 0.0000
vt 0.2886 0.9702 0.0000
vt 0.2471 0.9706 0.0000
vt 0.2459 0.8992 0.0000
vt 0.2989 0.8246 0.0000
vt 0.2565 0.8268 0.0000
vt 0.3116 0.7518 0.0000
vt 0.2691 0.7540 0.0000
vt 0.3186 0.6792 0.0000
vt 0.2759 0.6808 0.0000
vt 0.3081 0.6147 0.0000
vt 0.2686 0.6082 0.0000
vt 0.2117 0.1048 0.0000
vt 0.2104 0.0323 0.0000
vt 0.2511 0.0303 0.0000
vt 0.2534 0.1035 0.0000
vt 0.2041 0.1773 0.0000
vt 0.2464 0.1756 0.0000
vt 0.2000 0.2494 0.0000
vt 0.2426 0.2528 0.0000
vt 0.2042 0.3211 0.0000
vt 0.2470 0.3248 0.0000
vt 0.2171 0.3927 0.0000
vt 0.2601 0.3916 0.0000
vt 0.2928 0.0295 0.0000
vt 0.2948 0.1011 0.0000
vt 0.2891 0.1735 0.0000
vt 0.2855 0.2510 0.0000
vt 0.2901 0.3234 0.0000
vt 0.3032 0.3904 0.0000
vt 0.3290 0.8958 0.0000
vt 0.3297 0.9684 0.0000
vt 0.3413 0.8227 0.0000
vt 0.3544 0.7497 0.0000
vt 0.3614 0.6775 0.0000
vt 0.3512 0.6136 0.0000
vt 0.3477 0.8961 0.0000
vt 0.3461 0.9656 0.0000
vt 0.3333 0.9659 0.0000
vt 0.3336 0.8962 0.0000
vt 0.3599 0.8229 0.0000
vt 0.3459 0.8236 0.0000
vt 0.3733 0.7497 0.0000
vt 0.3591 0.7504 0.0000
vt 0.3804 0.6770 0.0000
vt 0.3662 0.6775 0.0000
vt 0.3735 0.6050 0.0000
vt 0.3592 0.6053 0.0000
vt 0.2995 0.1012 0.0000
vt 0.2962 0.0322 0.0000
vt 0.3088 0.0310 0.0000
vt 0.3136 0.1004 0.0000
vt 0.2938 0.1737 0.0000
vt 0.3079 0.1726 0.0000
vt 0.2902 0.2459 0.0000
vt 0.3044 0.2451 0.0000
vt 0.2949 0.3178 0.0000
vt 0.3091 0.3173 0.0000
vt 0.3079 0.3895 0.0000
vt 0.3222 0.3891 0.0000
vt 0.1927 0.1047 0.0000
vt 0.1939 0.0352 0.0000
vt 0.2068 0.0348 0.0000
vt 0.2071 0.1046 0.0000
vt 0.1852 0.1775 0.0000
vt 0.1995 0.1768 0.0000
vt 0.1807 0.2500 0.0000
vt 0.1952 0.2494 0.0000
vt 0.1849 0.3220 0.0000
vt 0.1995 0.3216 0.0000
vt 0.1979 0.3939 0.0000
vt 0.2124 0.3936 0.0000
vt 0.2412 0.8988 0.0000
vt 0.2437 0.9678 0.0000
vt 0.2309 0.9689 0.0000
vt 0.2268 0.8997 0.0000
vt 0.2518 0.8262 0.0000
vt 0.2374 0.8273 0.0000
vt 0.2644 0.7534 0.0000
vt 0.2500 0.7543 0.0000
vt 0.2711 0.6808 0.0000
vt 0.2567 0.6814 0.0000
vt 0.2639 0.6089 0.0000
vt 0.2494 0.6092 0.0000
# 154 texture coords

o 2x1_level_2
g 2x1_level_2
usemtl wire_228153184
s 1
f 1/1/1 2/2/1 3/3/2 4/4/3 
f 5/5/4 6/6/5 7/7/1 8/8/1 
f 9/9/1 10/10/1 11/11/4 12/12/5 
f 10/10/1 9/9/1 13/13/2 14/14/3 
s off
f 15/15/6 16/16/7 17/17/8 18/18/9 
f 19/19/8 20/20/9 21/21/6 22/22/7 
s 1
f 23/23/1 24/24/1 25/25/10 26/26/11 
f 27/27/1 23/23/1 26/26/11 28/28/12 
f 29/29/1 27/27/1 28/28/12 30/30/13 
f 31/31/1 29/29/1 30/30/13 32/32/14 
f 33/33/1 31/31/1 32/32/14 34/34/15 
f 2/2/1 33/33/1 34/34/15 3/3/2 
f 35/35/16 36/36/17 37/37/1 38/38/1 
f 39/39/18 35/35/16 38/38/1 40/40/1 
f 41/41/19 39/39/18 40/40/1 42/42/1 
f 43/43/20 41/41/19 42/42/1 44/44/1 
f 45/45/21 43/43/20 44/44/1 46/46/1 
f 4/4/3 45/45/21 46/46/1 1/1/1 
f 47/47/22 48/48/23 49/49/1 50/50/1 
f 51/51/24 47/47/22 50/50/1 52/52/1 
f 53/53/25 51/51/24 52/52/1 54/54/1 
f 55/55/26 53/53/25 54/54/1 56/56/1 
f 57/57/27 55/55/26 56/56/1 58/58/1 
f 6/6/5 57/57/27 58/58/1 7/7/1 
f 59/59/1 60/60/1 61/61/28 62/62/29 
f 63/63/1 59/59/1 62/62/29 64/64/30 
f 65/65/1 63/63/1 64/64/30 66/66/31 
f 67/67/1 65/65/1 66/66/31 68/68/32 
f 69/69/1 67/67/1 68/68/32 70/70/33 
f 8/8/1 69/69/1 70/70/33 5/5/4 
f 71/71/1 72/72/1 73/73/28 74/74/29 
f 75/75/1 71/71/1 74/74/29 76/76/34 
f 77/77/1 75/75/1 76/76/34 78/78/31 
f 79/79/1 77/77/1 78/78/31 80/80/32 
f 81/81/1 79/79/1 80/80/32 82/82/33 
f 10/10/1 81/81/1 82/82/33 11/11/4 
f 83/83/22 84/84/23 85/85/1 86/86/1 
f 87/87/24 83/83/22 86/86/1 88/88/1 
f 89/89/25 87/87/24 88/88/1 90/90/1 
f 91/91/26 89/89/25 90/90/1 92/92/1 
f 93/93/27 91/91/26 92/92/1 94/94/1 
f 12/12/5 93/93/27 94/94/1 9/9/1 
f 86/86/1 85/85/1 95/95/10 96/96/11 
f 88/88/1 86/86/1 96/96/11 97/97/12 
f 90/90/1 88/88/1 97/97/12 98/98/13 
f 92/92/1 90/90/1 98/98/13 99/99/14 
f 94/94/1 92/92/1 99/99/14 100/100/15 
f 9/9/1 94/94/1 100/100/15 13/13/2 
f 101/101/16 102/102/17 72/72/1 71/71/1 
f 103/103/18 101/101/16 71/71/1 75/75/1 
f 104/104/19 103/103/18 75/75/1 77/77/1 
f 105/105/20 104/104/19 77/77/1 79/79/1 
f 106/106/21 105/105/20 79/79/1 81/81/1 
f 14/14/3 106/106/21 81/81/1 10/10/1 
s off
f 107/107/35 108/108/28 109/109/17 110/110/36 
f 111/111/37 107/107/35 110/110/36 112/112/38 
f 113/113/39 111/111/37 112/112/38 114/114/40 
f 115/115/41 113/113/39 114/114/40 116/116/42 
f 117/117/43 115/115/41 116/116/42 118/118/44 
f 16/16/7 117/117/43 118/118/44 17/17/8 
f 119/119/45 120/120/10 121/121/23 122/122/46 
f 123/123/47 119/119/45 122/122/46 124/124/48 
f 125/125/49 123/123/47 124/124/48 126/126/50 
f 127/127/51 125/125/49 126/126/50 128/128/52 
f 129/129/53 127/127/51 128/128/52 130/130/54 
f 18/18/9 129/129/53 130/130/54 15/15/6 
f 131/131/45 132/132/10 133/133/23 134/134/46 
f 135/135/47 131/131/45 134/134/46 136/136/48 
f 137/137/49 135/135/47 136/136/48 138/138/50 
f 139/139/51 137/137/49 138/138/50 140/140/52 
f 141/141/53 139/139/51 140/140/52 142/142/54 
f 20/20/9 141/141/53 142/142/54 21/21/6 
f 143/143/55 144/144/28 145/145/17 146/146/36 
f 147/147/37 143/143/55 146/146/36 148/148/38 
f 149/149/39 147/147/37 148/148/38 150/150/40 
f 151/151/41 149/149/39 150/150/40 152/152/42 
f 153/153/43 151/151/41 152/152/42 154/154/44 
f 22/22/7 153/153/43 154/154/44 19/19/8 
f 48/48/23 47/47/22 122/122/46 121/121/23 
f 47/47/22 51/51/24 124/124/48 122/122/46 
f 51/51/24 53/53/25 126/126/50 124/124/48 
f 53/53/25 55/55/26 128/128/52 126/126/50 
f 55/55/26 57/57/27 130/130/54 128/128/52 
f 57/57/27 6/6/5 15/15/6 130/130/54 
f 6/6/5 5/5/4 16/16/7 15/15/6 
f 5/5/4 70/70/33 117/117/43 16/16/7 
f 70/70/33 68/68/32 115/115/41 117/117/43 
f 68/68/32 66/66/31 113/113/39 115/115/41 
f 66/66/31 64/64/30 111/111/37 113/113/39 
f 64/64/30 62/62/29 107/107/35 111/111/37 
f 62/62/29 61/61/28 108/108/28 107/107/35 
f 61/61/28 102/102/17 109/109/17 108/108/28 
f 102/102/17 101/101/16 110/110/36 109/109/17 
f 101/101/16 103/103/18 112/112/38 110/110/36 
f 103/103/18 104/104/19 114/114/40 112/112/38 
f 104/104/19 105/105/20 116/116/42 114/114/40 
f 105/105/20 106/106/21 118/118/44 116/116/42 
f 106/106/21 14/14/3 17/17/8 118/118/44 
f 14/14/3 13/13/2 18/18/9 17/17/8 
f 13/13/2 100/100/15 129/129/53 18/18/9 
f 100/100/15 99/99/14 127/127/51 129/129/53 
f 99/99/14 98/98/13 125/125/49 127/127/51 
f 98/98/13 97/97/12 123/123/47 125/125/49 
f 97/97/12 96/96/11 119/119/45 123/123/47 
f 96/96/11 95/95/10 120/120/10 119/119/45 
f 95/95/10 48/48/23 121/121/23 120/120/10 
f 36/36/17 35/35/16 146/146/36 145/145/17 
f 35/35/16 39/39/18 148/148/38 146/146/36 
f 39/39/18 41/41/19 150/150/40 148/148/38 
f 41/41/19 43/43/20 152/152/42 150/150/40 
f 43/43/20 45/45/21 154/154/44 152/152/42 
f 45/45/21 4/4/3 19/19/8 154/154/44 
f 4/4/3 3/3/2 20/20/9 19/19/8 
f 3/3/2 34/34/15 141/141/53 20/20/9 
f 34/34/15 32/32/14 139/139/51 141/141/53 
f 32/32/14 30/30/13 137/137/49 139/139/51 
f 30/30/13 28/28/12 135/135/47 137/137/49 
f 28/28/12 26/26/11 131/131/45 135/135/47 
f 26/26/11 25/25/10 132/132/10 131/131/45 
f 25/25/10 84/84/23 133/133/23 132/132/10 
f 84/84/23 83/83/22 134/134/46 133/133/23 
f 83/83/22 87/87/24 136/136/48 134/134/46 
f 87/87/24 89/89/25 138/138/50 136/136/48 
f 89/89/25 91/91/26 140/140/52 138/138/50 
f 91/91/26 93/93/27 142/142/54 140/140/52 
f 93/93/27 12/12/5 21/21/6 142/142/54 
f 12/12/5 11/11/4 22/22/7 21/21/6 
f 11/11/4 82/82/33 153/153/43 22/22/7 
f 82/82/33 80/80/32 151/151/41 153/153/43 
f 80/80/32 78/78/31 149/149/39 151/151/41 
f 78/78/31 76/76/34 147/147/37 149/149/39 
f 76/76/34 74/74/29 143/143/55 147/147/37 
f 74/74/29 73/73/28 144/144/28 143/143/55 
f 73/73/28 36/36/17 145/145/17 144/144/28 
# 134 polygons

