# 3ds Max Wavefront OBJ Exporter v0.99 - (c)2007 guruware
# File Created: 02.05.2023 20:51:15

mtllib 2x2 grass pitch.mtl

#
# object 2x2_football2
#

v  -100.0000 -0.5000 -100.0000
v  -100.0000 -0.5000 -80.9948
v  -84.8014 -0.5000 -83.9948
v  -81.8014 -0.5000 -100.0000
v  100.0000 -0.5000 -100.0000
v  81.8014 -0.5000 -100.0000
v  84.8014 -0.5000 -83.9948
v  100.0000 -0.5000 -80.9948
v  -100.0000 -0.5000 80.9948
v  -84.8014 -0.5000 83.9948
v  84.8014 -0.5000 83.9948
v  100.0000 -0.5000 80.9948
v  -81.8014 0.5000 -80.9948
v  81.8014 0.5000 -80.9948
v  84.8014 0.5000 -83.9948
v  -84.8014 0.5000 -83.9948
v  -81.8014 -0.5000 -80.9948
v  81.8014 -0.5000 -80.9948
v  -100.0000 -0.5000 100.0000
v  -81.8014 -0.5000 100.0000
v  100.0000 -0.5000 100.0000
v  81.8014 -0.5000 100.0000
v  81.8014 0.5000 80.9948
v  84.8014 0.5000 83.9948
v  -81.8014 0.5000 8.9985
v  -81.8014 0.5000 -8.9985
v  -81.8014 0.5000 -12.0000
v  -84.8014 0.5000 83.9948
v  -81.8014 0.5000 80.9948
v  -81.8014 0.5000 12.0000
v  81.8014 -0.5000 80.9948
v  -81.8014 -0.5000 80.9948
# 32 vertices

vn 0.0000 1.0000 -0.0000
vn -0.3015 0.9045 -0.3015
vn 0.3015 0.9045 -0.3015
vn -0.3015 0.9045 0.3015
vn 0.3015 0.9045 0.3015
vn 0.5774 0.5774 -0.5774
vn -0.5774 0.5774 -0.5774
vn 0.5774 0.5774 0.5774
vn -0.5774 0.5774 0.5774
vn 0.7071 0.7071 -0.0000
# 10 vertex normals

vt 0.9890 0.9134 0.0000
vt 0.9046 0.9204 0.0000
vt 0.9130 0.8520 0.0000
vt 0.9827 0.8325 0.0000
vt 0.9094 0.0110 0.0000
vt 0.9176 0.0922 0.0000
vt 0.8454 0.0848 0.0000
vt 0.8253 0.0189 0.0000
vt 0.1840 0.9761 0.0000
vt 0.1652 0.9099 0.0000
vt 0.0891 0.1574 0.0000
vt 0.0958 0.0888 0.0000
vt 0.8958 0.8362 0.0000
vt 0.8306 0.1029 0.0000
vt 0.8427 0.0881 0.0000
vt 0.9098 0.8493 0.0000
vt 0.8922 0.8340 0.0000
vt 0.8280 0.1062 0.0000
vt 0.1007 0.9847 0.0000
vt 0.0933 0.9045 0.0000
vt 0.0110 0.0986 0.0000
vt 0.0197 0.1791 0.0000
vt 0.1073 0.1719 0.0000
vt 0.0924 0.1600 0.0000
vt 0.4976 0.8683 0.0000
vt 0.5785 0.8626 0.0000
vt 0.5919 0.8616 0.0000
vt 0.1679 0.9067 0.0000
vt 0.1799 0.8921 0.0000
vt 0.4842 0.8693 0.0000
vt 0.1106 0.1745 0.0000
vt 0.1833 0.8892 0.0000
# 32 texture coords

o 2x2_football2
g 2x2_football2
usemtl wire_228153184
s 1
f 1/1/1 2/2/1 3/3/2 4/4/1 
f 5/5/1 6/6/1 7/7/3 8/8/1 
s 3
f 2/2/1 9/9/1 10/10/4 3/3/2 
f 7/7/3 6/6/1 4/4/1 3/3/2 
f 11/11/5 12/12/1 8/8/1 7/7/3 
s 4
f 13/13/5 14/14/4 15/15/6 16/16/7 
s 8
f 3/3/2 16/16/7 15/15/6 7/7/3 
s 3
f 17/17/8 18/18/9 14/14/4 13/13/5 
s 1
f 19/19/1 20/20/1 10/10/4 9/9/1 
f 21/21/1 12/12/1 11/11/5 22/22/1 
s 3
f 10/10/4 20/20/1 22/22/1 11/11/5 
s 4
f 23/23/2 24/24/8 15/15/6 14/14/4 
f 25/25/10 26/26/10 27/27/10 13/13/5 16/16/7 28/28/9 29/29/3 30/30/10 
f 29/29/3 28/28/9 24/24/8 23/23/2 
s 8
f 7/7/3 15/15/6 24/24/8 11/11/5 
s 3
f 31/31/7 23/23/2 14/14/4 18/18/9 
s 8
f 11/11/5 24/24/8 28/28/9 10/10/4 
f 10/10/4 28/28/9 16/16/7 3/3/2 
s 3
f 17/17/8 13/13/5 27/27/10 26/26/10 25/25/10 30/30/10 29/29/3 32/32/6 
f 32/32/6 29/29/3 23/23/2 31/31/7 
s 4
f 32/32/6 31/31/7 18/18/9 17/17/8 
# 21 polygons

