# 3ds Max Wavefront OBJ Exporter v0.99 - (c)2007 guruware
# File Created: 02.05.2023 18:29:45

mtllib T-junction.mtl

#
# object T_junction_level_2
#

v  -138.2500 -0.5000 -0.0000
v  -50.0000 -0.5000 -0.0000
v  -50.0000 -0.5000 -38.0000
v  -138.2500 -0.5000 -38.0000
v  -12.0000 -0.5000 -0.0000
v  -12.0000 -0.5000 -38.0000
v  138.2500 -0.5000 -0.0000
v  138.2500 -0.5000 -38.0000
v  50.0000 -0.5000 -38.0000
v  50.0000 -0.5000 -0.0000
v  12.0000 -0.5000 11.7500
v  12.0000 -0.5000 88.2500
v  50.0000 -0.5000 88.2500
v  50.0000 -0.5000 11.7500
v  -138.2500 -0.5000 -100.0000
v  -138.2500 -0.5000 -62.0000
v  -50.0000 -0.5000 -62.0000
v  -50.0000 -0.5000 -100.0000
v  50.0000 -0.5000 -62.0000
v  50.0000 -0.5000 -100.0000
v  12.0000 -0.5000 -100.0000
v  12.0000 -0.5000 -62.0000
v  138.2500 -0.5000 -100.0000
v  138.2500 -0.5000 -62.0000
v  12.0000 -0.5000 -0.0000
v  12.0000 -0.5000 -38.0000
v  -50.0000 -0.5000 11.7500
v  -50.0000 -0.5000 88.2500
v  -12.0000 -0.5000 88.2500
v  -12.0000 -0.5000 11.7500
v  -12.0000 -0.5000 -100.0000
v  -12.0000 -0.5000 -62.0000
v  0.0000 -0.5000 -38.0000
v  0.0000 -0.5000 -50.0000
v  -12.0000 -0.5000 -50.0000
v  0.0000 -0.5000 -62.0000
v  12.0000 -0.5000 -50.0000
v  -50.0000 -0.5000 -50.0000
v  -138.2500 -0.5000 -50.0000
v  0.0000 -0.5000 -0.0000
v  138.2500 -0.5000 -50.0000
v  50.0000 -0.5000 -50.0000
v  0.0000 -0.5000 11.7500
v  0.0000 -0.5000 88.2500
v  0.0000 -0.5000 -100.0000
v  150.0000 -0.5000 -0.0000
v  150.0000 -0.5000 -38.0000
v  150.0000 -0.5000 -62.0000
v  150.0000 -0.5000 -100.0000
v  141.2500 -0.5000 -41.0000
v  150.0000 -0.5000 -40.9922
v  150.0000 -0.5000 -50.0000
v  141.2500 -0.5000 -50.0000
v  150.0000 -0.5000 -59.0032
v  141.2500 -0.5000 -59.0000
v  -150.0000 -0.5000 -38.0000
v  -150.0000 -0.5000 -0.0000
v  -150.0000 -0.5000 -100.0000
v  -150.0000 -0.5000 -62.0000
v  -141.2500 -0.5000 -50.0000
v  -150.0000 -0.5000 -50.0000
v  -150.0000 -0.5000 -40.9965
v  -141.2500 -0.5000 -41.0000
v  -141.2500 -0.5000 -59.0000
v  -150.0000 -0.5000 -59.0029
v  12.0000 -0.5000 100.0000
v  50.0000 -0.5000 100.0000
v  -50.0000 -0.5000 100.0000
v  -12.0000 -0.5000 100.0000
v  -9.0000 -0.5000 91.2500
v  -8.9840 -0.5000 100.0000
v  0.0000 -0.5000 100.0000
v  0.0000 -0.5000 91.2500
v  150.0000 0.5000 -59.0032
v  150.0000 0.5000 -62.0000
v  138.2500 0.5000 -62.0000
v  141.2500 0.5000 -59.0000
v  138.2500 0.5000 -50.0000
v  141.2500 0.5000 -50.0000
v  138.2500 0.5000 -38.0000
v  141.2500 0.5000 -41.0000
v  -150.0000 0.5000 -40.9965
v  -150.0000 0.5000 -38.0000
v  -138.2500 0.5000 -38.0000
v  -141.2500 0.5000 -41.0000
v  -138.2500 0.5000 -50.0000
v  -141.2500 0.5000 -50.0000
v  -138.2500 0.5000 -62.0000
v  -141.2500 0.5000 -59.0000
v  -12.0000 0.5000 88.2500
v  -12.0000 0.5000 100.0000
v  -8.9840 0.5000 100.0000
v  -9.0000 0.5000 91.2500
v  8.9915 0.5000 100.0000
v  12.0000 0.5000 100.0000
v  12.0000 0.5000 88.2500
v  9.0000 0.5000 91.2500
v  0.0000 0.5000 88.2500
v  0.0000 0.5000 91.2500
v  9.0000 -0.5000 91.2500
v  8.9915 -0.5000 100.0000
v  150.0000 0.5000 -38.0000
v  150.0000 0.5000 -40.9922
v  -150.0000 0.5000 -62.0000
v  -150.0000 0.5000 -59.0029
# 105 vertices

vn 0.0000 1.0000 -0.0000
vn 0.3015 0.9045 0.3015
vn -0.3015 0.9045 0.3015
vn 0.3015 0.9045 -0.3015
vn -0.3015 0.9045 -0.3015
vn 0.7071 0.7071 -0.0000
vn -0.7071 0.7071 -0.0000
vn 0.0000 0.7071 -0.7071
vn 0.5774 0.5774 0.5774
vn 0.5774 0.5774 -0.5774
vn 0.5776 0.5774 -0.5770
vn 0.5778 0.5770 -0.5772
vn 0.5775 0.5772 0.5773
vn 0.5774 0.5774 0.5772
vn -0.5774 0.5774 0.5774
vn -0.5774 0.5774 -0.5774
vn -0.5775 0.5772 -0.5773
vn -0.5775 0.5774 -0.5772
vn -0.5774 0.5774 0.5772
vn -0.5775 0.5772 0.5773
vn 0.5779 0.5773 0.5769
vn 0.5775 0.5782 0.5764
vn 0.0000 0.7071 0.7071
vn 0.3016 0.9045 0.3015
vn 0.3018 0.9044 -0.3015
vn -0.3016 0.9045 -0.3015
vn -0.3016 0.9045 0.3015
vn 0.3015 0.9047 0.3009
vn -0.5777 0.5773 0.5771
vn -0.3015 0.9046 0.3012
vn -0.5774 0.5778 0.5769
# 31 vertex normals

vt 0.0680 0.3379 0.0000
vt 0.3419 0.3412 0.0000
vt 0.3410 0.4595 0.0000
vt 0.0562 0.4610 0.0000
vt 0.4624 0.3391 0.0000
vt 0.4618 0.4593 0.0000
vt 0.9310 0.3384 0.0000
vt 0.9423 0.4588 0.0000
vt 0.6585 0.4606 0.0000
vt 0.6568 0.3401 0.0000
vt 0.5378 0.3013 0.0000
vt 0.5381 0.0547 0.0000
vt 0.6614 0.0672 0.0000
vt 0.6560 0.3030 0.0000
vt 0.0695 0.6582 0.0000
vt 0.0581 0.5380 0.0000
vt 0.3414 0.5348 0.0000
vt 0.3429 0.6557 0.0000
vt 0.6590 0.5355 0.0000
vt 0.6575 0.6535 0.0000
vt 0.5382 0.6551 0.0000
vt 0.5379 0.5350 0.0000
vt 0.9301 0.6592 0.0000
vt 0.9434 0.5360 0.0000
vt 0.5377 0.3388 0.0000
vt 0.5379 0.4595 0.0000
vt 0.3418 0.3042 0.0000
vt 0.3398 0.0657 0.0000
vt 0.4605 0.0556 0.0000
vt 0.4627 0.3017 0.0000
vt 0.4626 0.6555 0.0000
vt 0.4618 0.5350 0.0000
vt 0.4999 0.4593 0.0000
vt 0.4998 0.4972 0.0000
vt 0.4617 0.4972 0.0000
vt 0.4998 0.5350 0.0000
vt 0.5379 0.4973 0.0000
vt 0.3411 0.4971 0.0000
vt 0.0591 0.4994 0.0000
vt 0.5001 0.3389 0.0000
vt 0.9409 0.4976 0.0000
vt 0.6589 0.4979 0.0000
vt 0.5001 0.3013 0.0000
vt 0.4996 0.0572 0.0000
vt 0.5004 0.6553 0.0000
vt 0.9664 0.3330 0.0000
vt 0.9786 0.4506 0.0000
vt 0.9796 0.5438 0.0000
vt 0.9664 0.6649 0.0000
vt 0.9578 0.4712 0.0000
vt 0.9825 0.4629 0.0000
vt 0.9890 0.4963 0.0000
vt 0.9578 0.4972 0.0000
vt 0.9838 0.5305 0.0000
vt 0.9584 0.5235 0.0000
vt 0.0199 0.4537 0.0000
vt 0.0316 0.3327 0.0000
vt 0.0341 0.6636 0.0000
vt 0.0218 0.5464 0.0000
vt 0.0422 0.4999 0.0000
vt 0.0110 0.5011 0.0000
vt 0.0158 0.4670 0.0000
vt 0.0413 0.4738 0.0000
vt 0.0425 0.5257 0.0000
vt 0.0178 0.5343 0.0000
vt 0.5456 0.0185 0.0000
vt 0.6667 0.0308 0.0000
vt 0.3351 0.0299 0.0000
vt 0.4534 0.0182 0.0000
vt 0.4726 0.0410 0.0000
vt 0.4671 0.0144 0.0000
vt 0.4985 0.0110 0.0000
vt 0.4995 0.0403 0.0000
vt 0.9812 0.5321 0.0000
vt 0.9787 0.5408 0.0000
vt 0.9458 0.5340 0.0000
vt 0.9558 0.5252 0.0000
vt 0.9442 0.4975 0.0000
vt 0.9544 0.4973 0.0000
vt 0.9447 0.4610 0.0000
vt 0.9551 0.4696 0.0000
vt 0.0184 0.4654 0.0000
vt 0.0209 0.4567 0.0000
vt 0.0538 0.4631 0.0000
vt 0.0439 0.4720 0.0000
vt 0.0557 0.4995 0.0000
vt 0.0456 0.4998 0.0000
vt 0.0557 0.5358 0.0000
vt 0.0452 0.5273 0.0000
vt 0.4627 0.0534 0.0000
vt 0.4562 0.0194 0.0000
vt 0.4653 0.0169 0.0000
vt 0.4709 0.0433 0.0000
vt 0.5339 0.0171 0.0000
vt 0.5425 0.0195 0.0000
vt 0.5361 0.0523 0.0000
vt 0.5273 0.0424 0.0000
vt 0.4995 0.0538 0.0000
vt 0.4995 0.0437 0.0000
vt 0.5256 0.0398 0.0000
vt 0.5323 0.0145 0.0000
vt 0.9774 0.4535 0.0000
vt 0.9802 0.4613 0.0000
vt 0.0230 0.5435 0.0000
vt 0.0201 0.5358 0.0000
# 105 texture coords

o T_junction_level_2
g T_junction_level_2
usemtl wire_228153184
s 1
f 1/1/1 2/2/1 3/3/1 4/4/2 
f 2/2/1 5/5/1 6/6/1 3/3/1 
f 7/7/1 8/8/3 9/9/1 10/10/1 
f 11/11/1 12/12/4 13/13/1 14/14/1 
f 15/15/1 16/16/4 17/17/1 18/18/1 
f 19/19/1 20/20/1 21/21/1 22/22/1 
f 23/23/1 20/20/1 19/19/1 24/24/5 
f 25/25/1 10/10/1 9/9/1 26/26/1 
f 27/27/1 28/28/1 29/29/5 30/30/1 
f 31/31/1 18/18/1 17/17/1 32/32/1 
f 6/6/1 33/33/1 34/34/1 35/35/1 
f 22/22/1 36/36/1 34/34/1 37/37/1 
f 26/26/1 37/37/1 34/34/1 33/33/1 
f 32/32/1 35/35/1 34/34/1 36/36/1 
f 4/4/2 3/3/1 38/38/1 39/39/6 
f 6/6/1 5/5/1 40/40/1 33/33/1 
f 3/3/1 6/6/1 35/35/1 38/38/1 
f 8/8/3 41/41/7 42/42/1 9/9/1 
f 12/12/4 11/11/1 43/43/1 44/44/8 
f 16/16/4 39/39/6 38/38/1 17/17/1 
f 22/22/1 21/21/1 45/45/1 36/36/1 
f 19/19/1 22/22/1 37/37/1 42/42/1 
f 24/24/5 19/19/1 42/42/1 41/41/7 
f 26/26/1 9/9/1 42/42/1 37/37/1 
f 25/25/1 26/26/1 33/33/1 40/40/1 
f 30/30/1 29/29/5 44/44/8 43/43/1 
f 32/32/1 17/17/1 38/38/1 35/35/1 
f 31/31/1 32/32/1 36/36/1 45/45/1 
f 7/7/1 46/46/1 47/47/9 8/8/3 
f 24/24/5 48/48/10 49/49/1 23/23/1 
f 50/50/11 51/51/12 52/52/1 53/53/6 
f 53/53/6 52/52/1 54/54/13 55/55/14 
f 4/4/2 56/56/15 57/57/1 1/1/1 
f 15/15/1 58/58/1 59/59/16 16/16/4 
f 60/60/7 61/61/1 62/62/17 63/63/18 
f 64/64/19 65/65/20 61/61/1 60/60/7 
f 12/12/4 66/66/9 67/67/1 13/13/1 
f 14/14/1 10/10/1 25/25/1 11/11/1 
f 28/28/1 68/68/1 69/69/15 29/29/5 
f 30/30/1 5/5/1 2/2/1 27/27/1 
f 11/11/1 25/25/1 40/40/1 43/43/1 
f 70/70/21 71/71/22 72/72/1 73/73/23 
f 43/43/1 40/40/1 5/5/1 30/30/1 
s off
f 74/74/14 75/75/10 76/76/16 77/77/24 
f 76/76/16 78/78/7 79/79/6 77/77/24 
f 78/78/7 80/80/15 81/81/25 79/79/6 
f 82/82/18 83/83/15 84/84/9 85/85/26 
f 84/84/9 86/86/6 87/87/7 85/85/26 
f 86/86/6 88/88/10 89/89/27 87/87/7 
f 90/90/16 91/91/15 92/92/21 93/93/28 
f 94/94/29 95/95/9 96/96/10 97/97/30 
f 96/96/10 98/98/8 99/99/23 97/97/30 
f 98/98/8 90/90/16 93/93/28 99/99/23 
s 1
f 100/100/29 73/73/23 72/72/1 101/101/31 
s off
f 81/81/25 80/80/15 102/102/9 103/103/11 
f 89/89/27 88/88/10 104/104/16 105/105/19 
f 8/8/3 47/47/9 102/102/9 80/80/15 
f 47/47/9 51/51/12 103/103/11 102/102/9 
f 51/51/12 50/50/11 81/81/25 103/103/11 
f 50/50/11 53/53/6 79/79/6 81/81/25 
f 53/53/6 55/55/14 77/77/24 79/79/6 
f 55/55/14 54/54/13 74/74/14 77/77/24 
f 54/54/13 48/48/10 75/75/10 74/74/14 
f 48/48/10 24/24/5 76/76/16 75/75/10 
f 24/24/5 41/41/7 78/78/7 76/76/16 
f 41/41/7 8/8/3 80/80/15 78/78/7 
f 16/16/4 59/59/16 104/104/16 88/88/10 
f 59/59/16 65/65/20 105/105/19 104/104/16 
f 65/65/20 64/64/19 89/89/27 105/105/19 
f 64/64/19 60/60/7 87/87/7 89/89/27 
f 60/60/7 63/63/18 85/85/26 87/87/7 
f 63/63/18 62/62/17 82/82/18 85/85/26 
f 62/62/17 56/56/15 83/83/15 82/82/18 
f 56/56/15 4/4/2 84/84/9 83/83/15 
f 4/4/2 39/39/6 86/86/6 84/84/9 
f 39/39/6 16/16/4 88/88/10 86/86/6 
f 29/29/5 69/69/15 91/91/15 90/90/16 
f 69/69/15 71/71/22 92/92/21 91/91/15 
f 71/71/22 70/70/21 93/93/28 92/92/21 
f 70/70/21 73/73/23 99/99/23 93/93/28 
f 73/73/23 100/100/29 97/97/30 99/99/23 
f 100/100/29 101/101/31 94/94/29 97/97/30 
f 101/101/31 66/66/9 95/95/9 94/94/29 
f 66/66/9 12/12/4 96/96/10 95/95/9 
f 12/12/4 44/44/8 98/98/8 96/96/10 
f 44/44/8 29/29/5 90/90/16 98/98/8 
# 86 polygons

