# 3ds Max Wavefront OBJ Exporter v0.99 - (c)2007 guruware
# File Created: 31.05.2023 16:42:47

mtllib Boss floor.mtl

#
# object Boss_floor
#

v  4.3229 -0.0001 -17.3279
v  -4.3229 -0.0001 -17.3279
v  -0.0000 -0.0001 -4.0233
v  49.5960 -0.0001 -1.2433
v  40.8548 -0.0001 -28.1460
v  36.6016 -0.0001 -25.0558
v  44.3387 -0.0001 -1.2433
v  39.3933 -0.0001 -30.1576
v  16.5084 -0.0001 -46.7844
v  14.8838 -0.0001 -41.7844
v  35.1400 -0.0001 -27.0675
v  14.1436 -0.0001 -47.5528
v  -14.1436 -0.0001 -47.5528
v  -12.5190 -0.0001 -42.5528
v  12.5190 -0.0001 -42.5528
v  -16.5084 -0.0001 -46.7844
v  -39.3933 -0.0001 -30.1576
v  -35.1400 -0.0001 -27.0675
v  -14.8838 -0.0001 -41.7844
v  -40.8548 -0.0001 -28.1460
v  -49.5960 -0.0001 -1.2433
v  -44.3387 -0.0001 -1.2433
v  -36.6016 -0.0001 -25.0558
v  -49.5960 -0.0001 1.2433
v  -40.8548 -0.0001 28.1460
v  -36.6016 -0.0001 25.0558
v  -44.3387 -0.0001 1.2433
v  -39.3933 -0.0001 30.1577
v  -16.5084 -0.0001 46.7844
v  -14.8838 -0.0001 41.7844
v  -35.1400 -0.0001 27.0675
v  -14.1436 -0.0001 47.5528
v  14.1436 -0.0001 47.5528
v  12.5190 -0.0001 42.5528
v  -12.5190 -0.0001 42.5528
v  16.5084 -0.0001 46.7844
v  39.3933 -0.0001 30.1576
v  35.1400 -0.0001 27.0675
v  14.8838 -0.0001 41.7844
v  40.8548 -0.0001 28.1460
v  49.5960 -0.0001 1.2433
v  44.3387 -0.0001 1.2433
v  36.6016 -0.0001 25.0558
v  31.0772 -0.0001 -1.2433
v  25.8728 -0.0001 -17.2609
v  15.1440 -0.0001 -9.4660
v  17.8157 -0.0001 -1.2433
v  24.4112 -0.0001 -19.2725
v  10.7858 -0.0001 -29.1720
v  6.6878 -0.0001 -16.5595
v  13.6824 -0.0001 -11.4776
v  8.4210 -0.0001 -29.9404
v  -8.4210 -0.0001 -29.9404
v  -10.7858 -0.0001 -29.1720
v  -24.4112 -0.0001 -19.2725
v  -13.6824 -0.0001 -11.4776
v  -6.6878 -0.0001 -16.5595
v  -25.8728 -0.0001 -17.2609
v  -31.0772 -0.0001 -1.2433
v  -17.8157 -0.0001 -1.2433
v  -15.1440 -0.0001 -9.4660
v  -31.0772 -0.0001 1.2433
v  -25.8728 -0.0001 17.2609
v  -15.1440 -0.0001 9.4660
v  -17.8157 -0.0001 1.2433
v  -24.4112 -0.0001 19.2726
v  -10.7858 -0.0001 29.1720
v  -6.6878 -0.0001 16.5595
v  -13.6824 -0.0001 11.4776
v  -8.4210 -0.0001 29.9404
v  8.4210 -0.0001 29.9404
v  4.3229 -0.0001 17.3279
v  -4.3229 -0.0001 17.3279
v  10.7858 -0.0001 29.1720
v  24.4112 -0.0001 19.2725
v  13.6824 -0.0001 11.4776
v  6.6878 -0.0001 16.5595
v  25.8728 -0.0001 17.2609
v  31.0772 -0.0001 1.2433
v  17.8157 -0.0001 1.2433
v  15.1440 -0.0001 9.4660
v  -2.3648 -0.0001 3.2549
v  -0.0000 -0.0001 4.0233
v  3.8264 -0.0001 -1.2433
v  2.3648 -0.0001 -3.2549
v  -2.3648 -0.0001 -3.2549
v  -3.8264 -0.0001 1.2433
v  3.8264 -0.0001 1.2433
v  -3.8264 -0.0001 -1.2433
v  2.3648 -0.0001 3.2549
v  49.5960 -3.1923 -1.2433
v  40.8548 -3.1923 -28.1460
v  39.3933 -3.1923 -30.1576
v  16.5084 -3.1923 -46.7844
v  -40.8548 -3.1923 -28.1460
v  -49.5960 -3.1923 -1.2433
v  -39.3933 -3.1923 30.1577
v  -16.5084 -3.1923 46.7844
v  -14.1436 -3.1923 47.5528
v  14.1436 -3.1923 47.5528
v  40.8548 -3.1923 28.1460
v  49.5960 -3.1923 1.2433
v  14.1436 -3.1923 -47.5528
v  -14.1436 -3.1923 -47.5528
v  -16.5084 -3.1923 -46.7844
v  -39.3933 -3.1923 -30.1576
v  4.3229 -3.1923 -17.3279
v  -0.0000 -3.1923 -4.0233
v  -4.3229 -3.1923 -17.3279
v  44.3387 -3.1923 -1.2433
v  36.6016 -3.1923 -25.0558
v  35.1400 -3.1923 -27.0675
v  14.8838 -3.1923 -41.7844
v  12.5190 -3.1923 -42.5528
v  -12.5190 -3.1923 -42.5528
v  -14.8838 -3.1923 -41.7844
v  -35.1400 -3.1923 -27.0675
v  -36.6016 -3.1923 -25.0558
v  -44.3387 -3.1923 -1.2433
v  -49.5960 -3.1923 1.2433
v  -44.3387 -3.1923 1.2433
v  -36.6016 -3.1923 25.0558
v  -40.8548 -3.1923 28.1460
v  -35.1400 -3.1923 27.0675
v  -14.8838 -3.1923 41.7844
v  -12.5190 -3.1923 42.5528
v  12.5190 -3.1923 42.5528
v  16.5084 -3.1923 46.7844
v  14.8838 -3.1923 41.7844
v  35.1400 -3.1923 27.0675
v  39.3933 -3.1923 30.1576
v  36.6016 -3.1923 25.0558
v  44.3387 -3.1923 1.2433
v  31.0772 -3.1923 -1.2433
v  17.8157 -3.1923 -1.2433
v  15.1440 -3.1923 -9.4660
v  25.8728 -3.1923 -17.2609
v  24.4112 -3.1923 -19.2725
v  13.6824 -3.1923 -11.4776
v  6.6878 -3.1923 -16.5595
v  10.7858 -3.1923 -29.1720
v  8.4210 -3.1923 -29.9404
v  -8.4210 -3.1923 -29.9404
v  -10.7858 -3.1923 -29.1720
v  -6.6878 -3.1923 -16.5595
v  -13.6824 -3.1923 -11.4776
v  -24.4112 -3.1923 -19.2725
v  -25.8728 -3.1923 -17.2609
v  -15.1440 -3.1923 -9.4660
v  -17.8157 -3.1923 -1.2433
v  -31.0772 -3.1923 -1.2433
v  -31.0772 -3.1923 1.2433
v  -17.8157 -3.1923 1.2433
v  -15.1440 -3.1923 9.4660
v  -25.8728 -3.1923 17.2609
v  -24.4112 -3.1923 19.2726
v  -13.6824 -3.1923 11.4776
v  -6.6878 -3.1923 16.5595
v  -10.7858 -3.1923 29.1720
v  -8.4210 -3.1923 29.9404
v  -4.3229 -3.1923 17.3279
v  4.3229 -3.1923 17.3279
v  8.4210 -3.1923 29.9404
v  10.7858 -3.1923 29.1720
v  6.6878 -3.1923 16.5595
v  13.6824 -3.1923 11.4776
v  24.4112 -3.1923 19.2725
v  25.8728 -3.1923 17.2609
v  15.1440 -3.1923 9.4660
v  17.8157 -3.1923 1.2433
v  31.0772 -3.1923 1.2433
v  -2.3648 -3.1923 3.2549
v  -0.0000 -3.1923 4.0233
v  3.8264 -3.1923 -1.2433
v  2.3648 -3.1923 -3.2549
v  -2.3648 -3.1923 -3.2549
v  -3.8264 -3.1923 1.2433
v  3.8264 -3.1923 1.2433
v  -3.8264 -3.1923 -1.2433
v  2.3648 -3.1923 3.2549
# 180 vertices

vn 0.0000 1.0000 -0.0000
vn 0.9155 0.3754 -0.1450
vn 0.8259 0.3754 -0.4208
vn -0.1456 0.8820 0.4482
vn -0.3812 0.8820 -0.2770
vn 0.6554 0.3754 -0.6554
vn 0.4208 0.3754 -0.8259
vn 0.1456 0.8820 0.4482
vn -0.4713 0.8820 0.0000
vn 0.1450 0.3754 -0.9155
vn -0.1450 0.3754 -0.9155
vn 0.3812 0.8820 0.2770
vn -0.3813 0.8820 0.2770
vn -0.4208 0.3754 -0.8258
vn -0.6554 0.3754 -0.6554
vn 0.4713 0.8820 -0.0000
vn -0.8258 0.3754 -0.4208
vn -0.9155 0.3754 -0.1450
vn 0.3813 0.8820 -0.2770
vn -0.9155 0.3754 0.1450
vn -0.8259 0.3754 0.4208
vn 0.1456 0.8820 -0.4482
vn 0.3813 0.8820 0.2770
vn -0.6554 0.3754 0.6554
vn -0.4208 0.3754 0.8259
vn -0.1456 0.8820 -0.4482
vn -0.1450 0.3754 0.9155
vn 0.1450 0.3754 0.9155
vn 0.4208 0.3754 0.8259
vn 0.6554 0.3754 0.6554
vn 0.8258 0.3754 0.4208
vn 0.9155 0.3754 0.1450
vn -0.3812 0.8820 0.2770
vn 0.2941 0.8658 -0.4048
vn 0.4758 0.8658 0.1546
vn -0.0000 0.8658 -0.5003
vn 0.4758 0.8658 -0.1546
vn -0.2941 0.8658 -0.4048
vn -0.4758 0.8659 -0.1546
vn 0.0000 0.8658 -0.5004
vn -0.4758 0.8658 0.1546
vn -0.2940 0.8659 -0.4048
vn -0.2940 0.8659 0.4048
vn 0.0000 0.8658 0.5003
vn 0.2941 0.8658 0.4048
vn -0.2940 0.8659 0.4047
vn 0.4758 0.8659 -0.1546
vn 0.2940 0.8659 0.4048
vn 0.7301 -0.6735 -0.1156
vn 0.6586 -0.6735 -0.3356
vn 0.5227 -0.6735 -0.5227
vn 0.3356 -0.6735 -0.6586
vn -0.6586 -0.6736 -0.3355
vn -0.7301 -0.6735 -0.1156
vn -0.5227 -0.6735 0.5227
vn -0.3356 -0.6735 0.6586
vn -0.1156 -0.6735 0.7301
vn 0.1156 -0.6735 0.7301
vn 0.6586 -0.6736 0.3356
vn 0.7300 -0.6736 0.1156
vn 0.1156 -0.6735 -0.7301
vn -0.1156 -0.6735 -0.7301
vn -0.3355 -0.6736 -0.6586
vn -0.5226 -0.6736 -0.5226
vn 0.0000 -1.0000 -0.0000
vn -0.2789 -0.9387 -0.2027
vn -0.1065 -0.9387 0.3279
vn -0.3448 -0.9387 0.0000
vn 0.1066 -0.9387 0.3280
vn -0.2790 -0.9387 0.2027
vn 0.2789 -0.9387 0.2027
vn -0.1065 -0.9387 0.3280
vn 0.3448 -0.9387 -0.0000
vn 0.2790 -0.9387 -0.2027
vn -0.7301 -0.6735 0.1156
vn 0.2790 -0.9387 0.2027
vn 0.1066 -0.9387 -0.3280
vn -0.6586 -0.6735 0.3356
vn -0.1066 -0.9387 -0.3280
vn 0.3356 -0.6735 0.6586
vn 0.5227 -0.6735 0.5227
vn -0.1065 -0.9387 -0.3279
vn -0.2789 -0.9387 0.2027
vn 0.2941 -0.8658 -0.4048
vn 0.4758 -0.8658 0.1546
vn -0.0000 -0.8658 -0.5003
vn 0.4758 -0.8658 -0.1546
vn -0.2941 -0.8658 -0.4048
vn -0.4758 -0.8659 -0.1546
vn 0.0000 -0.8658 -0.5004
vn -0.4758 -0.8658 0.1546
vn -0.2940 -0.8659 -0.4048
vn -0.2940 -0.8659 0.4048
vn 0.0000 -0.8658 0.5003
vn 0.2941 -0.8658 0.4048
vn -0.2940 -0.8659 0.4047
vn 0.4758 -0.8659 -0.1546
vn 0.2940 -0.8659 0.4048
# 98 vertex normals

vt 0.6671 0.2579 0.0000
vt 0.7128 0.2962 0.0000
vt 0.6342 0.3475 0.0000
vt 0.3337 0.1678 0.0000
vt 0.5018 0.0363 0.0000
vt 0.5131 0.0694 0.0000
vt 0.3655 0.1841 0.0000
vt 0.5182 0.0301 0.0000
vt 0.7419 0.0358 0.0000
vt 0.7257 0.0682 0.0000
vt 0.5320 0.0631 0.0000
vt 0.7581 0.0441 0.0000
vt 0.9160 0.1888 0.0000
vt 0.8829 0.2025 0.0000
vt 0.7442 0.0759 0.0000
vt 0.9235 0.2034 0.0000
vt 0.9641 0.4006 0.0000
vt 0.9294 0.3932 0.0000
vt 0.8928 0.2188 0.0000
vt 0.9622 0.4161 0.0000
vt 0.8858 0.5935 0.0000
vt 0.8608 0.5689 0.0000
vt 0.9281 0.4113 0.0000
vt 0.8762 0.6048 0.0000
vt 0.7169 0.7087 0.0000
vt 0.7084 0.6749 0.0000
vt 0.8497 0.5824 0.0000
vt 0.7024 0.7127 0.0000
vt 0.5123 0.7074 0.0000
vt 0.5236 0.6746 0.0000
vt 0.6919 0.6793 0.0000
vt 0.4980 0.7027 0.0000
vt 0.3431 0.5892 0.0000
vt 0.3705 0.5681 0.0000
vt 0.5074 0.6687 0.0000
vt 0.3339 0.5772 0.0000
vt 0.2699 0.3919 0.0000
vt 0.3043 0.3897 0.0000
vt 0.3605 0.5537 0.0000
vt 0.2691 0.3764 0.0000
vt 0.3251 0.1815 0.0000
vt 0.3544 0.1996 0.0000
vt 0.3044 0.3716 0.0000
vt 0.4540 0.2425 0.0000
vt 0.5503 0.1702 0.0000
vt 0.5760 0.2561 0.0000
vt 0.5278 0.2915 0.0000
vt 0.5648 0.1655 0.0000
vt 0.6852 0.1675 0.0000
vt 0.6513 0.2521 0.0000
vt 0.5922 0.2510 0.0000
vt 0.6992 0.1729 0.0000
vt 0.7900 0.2527 0.0000
vt 0.7978 0.2655 0.0000
vt 0.8241 0.3798 0.0000
vt 0.7363 0.3681 0.0000
vt 0.7218 0.3104 0.0000
vt 0.8233 0.3942 0.0000
vt 0.7804 0.4990 0.0000
vt 0.7144 0.4391 0.0000
vt 0.7353 0.3847 0.0000
vt 0.7717 0.5100 0.0000
vt 0.6799 0.5713 0.0000
vt 0.6574 0.4841 0.0000
vt 0.7042 0.4520 0.0000
vt 0.6667 0.5752 0.0000
vt 0.5566 0.5722 0.0000
vt 0.5858 0.4872 0.0000
vt 0.6419 0.4885 0.0000
vt 0.5435 0.5679 0.0000
vt 0.4543 0.5012 0.0000
vt 0.5255 0.4475 0.0000
vt 0.5706 0.4818 0.0000
vt 0.4460 0.4898 0.0000
vt 0.4107 0.3815 0.0000
vt 0.4991 0.3785 0.0000
vt 0.5162 0.4339 0.0000
vt 0.4106 0.3670 0.0000
vt 0.4454 0.2549 0.0000
vt 0.5177 0.3053 0.0000
vt 0.4993 0.3617 0.0000
vt 0.6168 0.3968 0.0000
vt 0.6013 0.3912 0.0000
vt 0.6027 0.3468 0.0000
vt 0.6187 0.3419 0.0000
vt 0.6434 0.3616 0.0000
vt 0.6326 0.3919 0.0000
vt 0.5925 0.3604 0.0000
vt 0.6428 0.3785 0.0000
vt 0.5920 0.3773 0.0000
vt 0.3168 0.1549 0.0000
vt 0.4903 0.0188 0.0000
vt 0.5139 0.0093 0.0000
vt 0.7477 0.0159 0.0000
vt 0.9822 0.4233 0.0000
vt 0.9030 0.6057 0.0000
vt 0.7051 0.7338 0.0000
vt 0.5090 0.7282 0.0000
vt 0.4889 0.7218 0.0000
vt 0.3291 0.6049 0.0000
vt 0.2479 0.3756 0.0000
vt 0.3053 0.1746 0.0000
vt 0.7715 0.0279 0.0000
vt 0.9338 0.1780 0.0000
vt 0.9441 0.1984 0.0000
vt 0.9851 0.4018 0.0000
vt 0.2362 0.7141 0.0000
vt 0.2180 0.7700 0.0000
vt 0.1998 0.7141 0.0000
vt 0.4264 0.7817 0.0000
vt 0.4043 0.7817 0.0000
vt 0.3718 0.6816 0.0000
vt 0.3897 0.6686 0.0000
vt 0.3836 0.6602 0.0000
vt 0.3657 0.6732 0.0000
vt 0.2806 0.6113 0.0000
vt 0.2874 0.5903 0.0000
vt 0.2774 0.5871 0.0000
vt 0.2706 0.6081 0.0000
vt 0.1654 0.6081 0.0000
vt 0.1586 0.5871 0.0000
vt 0.1486 0.5903 0.0000
vt 0.1555 0.6113 0.0000
vt 0.0703 0.6732 0.0000
vt 0.0525 0.6602 0.0000
vt 0.0463 0.6686 0.0000
vt 0.0642 0.6816 0.0000
vt 0.0317 0.7817 0.0000
vt 0.0096 0.7817 0.0000
vt 0.0096 0.7922 0.0000
vt 0.0317 0.7922 0.0000
vt 0.0642 0.8922 0.0000
vt 0.0463 0.9052 0.0000
vt 0.0525 0.9137 0.0000
vt 0.0703 0.9007 0.0000
vt 0.1555 0.9625 0.0000
vt 0.1486 0.9835 0.0000
vt 0.1586 0.9868 0.0000
vt 0.1654 0.9658 0.0000
vt 0.2706 0.9658 0.0000
vt 0.2774 0.9868 0.0000
vt 0.2874 0.9835 0.0000
vt 0.2806 0.9625 0.0000
vt 0.3657 0.9007 0.0000
vt 0.3836 0.9137 0.0000
vt 0.3897 0.9052 0.0000
vt 0.3718 0.8922 0.0000
vt 0.4043 0.7922 0.0000
vt 0.4264 0.7922 0.0000
vt 0.3486 0.7817 0.0000
vt 0.2929 0.7817 0.0000
vt 0.2816 0.7471 0.0000
vt 0.3267 0.7144 0.0000
vt 0.3206 0.7059 0.0000
vt 0.2755 0.7387 0.0000
vt 0.2461 0.7173 0.0000
vt 0.2633 0.6643 0.0000
vt 0.2534 0.6611 0.0000
vt 0.1826 0.6611 0.0000
vt 0.1727 0.6643 0.0000
vt 0.1899 0.7173 0.0000
vt 0.1605 0.7387 0.0000
vt 0.1154 0.7059 0.0000
vt 0.1093 0.7144 0.0000
vt 0.1544 0.7471 0.0000
vt 0.1431 0.7817 0.0000
vt 0.0874 0.7817 0.0000
vt 0.0874 0.7922 0.0000
vt 0.1431 0.7922 0.0000
vt 0.1544 0.8267 0.0000
vt 0.1093 0.8595 0.0000
vt 0.1154 0.8679 0.0000
vt 0.1605 0.8352 0.0000
vt 0.1899 0.8565 0.0000
vt 0.1727 0.9095 0.0000
vt 0.1826 0.9127 0.0000
vt 0.1998 0.8597 0.0000
vt 0.2362 0.8597 0.0000
vt 0.2534 0.9127 0.0000
vt 0.2633 0.9095 0.0000
vt 0.2461 0.8565 0.0000
vt 0.2755 0.8352 0.0000
vt 0.3206 0.8679 0.0000
vt 0.3267 0.8595 0.0000
vt 0.2816 0.8267 0.0000
vt 0.2929 0.7922 0.0000
vt 0.3486 0.7922 0.0000
vt 0.2081 0.8006 0.0000
vt 0.2180 0.8038 0.0000
vt 0.2341 0.7817 0.0000
vt 0.2279 0.7732 0.0000
vt 0.2081 0.7732 0.0000
vt 0.2019 0.7922 0.0000
vt 0.2341 0.7922 0.0000
vt 0.2019 0.7817 0.0000
vt 0.2279 0.8006 0.0000
vt 0.7253 0.7279 0.0000
vt 0.8896 0.6213 0.0000
vt 0.2496 0.3974 0.0000
vt 0.3158 0.5883 0.0000
vt 0.4286 0.4868 0.0000
vt 0.4008 0.3967 0.0000
vt 0.3217 0.3977 0.0000
vt 0.4284 0.2616 0.0000
vt 0.3639 0.2164 0.0000
vt 0.3982 0.3543 0.0000
vt 0.3187 0.3582 0.0000
vt 0.3894 0.5649 0.0000
vt 0.5009 0.6505 0.0000
vt 0.4546 0.5191 0.0000
vt 0.5274 0.5754 0.0000
vt 0.3650 0.5348 0.0000
vt 0.5376 0.6613 0.0000
vt 0.6766 0.6678 0.0000
vt 0.6576 0.5908 0.0000
vt 0.5667 0.5867 0.0000
vt 0.5102 0.0889 0.0000
vt 0.3851 0.1814 0.0000
vt 0.7094 0.0801 0.0000
vt 0.5487 0.0736 0.0000
vt 0.5739 0.1498 0.0000
vt 0.7490 0.0952 0.0000
vt 0.7163 0.1669 0.0000
vt 0.7913 0.2350 0.0000
vt 0.6753 0.1525 0.0000
vt 0.8629 0.2015 0.0000
vt 0.4516 0.2248 0.0000
vt 0.5328 0.1651 0.0000
vt 0.9135 0.3813 0.0000
vt 0.8851 0.2365 0.0000
vt 0.8541 0.5504 0.0000
vt 0.9119 0.4212 0.0000
vt 0.7128 0.6559 0.0000
vt 0.8308 0.5815 0.0000
vt 0.7728 0.5282 0.0000
vt 0.6961 0.5774 0.0000
vt 0.8341 0.4090 0.0000
vt 0.7972 0.4951 0.0000
vt 0.8355 0.3668 0.0000
vt 0.8152 0.2715 0.0000
# 240 texture coords

o Boss_floor
g Boss_floor
usemtl wire_057008136
s 1
f 1/1/1 2/2/1 3/3/1 
s 2
f 4/4/2 5/5/3 6/6/4 7/7/5 
f 8/8/6 9/9/7 10/10/8 11/11/9 
f 12/12/10 13/13/11 14/14/12 15/15/13 
f 16/16/14 17/17/15 18/18/16 19/19/4 
f 20/20/17 21/21/18 22/22/19 23/23/8 
f 24/24/20 25/25/21 26/26/22 27/27/23 
f 28/28/24 29/29/25 30/30/26 31/31/16 
f 32/32/27 33/33/28 34/34/5 35/35/19 
f 36/36/29 37/37/30 38/38/9 39/39/22 
f 40/40/31 41/41/32 42/42/33 43/43/26 
s 1
f 44/44/34 45/45/35 46/46/1 47/47/1 
f 48/48/36 49/49/37 50/50/1 51/51/1 
f 52/52/38 53/53/34 2/2/1 1/1/1 
f 54/54/39 55/55/40 56/56/1 57/57/1 
f 58/58/41 59/59/42 60/60/1 61/61/1 
f 62/62/43 63/63/39 64/64/1 65/65/1 
f 66/66/44 67/67/41 68/68/1 69/69/1 
f 70/70/45 71/71/46 72/72/1 73/73/1 
f 74/74/35 75/75/44 76/76/1 77/77/1 
f 78/78/47 79/79/48 80/80/1 81/81/1 
f 69/69/1 68/68/1 82/82/1 
f 73/73/1 72/72/1 83/83/1 
f 84/84/1 47/47/1 46/46/1 
f 51/51/1 50/50/1 85/85/1 
f 86/86/1 57/57/1 56/56/1 
f 65/65/1 64/64/1 87/87/1 
f 88/88/1 81/81/1 80/80/1 
f 61/61/1 60/60/1 89/89/1 
f 90/90/1 77/77/1 76/76/1 
f 84/84/1 85/85/1 3/3/1 86/86/1 
f 3/3/1 2/2/1 57/57/1 86/86/1 
f 1/1/1 3/3/1 85/85/1 50/50/1 
f 45/45/35 6/6/4 11/11/9 48/48/36 
f 7/7/5 44/44/34 79/79/48 42/42/33 
f 49/49/37 10/10/8 15/15/13 52/52/38 
f 53/53/34 14/14/12 19/19/4 54/54/39 
f 55/55/40 18/18/16 23/23/8 58/58/41 
f 59/59/42 22/22/19 27/27/23 62/62/43 
f 63/63/39 26/26/22 31/31/16 66/66/44 
f 67/67/41 30/30/26 35/35/19 70/70/45 
f 71/71/46 34/34/5 39/39/22 74/74/35 
f 75/75/44 38/38/9 43/43/26 78/78/47 
f 46/46/1 45/45/35 48/48/36 51/51/1 
f 44/44/34 47/47/1 80/80/1 79/79/48 
f 50/50/1 49/49/37 52/52/38 1/1/1 
f 2/2/1 53/53/34 54/54/39 57/57/1 
f 56/56/1 55/55/40 58/58/41 61/61/1 
f 60/60/1 59/59/42 62/62/43 65/65/1 
f 64/64/1 63/63/39 66/66/44 69/69/1 
f 68/68/1 67/67/41 70/70/45 73/73/1 
f 72/72/1 71/71/46 74/74/35 77/77/1 
f 76/76/1 75/75/44 78/78/47 81/81/1 
f 82/82/1 68/68/1 73/73/1 83/83/1 
f 69/69/1 82/82/1 87/87/1 64/64/1 
f 83/83/1 72/72/1 77/77/1 90/90/1 
f 47/47/1 84/84/1 88/88/1 80/80/1 
f 84/84/1 46/46/1 51/51/1 85/85/1 
f 86/86/1 56/56/1 61/61/1 89/89/1 
f 65/65/1 87/87/1 89/89/1 60/60/1 
f 81/81/1 88/88/1 90/90/1 76/76/1 
f 5/5/3 4/4/2 91/91/49 92/92/50 
f 9/9/7 8/8/6 93/93/51 94/94/52 
f 21/21/18 20/20/17 95/95/53 96/96/54 
f 29/29/25 28/28/24 97/97/55 98/98/56 
f 33/33/28 32/32/27 99/99/57 100/100/58 
f 41/41/32 40/40/31 101/101/59 102/102/60 
f 8/8/6 5/5/3 92/92/50 93/93/51 
f 12/12/10 9/9/7 94/94/52 103/103/61 
f 16/16/14 13/13/11 104/104/62 105/105/63 
f 20/20/17 17/17/15 106/106/64 95/95/53 
f 4/4/2 41/41/32 102/102/60 91/91/49 
s 2
f 107/107/65 108/108/65 109/109/65 
f 91/110/49 110/111/66 111/112/67 92/113/50 
f 93/114/51 112/115/68 113/116/69 94/117/52 
f 103/118/61 114/119/70 115/120/71 104/121/62 
f 105/122/63 116/123/72 117/124/73 106/125/64 
f 95/126/53 118/127/69 119/128/74 96/129/54 
f 120/130/75 121/131/76 122/132/77 123/133/78 
f 97/134/55 124/135/73 125/136/79 98/137/56 
f 99/138/57 126/139/74 127/140/66 100/141/58 
f 128/142/80 129/143/77 130/144/68 131/145/81 
f 101/146/59 132/147/82 133/148/83 102/149/60 
f 134/150/84 135/151/65 136/152/65 137/153/85 
f 138/154/86 139/155/65 140/156/65 141/157/87 
f 142/158/88 107/107/65 109/109/65 143/159/84 
f 144/160/89 145/161/65 146/162/65 147/163/90 
f 148/164/91 149/165/65 150/166/65 151/167/92 
f 152/168/93 153/169/65 154/170/65 155/171/89 
f 156/172/94 157/173/65 158/174/65 159/175/91 
f 160/176/95 161/177/65 162/178/65 163/179/96 
f 164/180/85 165/181/65 166/182/65 167/183/94 
f 168/184/97 169/185/65 170/186/65 171/187/98 
f 157/173/65 172/188/65 158/174/65 
f 161/177/65 173/189/65 162/178/65 
f 174/190/65 136/152/65 135/151/65 
f 139/155/65 175/191/65 140/156/65 
f 176/192/65 146/162/65 145/161/65 
f 153/169/65 177/193/65 154/170/65 
f 178/194/65 170/186/65 169/185/65 
f 149/165/65 179/195/65 150/166/65 
f 180/196/65 166/182/65 165/181/65 
f 172/188/65 178/194/65 180/196/65 173/189/65 
f 108/108/65 176/192/65 145/161/65 109/109/65 
f 107/107/65 140/156/65 175/191/65 108/108/65 
f 111/112/67 112/115/68 93/114/51 92/113/50 
f 91/110/49 102/149/60 133/148/83 110/111/66 
f 113/116/69 114/119/70 103/118/61 94/117/52 
f 115/120/71 116/123/72 105/122/63 104/121/62 
f 117/124/73 118/127/69 95/126/53 106/125/64 
f 119/128/74 121/131/76 120/130/75 96/129/54 
f 122/132/77 124/135/73 97/134/55 123/133/78 
f 125/136/79 126/139/74 99/138/57 98/137/56 
f 127/140/66 129/143/77 128/142/80 100/141/58 
f 130/144/68 132/147/82 101/146/59 131/145/81 
f 137/153/85 138/154/86 112/115/68 111/112/67 
f 110/111/66 133/148/83 171/187/98 134/150/84 
f 141/157/87 142/158/88 114/119/70 113/116/69 
f 143/159/84 144/160/89 116/123/72 115/120/71 
f 147/163/90 148/164/91 118/127/69 117/124/73 
f 151/167/92 152/168/93 121/131/76 119/128/74 
f 155/171/89 156/172/94 124/135/73 122/132/77 
f 159/175/91 160/176/95 126/139/74 125/136/79 
f 163/179/96 164/180/85 129/143/77 127/140/66 
f 167/183/94 168/184/97 132/147/82 130/144/68 
f 136/152/65 139/155/65 138/154/86 137/153/85 
f 134/150/84 171/187/98 170/186/65 135/151/65 
f 140/156/65 107/107/65 142/158/88 141/157/87 
f 109/109/65 145/161/65 144/160/89 143/159/84 
f 146/162/65 149/165/65 148/164/91 147/163/90 
f 150/166/65 153/169/65 152/168/93 151/167/92 
f 154/170/65 157/173/65 156/172/94 155/171/89 
f 158/174/65 161/177/65 160/176/95 159/175/91 
f 162/178/65 165/181/65 164/180/85 163/179/96 
f 166/182/65 169/185/65 168/184/97 167/183/94 
f 172/188/65 173/189/65 161/177/65 158/174/65 
f 157/173/65 154/170/65 177/193/65 172/188/65 
f 173/189/65 180/196/65 165/181/65 162/178/65 
f 135/151/65 170/186/65 178/194/65 174/190/65 
f 174/190/65 175/191/65 139/155/65 136/152/65 
f 176/192/65 179/195/65 149/165/65 146/162/65 
f 153/169/65 150/166/65 179/195/65 177/193/65 
f 169/185/65 166/182/65 180/196/65 178/194/65 
s 1
f 104/104/62 13/13/11 12/12/10 103/103/61 
f 106/106/64 17/17/15 16/16/14 105/105/63 
f 123/197/78 25/25/21 24/24/20 120/198/75 
f 131/199/81 37/37/30 36/36/29 128/200/80 
f 120/198/75 24/24/20 21/21/18 96/96/54 
f 97/97/55 28/28/24 25/25/21 123/197/78 
f 99/99/57 32/32/27 29/29/25 98/98/56 
f 128/200/80 36/36/29 33/33/28 100/100/58 
f 101/101/59 40/40/31 37/37/30 131/199/81 
s 4
f 164/201/85 167/202/94 75/75/44 74/74/35 
s 8
f 167/202/94 130/203/68 38/38/9 75/75/44 
s 4
f 171/204/98 133/205/83 42/42/33 79/79/48 
s 8
f 168/206/97 171/204/98 79/79/48 78/78/47 
f 133/205/83 132/207/82 43/43/26 42/42/33 
s 4
f 127/208/66 126/209/74 35/35/19 34/34/5 
s 8
f 163/210/96 127/208/66 34/34/5 71/71/46 
s 4
f 160/211/95 163/210/96 71/71/46 70/70/45 
s 8
f 126/209/74 160/211/95 70/70/45 35/35/19 
f 129/212/77 164/201/85 74/74/35 39/39/22 
s 4
f 130/203/68 129/212/77 39/39/22 38/38/9 
f 125/213/79 124/214/73 31/31/16 30/30/26 
s 8
f 124/214/73 156/215/94 66/66/44 31/31/16 
s 4
f 156/215/94 159/216/91 67/67/41 66/66/44 
s 8
f 159/216/91 125/213/79 30/30/26 67/67/41 
s 4
f 111/217/67 110/218/66 7/7/5 6/6/4 
f 113/219/69 112/220/68 11/11/9 10/10/8 
s 8
f 112/220/68 138/221/86 48/48/36 11/11/9 
s 4
f 114/222/70 142/223/88 52/52/38 15/15/13 
s 8
f 142/223/88 143/224/84 53/53/34 52/52/38 
s 4
f 138/221/86 141/225/87 49/49/37 48/48/36 
s 8
f 141/225/87 113/219/69 10/10/8 49/49/37 
s 4
f 143/224/84 115/226/71 14/14/12 53/53/34 
s 8
f 115/226/71 114/222/70 15/15/13 14/14/12 
s 4
f 134/227/84 137/228/85 45/45/35 44/44/34 
f 132/207/82 168/206/97 78/78/47 43/43/26 
s 8
f 110/218/66 134/227/84 44/44/34 7/7/5 
f 137/228/85 111/217/67 6/6/4 45/45/35 
s 4
f 117/229/73 116/230/72 19/19/4 18/18/16 
f 119/231/74 118/232/69 23/23/8 22/22/19 
f 122/233/77 121/234/76 27/27/23 26/26/22 
s 8
f 121/234/76 152/235/93 62/62/43 27/27/23 
s 4
f 152/235/93 155/236/89 63/63/39 62/62/43 
f 148/237/91 151/238/92 59/59/42 58/58/41 
s 8
f 155/236/89 122/233/77 26/26/22 63/63/39 
f 147/239/90 117/229/73 18/18/16 55/55/40 
s 4
f 144/240/89 147/239/90 55/55/40 54/54/39 
s 8
f 118/232/69 148/237/91 58/58/41 23/23/8 
f 151/238/92 119/231/74 22/22/19 59/59/42 
f 116/230/72 144/240/89 54/54/39 19/19/4 
s 1
f 89/89/1 87/87/1 90/90/1 88/88/1 
f 88/88/1 84/84/1 86/86/1 89/89/1 
f 87/87/1 82/82/1 83/83/1 90/90/1 
s 2
f 177/193/65 179/195/65 175/191/65 174/190/65 
f 174/190/65 178/194/65 172/188/65 177/193/65 
f 179/195/65 176/192/65 108/108/65 175/191/65 
# 178 polygons - 20 triangles

