# 3ds Max Wavefront OBJ Exporter v0.99 - (c)2007 guruware
# File Created: 16.02.2023 12:56:15

mtllib Road 1x2.mtl

#
# object Road_1x2
#

v  -100.0000 0.5000 -50.0000
v  -100.0000 0.5000 -38.2702
v  0.0000 0.5000 -38.2702
v  0.0000 0.5000 -50.0000
v  100.0000 -0.5000 -0.0000
v  100.0000 -0.5000 -38.2702
v  0.0000 -0.5000 -38.2702
v  0.0000 -0.5000 -0.0000
v  -100.0000 -0.5000 -38.2702
v  -100.0000 -0.5000 -0.0000
v  100.0000 0.5000 -38.2702
v  100.0000 0.5000 -50.0000
v  -100.0000 0.5000 50.0000
v  0.0000 0.5000 50.0000
v  0.0000 0.5000 38.2702
v  -100.0000 0.5000 38.2702
v  0.0000 -0.5000 38.2702
v  100.0000 -0.5000 38.2702
v  -100.0000 -0.5000 38.2702
v  100.0000 0.5000 38.2702
v  100.0000 0.5000 50.0000
v  100.0000 -0.5000 -50.0000
v  0.0000 -0.5000 -50.0000
v  -100.0000 -0.5000 -50.0000
v  -100.0000 -0.5000 50.0000
v  0.0000 -0.5000 50.0000
v  100.0000 -0.5000 50.0000
# 27 vertices

vn 0.0000 0.7071 -0.7071
vn 0.0000 0.7071 0.7071
vn 0.0000 1.0000 -0.0000
vn 0.0000 0.0000 -1.0000
vn 0.0000 0.0000 1.0000
# 5 vertex normals

vt 0.0158 0.9825 0.0000
vt 0.0152 0.9461 0.0000
vt 0.3257 0.9415 0.0000
vt 0.3263 0.9779 0.0000
vt 0.6344 0.8149 0.0000
vt 0.6361 0.9337 0.0000
vt 0.3257 0.9384 0.0000
vt 0.3239 0.8195 0.0000
vt 0.0152 0.9430 0.0000
vt 0.0134 0.8242 0.0000
vt 0.6362 0.9368 0.0000
vt 0.6367 0.9732 0.0000
vt 0.0110 0.6659 0.0000
vt 0.3215 0.6612 0.0000
vt 0.3221 0.6976 0.0000
vt 0.0116 0.7023 0.0000
vt 0.3221 0.7007 0.0000
vt 0.6326 0.6961 0.0000
vt 0.0116 0.7054 0.0000
vt 0.6325 0.6930 0.0000
vt 0.6320 0.6566 0.0000
vt 0.6368 0.9763 0.0000
vt 0.3263 0.9810 0.0000
vt 0.0158 0.9856 0.0000
vt 0.0110 0.6627 0.0000
vt 0.3215 0.6581 0.0000
vt 0.6319 0.6535 0.0000
# 27 texture coords

o Road_1x2
g Road_1x2
usemtl Material__24
s 1
f 1/1/1 2/2/2 3/3/2 4/4/1 
f 5/5/3 6/6/2 7/7/2 8/8/3 
f 9/9/2 10/10/3 8/8/3 7/7/2 
f 11/11/2 12/12/1 4/4/1 3/3/2 
f 13/13/2 14/14/2 15/15/1 16/16/1 
f 5/5/3 8/8/3 17/17/1 18/18/1 
f 19/19/1 17/17/1 8/8/3 10/10/3 
f 20/20/1 15/15/1 14/14/2 21/21/2 
s off
f 9/9/2 7/7/2 3/3/2 2/2/2 
f 7/7/2 6/6/2 11/11/2 3/3/2 
f 22/22/4 23/23/4 4/4/1 12/12/1 
f 23/23/4 24/24/4 1/1/1 4/4/1 
f 25/25/5 26/26/5 14/14/2 13/13/2 
f 26/26/5 27/27/5 21/21/2 14/14/2 
f 18/18/1 17/17/1 15/15/1 20/20/1 
f 17/17/1 19/19/1 16/16/1 15/15/1 
# 16 polygons

