# 3ds Max Wavefront OBJ Exporter v0.99 - (c)2007 guruware
# File Created: 16.02.2023 12:55:55

mtllib Road 2x2.mtl

#
# object Road_2x2
#

v  88.2353 0.0000 -88.2353
v  88.2353 0.0000 -50.0201
v  100.0000 0.0000 -50.0201
v  100.0000 0.0000 -88.2353
v  88.2353 0.0000 -100.0000
v  49.9191 0.0000 -100.0000
v  49.9191 0.0000 -88.2353
v  100.0000 1.0000 -100.0000
v  88.2353 1.0000 -100.0000
v  88.2353 1.0000 -88.2353
v  100.0000 1.0000 -88.2353
v  11.7759 0.0000 -100.0000
v  11.7759 0.0000 -93.6220
v  17.1626 0.0000 -88.2353
v  0.0000 1.0000 -100.0000
v  0.0000 1.0000 -88.2353
v  6.3891 1.0000 -88.2353
v  10.4292 1.0000 -89.5820
v  11.7759 1.0000 -93.6220
v  11.7759 1.0000 -100.0000
v  11.7759 0.0000 -82.8486
v  6.3891 0.0000 -88.2353
v  0.0000 0.0000 -88.2353
v  0.0000 0.0000 -50.0201
v  11.7759 0.0000 -50.0201
v  88.2353 0.0000 -17.0848
v  93.6220 0.0000 -11.6981
v  100.0000 0.0000 -11.6981
v  49.9191 0.0000 -50.0201
v  0.0000 0.0000 -11.6981
v  11.7759 0.0000 -11.6981
v  49.9191 0.0000 -11.6981
v  82.8486 0.0000 -11.6981
v  88.2353 1.0000 -0.0000
v  100.0000 1.0000 -0.0000
v  100.0000 1.0000 -11.6981
v  93.6220 1.0000 -11.6981
v  89.5820 1.0000 -10.3514
v  88.2353 1.0000 -6.3114
v  -88.2353 0.0000 -88.2353
v  -100.0000 0.0000 -88.2353
v  -100.0000 0.0000 -50.0201
v  -88.2353 0.0000 -50.0201
v  -88.2353 0.0000 -100.0000
v  -49.9191 0.0000 -88.2353
v  -49.9191 0.0000 -100.0000
v  -100.0000 1.0000 -100.0000
v  -100.0000 1.0000 -88.2353
v  -88.2353 1.0000 -88.2353
v  -88.2353 1.0000 -100.0000
v  -11.7759 0.0000 -100.0000
v  -17.1626 0.0000 -88.2353
v  -11.7759 0.0000 -93.6220
v  -11.7759 1.0000 -100.0000
v  -11.7759 1.0000 -93.6220
v  -10.4292 1.0000 -89.5820
v  -6.3891 1.0000 -88.2353
v  -6.3891 0.0000 -88.2353
v  -11.7759 0.0000 -82.8486
v  -11.7759 0.0000 -50.0201
v  -93.6220 0.0000 -11.6981
v  -88.2353 0.0000 -17.0848
v  -100.0000 0.0000 -11.6981
v  -49.9191 0.0000 -50.0201
v  -11.7759 0.0000 -11.6981
v  -82.8486 0.0000 -11.6981
v  -49.9191 0.0000 -11.6981
v  -100.0000 1.0000 -11.6981
v  -100.0000 1.0000 -0.0000
v  -88.2353 1.0000 -0.0000
v  -88.2353 1.0000 -6.3114
v  -89.5820 1.0000 -10.3514
v  -93.6220 1.0000 -11.6981
v  88.2353 0.0000 -6.3114
v  49.9191 0.0000 -0.0000
v  88.2353 0.0000 -0.0000
v  11.7759 0.0000 -0.0000
v  0.0000 0.0000 -0.0000
v  -88.2353 0.0000 -6.3114
v  -88.2353 0.0000 -0.0000
v  -49.9191 0.0000 -0.0000
v  -11.7759 0.0000 -0.0000
v  88.2353 0.0000 88.2353
v  100.0000 0.0000 88.2353
v  100.0000 0.0000 50.0201
v  88.2353 0.0000 50.0201
v  88.2353 0.0000 100.0000
v  49.9191 0.0000 88.2353
v  49.9191 0.0000 100.0000
v  100.0000 1.0000 100.0000
v  100.0000 1.0000 88.2353
v  88.2353 1.0000 88.2353
v  88.2353 1.0000 100.0000
v  11.7759 0.0000 100.0000
v  17.1626 0.0000 88.2353
v  11.7759 0.0000 93.6220
v  0.0000 1.0000 100.0000
v  11.7759 1.0000 100.0000
v  11.7759 1.0000 93.6220
v  10.4292 1.0000 89.5820
v  6.3891 1.0000 88.2353
v  0.0000 1.0000 88.2353
v  6.3891 0.0000 88.2353
v  11.7759 0.0000 82.8486
v  11.7759 0.0000 50.0201
v  0.0000 0.0000 50.0201
v  0.0000 0.0000 88.2353
v  93.6220 0.0000 11.6981
v  88.2353 0.0000 17.0848
v  100.0000 0.0000 11.6981
v  49.9191 0.0000 50.0201
v  11.7759 0.0000 11.6981
v  0.0000 0.0000 11.6981
v  82.8486 0.0000 11.6981
v  49.9191 0.0000 11.6981
v  88.2353 1.0000 6.3114
v  89.5820 1.0000 10.3514
v  93.6220 1.0000 11.6981
v  100.0000 1.0000 11.6981
v  -88.2353 0.0000 88.2353
v  -88.2353 0.0000 50.0201
v  -100.0000 0.0000 50.0201
v  -100.0000 0.0000 88.2353
v  -88.2353 0.0000 100.0000
v  -49.9191 0.0000 100.0000
v  -49.9191 0.0000 88.2353
v  -100.0000 1.0000 100.0000
v  -88.2353 1.0000 100.0000
v  -88.2353 1.0000 88.2353
v  -100.0000 1.0000 88.2353
v  -11.7759 0.0000 100.0000
v  -11.7759 0.0000 93.6220
v  -17.1626 0.0000 88.2353
v  -6.3891 1.0000 88.2353
v  -10.4292 1.0000 89.5820
v  -11.7759 1.0000 93.6220
v  -11.7759 1.0000 100.0000
v  -11.7759 0.0000 82.8486
v  -6.3891 0.0000 88.2353
v  -11.7759 0.0000 50.0201
v  -88.2353 0.0000 17.0848
v  -93.6220 0.0000 11.6981
v  -100.0000 0.0000 11.6981
v  -49.9191 0.0000 50.0201
v  -11.7759 0.0000 11.6981
v  -49.9191 0.0000 11.6981
v  -82.8486 0.0000 11.6981
v  -100.0000 1.0000 11.6981
v  -93.6220 1.0000 11.6981
v  -89.5820 1.0000 10.3514
v  -88.2353 1.0000 6.3114
v  88.2353 0.0000 6.3114
v  -88.2353 0.0000 6.3114
v  10.4292 0.0000 -89.5820
v  89.5820 0.0000 -10.3514
v  -10.4292 0.0000 -89.5820
v  -89.5820 0.0000 -10.3514
v  10.4292 0.0000 89.5820
v  89.5820 0.0000 10.3514
v  -10.4292 0.0000 89.5820
v  -89.5820 0.0000 10.3514
# 161 vertices

vn -0.3015 0.9045 0.3015
vn 0.0000 1.0000 -0.0000
vn 0.0000 0.7071 0.7071
vn -0.7071 0.7071 -0.0000
vn -0.5774 0.5774 0.5774
vn 0.7071 0.7071 -0.0000
vn 0.6584 0.7450 0.1068
vn 0.1185 0.6728 0.7303
vn 0.5554 0.6189 0.5554
vn 0.7303 0.6728 0.1185
vn 0.1068 0.7450 0.6584
vn -0.1068 0.7450 -0.6584
vn 0.0000 0.7071 -0.7071
vn -0.1185 0.6728 -0.7303
vn -0.5554 0.6189 -0.5554
vn -0.7303 0.6728 -0.1185
vn 0.3015 0.9045 0.3015
vn 0.5774 0.5774 0.5774
vn -0.6584 0.7450 0.1068
vn -0.7303 0.6728 0.1185
vn -0.5554 0.6189 0.5554
vn -0.1185 0.6728 0.7303
vn -0.1068 0.7450 0.6584
vn 0.1068 0.7450 -0.6584
vn 0.7303 0.6728 -0.1185
vn 0.5554 0.6189 -0.5554
vn 0.1185 0.6728 -0.7303
vn -0.6584 0.7450 -0.1068
vn 0.6584 0.7450 -0.1068
vn -0.3015 0.9045 -0.3015
vn -0.5774 0.5774 -0.5774
vn 0.3015 0.9045 -0.3015
vn 0.5774 0.5774 -0.5774
vn 0.4018 0.8229 0.4019
vn -0.4019 0.8229 -0.4018
vn -0.4018 0.8229 0.4019
vn 0.4019 0.8229 -0.4018
vn 0.4018 0.8229 -0.4019
vn -0.4019 0.8229 0.4018
vn -0.4018 0.8229 -0.4019
vn 0.4019 0.8229 0.4018
# 41 vertex normals

vt 0.0509 0.0525 0.0000
vt 0.0587 0.1738 0.0000
vt 0.0229 0.1755 0.0000
vt 0.0145 0.0595 0.0000
vt 0.0546 0.0165 0.0000
vt 0.1738 0.0186 0.0000
vt 0.1735 0.0550 0.0000
vt 0.0110 0.0169 0.0000
vt 0.0512 0.0161 0.0000
vt 0.0487 0.0505 0.0000
vt 0.0139 0.0564 0.0000
vt 0.2909 0.0143 0.0000
vt 0.2921 0.0345 0.0000
vt 0.2764 0.0521 0.0000
vt 0.3306 0.0133 0.0000
vt 0.3305 0.0495 0.0000
vt 0.3110 0.0493 0.0000
vt 0.2994 0.0452 0.0000
vt 0.2950 0.0336 0.0000
vt 0.2941 0.0138 0.0000
vt 0.2935 0.0688 0.0000
vt 0.3104 0.0521 0.0000
vt 0.3306 0.0526 0.0000
vt 0.3313 0.1710 0.0000
vt 0.2946 0.1712 0.0000
vt 0.0586 0.2757 0.0000
vt 0.0416 0.2920 0.0000
vt 0.0216 0.2909 0.0000
vt 0.1761 0.1720 0.0000
vt 0.3320 0.2908 0.0000
vt 0.2956 0.2910 0.0000
vt 0.1773 0.2918 0.0000
vt 0.0753 0.2924 0.0000
vt 0.0566 0.3293 0.0000
vt 0.0199 0.3293 0.0000
vt 0.0213 0.2938 0.0000
vt 0.0407 0.2948 0.0000
vt 0.0524 0.2988 0.0000
vt 0.0563 0.3105 0.0000
vt 0.6098 0.0484 0.0000
vt 0.6464 0.0543 0.0000
vt 0.6401 0.1712 0.0000
vt 0.6044 0.1700 0.0000
vt 0.6050 0.0125 0.0000
vt 0.4874 0.0532 0.0000
vt 0.4864 0.0168 0.0000
vt 0.6480 0.0110 0.0000
vt 0.6470 0.0509 0.0000
vt 0.6120 0.0463 0.0000
vt 0.6082 0.0120 0.0000
vt 0.3698 0.0143 0.0000
vt 0.3849 0.0518 0.0000
vt 0.3688 0.0344 0.0000
vt 0.3667 0.0139 0.0000
vt 0.3659 0.0336 0.0000
vt 0.3616 0.0452 0.0000
vt 0.3500 0.0493 0.0000
vt 0.3507 0.0522 0.0000
vt 0.3679 0.0684 0.0000
vt 0.3680 0.1708 0.0000
vt 0.6229 0.2878 0.0000
vt 0.6051 0.2721 0.0000
vt 0.6426 0.2869 0.0000
vt 0.4868 0.1701 0.0000
vt 0.3685 0.2905 0.0000
vt 0.5887 0.2889 0.0000
vt 0.4868 0.2898 0.0000
vt 0.6430 0.2899 0.0000
vt 0.6445 0.3254 0.0000
vt 0.6077 0.3253 0.0000
vt 0.6080 0.3066 0.0000
vt 0.6119 0.2949 0.0000
vt 0.6237 0.2907 0.0000
vt 0.0592 0.3098 0.0000
vt 0.1776 0.3283 0.0000
vt 0.0596 0.3292 0.0000
vt 0.2958 0.3276 0.0000
vt 0.3322 0.3274 0.0000
vt 0.6051 0.3059 0.0000
vt 0.6047 0.3254 0.0000
vt 0.4869 0.3264 0.0000
vt 0.3687 0.3272 0.0000
vt 0.0551 0.6067 0.0000
vt 0.0184 0.6009 0.0000
vt 0.0244 0.4838 0.0000
vt 0.0602 0.4849 0.0000
vt 0.0599 0.6425 0.0000
vt 0.1775 0.6017 0.0000
vt 0.1786 0.6380 0.0000
vt 0.0169 0.6441 0.0000
vt 0.0179 0.6042 0.0000
vt 0.0529 0.6087 0.0000
vt 0.0568 0.6431 0.0000
vt 0.2952 0.6405 0.0000
vt 0.2800 0.6030 0.0000
vt 0.2961 0.6204 0.0000
vt 0.3344 0.6415 0.0000
vt 0.2983 0.6409 0.0000
vt 0.2990 0.6212 0.0000
vt 0.3033 0.6095 0.0000
vt 0.3149 0.6055 0.0000
vt 0.3344 0.6053 0.0000
vt 0.3142 0.6025 0.0000
vt 0.2969 0.5864 0.0000
vt 0.2966 0.4840 0.0000
vt 0.3333 0.4838 0.0000
vt 0.3344 0.6021 0.0000
vt 0.0416 0.3671 0.0000
vt 0.0593 0.3827 0.0000
vt 0.0217 0.3678 0.0000
vt 0.1777 0.4847 0.0000
vt 0.2960 0.3642 0.0000
vt 0.3324 0.3640 0.0000
vt 0.0758 0.3657 0.0000
vt 0.1777 0.3649 0.0000
vt 0.0561 0.3482 0.0000
vt 0.0524 0.3600 0.0000
vt 0.0409 0.3642 0.0000
vt 0.0213 0.3648 0.0000
vt 0.6142 0.6017 0.0000
vt 0.6061 0.4806 0.0000
vt 0.6419 0.4787 0.0000
vt 0.6506 0.5946 0.0000
vt 0.6107 0.6377 0.0000
vt 0.4913 0.6360 0.0000
vt 0.4915 0.5996 0.0000
vt 0.6543 0.6372 0.0000
vt 0.6140 0.6382 0.0000
vt 0.6164 0.6037 0.0000
vt 0.6512 0.5977 0.0000
vt 0.3741 0.6404 0.0000
vt 0.3729 0.6203 0.0000
vt 0.3886 0.6026 0.0000
vt 0.3539 0.6055 0.0000
vt 0.3655 0.6095 0.0000
vt 0.3700 0.6211 0.0000
vt 0.3709 0.6409 0.0000
vt 0.3714 0.5860 0.0000
vt 0.3546 0.6026 0.0000
vt 0.3700 0.4836 0.0000
vt 0.6059 0.3789 0.0000
vt 0.6228 0.3624 0.0000
vt 0.6428 0.3634 0.0000
vt 0.4887 0.4826 0.0000
vt 0.3689 0.3638 0.0000
vt 0.4872 0.3630 0.0000
vt 0.5890 0.3622 0.0000
vt 0.6431 0.3605 0.0000
vt 0.6237 0.3595 0.0000
vt 0.6119 0.3558 0.0000
vt 0.6079 0.3443 0.0000
vt 0.0591 0.3489 0.0000
vt 0.6050 0.3450 0.0000
vt 0.2974 0.0473 0.0000
vt 0.0544 0.2968 0.0000
vt 0.3636 0.0473 0.0000
vt 0.6098 0.2929 0.0000
vt 0.3013 0.6075 0.0000
vt 0.0546 0.3619 0.0000
vt 0.3675 0.6074 0.0000
vt 0.6099 0.3578 0.0000
# 161 texture coords

o Road_2x2
g Road_2x2
usemtl Material__24
s 1
f 1/1/1 2/2/2 3/3/2 4/4/3 
f 5/5/4 6/6/2 7/7/2 1/1/1 
f 8/8/2 9/9/4 10/10/5 11/11/3 
f 12/12/6 13/13/7 14/14/2 7/7/2 6/6/2 
f 15/15/2 16/16/3 17/17/8 18/18/9 19/19/10 20/20/6 
f 21/21/2 22/22/11 23/23/3 24/24/2 25/25/2 
f 26/26/2 27/27/12 28/28/13 3/3/2 2/2/2 
f 1/1/1 7/7/2 29/29/2 2/2/2 
f 7/7/2 14/14/2 21/21/2 25/25/2 29/29/2 
f 25/25/2 24/24/2 30/30/2 31/31/2 
f 2/2/2 29/29/2 32/32/2 33/33/2 26/26/2 
f 29/29/2 25/25/2 31/31/2 32/32/2 
f 34/34/4 35/35/2 36/36/13 37/37/14 38/38/15 39/39/16 
f 40/40/17 41/41/3 42/42/2 43/43/2 
f 44/44/6 40/40/17 45/45/2 46/46/2 
f 47/47/2 48/48/3 49/49/18 50/50/6 
f 51/51/4 46/46/2 45/45/2 52/52/2 53/53/19 
f 15/15/2 54/54/4 55/55/20 56/56/21 57/57/22 16/16/3 
f 58/58/23 59/59/2 60/60/2 24/24/2 23/23/3 
f 61/61/24 62/62/2 43/43/2 42/42/2 63/63/13 
f 40/40/17 43/43/2 64/64/2 45/45/2 
f 45/45/2 64/64/2 60/60/2 59/59/2 52/52/2 
f 60/60/2 65/65/2 30/30/2 24/24/2 
f 43/43/2 62/62/2 66/66/2 67/67/2 64/64/2 
f 64/64/2 67/67/2 65/65/2 60/60/2 
f 68/68/13 69/69/2 70/70/6 71/71/25 72/72/26 73/73/27 
f 74/74/28 33/33/2 32/32/2 75/75/2 76/76/4 
f 32/32/2 31/31/2 77/77/2 75/75/2 
f 31/31/2 30/30/2 78/78/2 77/77/2 
f 67/67/2 66/66/2 79/79/29 80/80/6 81/81/2 
f 65/65/2 67/67/2 81/81/2 82/82/2 
f 30/30/2 65/65/2 82/82/2 78/78/2 
f 83/83/30 84/84/13 85/85/2 86/86/2 
f 87/87/4 83/83/30 88/88/2 89/89/2 
f 90/90/2 91/91/13 92/92/31 93/93/4 
f 94/94/6 89/89/2 88/88/2 95/95/2 96/96/29 
f 97/97/2 98/98/6 99/99/25 100/100/26 101/101/27 102/102/13 
f 103/103/24 104/104/2 105/105/2 106/106/2 107/107/13 
f 108/108/23 109/109/2 86/86/2 85/85/2 110/110/3 
f 83/83/30 86/86/2 111/111/2 88/88/2 
f 88/88/2 111/111/2 105/105/2 104/104/2 95/95/2 
f 105/105/2 112/112/2 113/113/2 106/106/2 
f 86/86/2 109/109/2 114/114/2 115/115/2 111/111/2 
f 111/111/2 115/115/2 112/112/2 105/105/2 
f 34/34/4 116/116/20 117/117/21 118/118/22 119/119/3 35/35/2 
f 120/120/32 121/121/2 122/122/2 123/123/13 
f 124/124/6 125/125/2 126/126/2 120/120/32 
f 127/127/2 128/128/6 129/129/33 130/130/13 
f 131/131/4 132/132/28 133/133/2 126/126/2 125/125/2 
f 97/97/2 102/102/13 134/134/14 135/135/15 136/136/16 137/137/4 
f 138/138/2 139/139/12 107/107/13 106/106/2 140/140/2 
f 141/141/2 142/142/11 143/143/3 122/122/2 121/121/2 
f 120/120/32 126/126/2 144/144/2 121/121/2 
f 126/126/2 133/133/2 138/138/2 140/140/2 144/144/2 
f 140/140/2 106/106/2 113/113/2 145/145/2 
f 121/121/2 144/144/2 146/146/2 147/147/2 141/141/2 
f 144/144/2 140/140/2 145/145/2 146/146/2 
f 148/148/3 149/149/8 150/150/9 151/151/10 70/70/6 69/69/2 
f 114/114/2 152/152/19 76/76/4 75/75/2 115/115/2 
f 115/115/2 75/75/2 77/77/2 112/112/2 
f 112/112/2 77/77/2 78/78/2 113/113/2 
f 146/146/2 81/81/2 80/80/6 153/153/7 147/147/2 
f 145/145/2 82/82/2 81/81/2 146/146/2 
f 113/113/2 78/78/2 82/82/2 145/145/2 
s 2
f 1/1/1 4/4/3 11/11/3 10/10/5 
s 4
f 5/5/4 1/1/1 10/10/5 9/9/4 
s 2
f 13/13/7 12/12/6 20/20/6 19/19/10 
f 51/51/4 53/53/19 55/55/20 54/54/4 
s 4
f 58/58/23 23/23/3 16/16/3 57/57/22 
f 23/23/3 22/22/11 17/17/8 16/16/3 
s 2
f 28/28/13 27/27/12 37/37/14 36/36/13 
s 4
f 74/74/28 76/76/4 34/34/4 39/39/16 
f 76/76/4 152/152/19 116/116/20 34/34/4 
s 2
f 108/108/23 110/110/3 119/119/3 118/118/22 
f 41/41/3 40/40/17 49/49/18 48/48/3 
s 4
f 40/40/17 44/44/6 50/50/6 49/49/18 
s 2
f 61/61/24 63/63/13 68/68/13 73/73/27 
f 143/143/3 142/142/11 149/149/8 148/148/3 
s 4
f 153/153/7 80/80/6 70/70/6 151/151/10 
f 80/80/6 79/79/29 71/71/25 70/70/6 
s 2
f 84/84/13 83/83/30 92/92/31 91/91/13 
s 4
f 83/83/30 87/87/4 93/93/4 92/92/31 
s 2
f 94/94/6 96/96/29 99/99/25 98/98/6 
s 4
f 103/103/24 107/107/13 102/102/13 101/101/27 
f 107/107/13 139/139/12 134/134/14 102/102/13 
s 2
f 132/132/28 131/131/4 137/137/4 136/136/16 
f 120/120/32 123/123/13 130/130/13 129/129/33 
s 4
f 124/124/6 120/120/32 129/129/33 128/128/6 
s 1
f 13/13/7 154/154/34 14/14/2 
f 21/21/2 154/154/34 22/22/11 
f 26/26/2 155/155/35 27/27/12 
f 14/14/2 154/154/34 21/21/2 
f 33/33/2 155/155/35 26/26/2 
f 52/52/2 156/156/36 53/53/19 
f 58/58/23 156/156/36 59/59/2 
f 61/61/24 157/157/37 62/62/2 
f 59/59/2 156/156/36 52/52/2 
f 62/62/2 157/157/37 66/66/2 
f 74/74/28 155/155/35 33/33/2 
f 66/66/2 157/157/37 79/79/29 
f 95/95/2 158/158/38 96/96/29 
f 103/103/24 158/158/38 104/104/2 
f 108/108/23 159/159/39 109/109/2 
f 104/104/2 158/158/38 95/95/2 
f 109/109/2 159/159/39 114/114/2 
f 132/132/28 160/160/40 133/133/2 
f 138/138/2 160/160/40 139/139/12 
f 141/141/2 161/161/41 142/142/11 
f 133/133/2 160/160/40 138/138/2 
f 147/147/2 161/161/41 141/141/2 
f 114/114/2 159/159/39 152/152/19 
f 153/153/7 161/161/41 147/147/2 
s 2
f 13/13/7 19/19/10 18/18/9 154/154/34 
f 55/55/20 53/53/19 156/156/36 56/56/21 
s 4
f 58/58/23 57/57/22 56/56/21 156/156/36 
f 17/17/8 22/22/11 154/154/34 18/18/9 
s 2
f 37/37/14 27/27/12 155/155/35 38/38/15 
s 4
f 74/74/28 39/39/16 38/38/15 155/155/35 
f 116/116/20 152/152/19 159/159/39 117/117/21 
s 2
f 108/108/23 118/118/22 117/117/21 159/159/39 
f 61/61/24 73/73/27 72/72/26 157/157/37 
f 149/149/8 142/142/11 161/161/41 150/150/9 
s 4
f 153/153/7 151/151/10 150/150/9 161/161/41 
f 71/71/25 79/79/29 157/157/37 72/72/26 
s 2
f 99/99/25 96/96/29 158/158/38 100/100/26 
s 4
f 103/103/24 101/101/27 100/100/26 158/158/38 
f 134/134/14 139/139/12 160/160/40 135/135/15 
s 2
f 132/132/28 136/136/16 135/135/15 160/160/40 
# 104 polygons - 24 triangles

