# 3ds Max Wavefront OBJ Exporter v0.99 - (c)2007 guruware
# File Created: 31.05.2023 18:11:34

mtllib Pipe connector.mtl

#
# object Pipe_connector
#

v  -22.5453 7.9262 175.4381
v  -21.3888 4.1319 175.4381
v  -21.3888 4.1319 177.1386
v  -22.5453 7.9262 177.1386
v  -19.4763 0.5622 175.4381
v  -16.9097 -2.5713 175.4381
v  -16.9097 -2.5713 177.1386
v  -19.4763 0.5622 177.1386
v  -13.7763 -5.1379 175.4381
v  -13.7763 -5.1379 177.1386
v  5.6095 -7.0507 175.4381
v  9.1799 -5.1379 175.4381
v  9.1799 -5.1379 177.1386
v  5.6095 -7.0507 177.1386
v  14.8800 0.5622 175.4381
v  16.7925 4.1319 175.4381
v  16.7925 4.1319 177.1386
v  14.8800 0.5622 177.1386
v  12.3134 -2.5713 175.4381
v  12.3134 -2.5713 177.1386
v  -10.2059 -7.0507 175.4381
v  -10.2059 -7.0507 177.1386
v  -6.3287 -8.2227 175.4381
v  -2.2982 -8.6236 175.4381
v  -2.2982 -8.6236 177.1386
v  -6.3287 -8.2227 177.1386
v  1.7324 -8.2227 175.4381
v  1.7324 -8.2227 177.1386
v  17.9490 7.9262 175.4381
v  17.9490 7.9262 177.1386
v  -22.0180 8.0869 175.4381
v  -20.8773 4.3445 175.4381
v  -19.0158 0.8699 175.4381
v  -16.5180 -2.1796 175.4381
v  -13.4686 -4.6774 175.4381
v  -9.9939 -6.5389 175.4381
v  -6.2207 -7.6795 175.4381
v  -2.2982 -8.0696 175.4381
v  1.6243 -7.6795 175.4381
v  5.3975 -6.5389 175.4381
v  8.8721 -4.6774 175.4381
v  11.9216 -2.1796 175.4381
v  14.4194 0.8699 175.4381
v  16.2809 4.3445 175.4381
v  17.4216 8.0869 175.4381
v  17.4216 8.0869 177.1386
v  16.2809 4.3445 177.1386
v  14.4194 0.8699 177.1386
v  11.9216 -2.1796 177.1386
v  8.8721 -4.6774 177.1386
v  5.3975 -6.5389 177.1386
v  1.6243 -7.6795 177.1386
v  -2.2982 -8.0696 177.1386
v  -6.2207 -7.6795 177.1386
v  -9.9939 -6.5389 177.1386
v  -13.4686 -4.6774 177.1386
v  -16.5180 -2.1796 177.1386
v  -19.0158 0.8699 177.1386
v  -20.8773 4.3445 177.1386
v  -22.0180 8.0869 177.1386
# 60 vertices

vn -0.7206 0.3839 -0.5774
vn -0.6721 -0.2793 -0.6857
vn -0.6721 -0.2793 0.6857
vn -0.7206 0.3839 0.5774
vn -0.6051 -0.4043 -0.6859
vn -0.5148 -0.5148 -0.6855
vn -0.5148 -0.5148 0.6855
vn -0.6051 -0.4043 0.6859
vn -0.4043 -0.6050 -0.6859
vn -0.4043 -0.6050 0.6859
vn 0.2786 -0.6726 -0.6855
vn 0.4043 -0.6050 -0.6859
vn 0.4043 -0.6051 0.6859
vn 0.2786 -0.6726 0.6855
vn 0.6051 -0.4043 -0.6859
vn 0.6721 -0.2793 -0.6857
vn 0.6721 -0.2793 0.6857
vn 0.6051 -0.4043 0.6859
vn 0.5148 -0.5149 -0.6855
vn 0.5148 -0.5148 0.6855
vn -0.2786 -0.6726 -0.6855
vn -0.2786 -0.6726 0.6855
vn -0.1419 -0.7137 -0.6859
vn 0.0000 -0.7281 -0.6855
vn 0.0000 -0.7281 0.6855
vn -0.1419 -0.7137 0.6859
vn 0.1419 -0.7137 -0.6859
vn 0.1419 -0.7137 0.6859
vn 0.7206 0.3839 -0.5774
vn 0.7206 0.3839 0.5774
vn 0.3839 0.7206 -0.5774
vn 0.6313 0.2623 -0.7298
vn 0.5686 0.3799 -0.7296
vn 0.4832 0.4832 -0.7301
vn 0.3799 0.5686 -0.7296
vn 0.2615 0.6313 -0.7301
vn 0.1334 0.6707 -0.7297
vn 0.0000 0.6833 -0.7302
vn -0.1334 0.6707 -0.7297
vn -0.2615 0.6313 -0.7301
vn -0.3799 0.5686 -0.7296
vn -0.4832 0.4832 -0.7301
vn -0.5686 0.3799 -0.7296
vn -0.6313 0.2623 -0.7298
vn -0.3839 0.7206 -0.5774
vn -0.3839 0.7206 0.5774
vn -0.6313 0.2623 0.7298
vn -0.5686 0.3799 0.7296
vn -0.4832 0.4832 0.7301
vn -0.3799 0.5686 0.7296
vn -0.2615 0.6313 0.7301
vn -0.1334 0.6707 0.7297
vn 0.0000 0.6833 0.7302
vn 0.1334 0.6707 0.7297
vn 0.2615 0.6313 0.7301
vn 0.3799 0.5686 0.7296
vn 0.4832 0.4832 0.7301
vn 0.5686 0.3799 0.7296
vn 0.6313 0.2623 0.7298
vn 0.3839 0.7206 0.5774
# 60 vertex normals

vt 0.0336 0.0163 0.0000
vt 0.0491 0.0808 0.0000
vt 0.0181 0.0877 0.0000
vt 0.0071 0.0199 0.0000
vt 0.0658 0.1502 0.0000
vt 0.0835 0.2203 0.0000
vt 0.0536 0.2277 0.0000
vt 0.0357 0.1577 0.0000
vt 0.1012 0.2903 0.0000
vt 0.0714 0.2978 0.0000
vt 0.1905 0.6400 0.0000
vt 0.2087 0.7099 0.0000
vt 0.1789 0.7177 0.0000
vt 0.1607 0.6478 0.0000
vt 0.2453 0.8495 0.0000
vt 0.2632 0.9189 0.0000
vt 0.2325 0.9269 0.0000
vt 0.2154 0.8575 0.0000
vt 0.2269 0.7798 0.0000
vt 0.1972 0.7877 0.0000
vt 0.1190 0.3603 0.0000
vt 0.0891 0.3678 0.0000
vt 0.1367 0.4302 0.0000
vt 0.1546 0.5002 0.0000
vt 0.1248 0.5078 0.0000
vt 0.1069 0.4378 0.0000
vt 0.1725 0.5701 0.0000
vt 0.1427 0.5778 0.0000
vt 0.2786 0.9827 0.0000
vt 0.2537 0.9923 0.0000
vt 0.0393 0.0095 0.0000
vt 0.0587 0.0779 0.0000
vt 0.0756 0.1479 0.0000
vt 0.0932 0.2178 0.0000
vt 0.1109 0.2878 0.0000
vt 0.1286 0.3578 0.0000
vt 0.1464 0.4278 0.0000
vt 0.1642 0.4977 0.0000
vt 0.1822 0.5676 0.0000
vt 0.2002 0.6375 0.0000
vt 0.2183 0.7074 0.0000
vt 0.2366 0.7772 0.0000
vt 0.2551 0.8469 0.0000
vt 0.2733 0.9169 0.0000
vt 0.2865 0.9872 0.0000
vt 0.2490 1.0000 0.0000
vt 0.2231 0.9302 0.0000
vt 0.2058 0.8601 0.0000
vt 0.1876 0.7903 0.0000
vt 0.1693 0.7203 0.0000
vt 0.1511 0.6504 0.0000
vt 0.1330 0.5803 0.0000
vt 0.1151 0.5103 0.0000
vt 0.0972 0.4403 0.0000
vt 0.0795 0.3702 0.0000
vt 0.0617 0.3002 0.0000
vt 0.0439 0.2302 0.0000
vt 0.0260 0.1600 0.0000
vt 0.0080 0.0892 0.0000
vt 0.0000 0.0142 0.0000
vt 0.3033 0.9108 0.0000
vt 0.3168 0.9824 0.0000
vt 0.2850 0.8397 0.0000
vt 0.2664 0.7696 0.0000
vt 0.2482 0.6998 0.0000
vt 0.2300 0.6299 0.0000
vt 0.2120 0.5600 0.0000
vt 0.1941 0.4901 0.0000
vt 0.1762 0.4202 0.0000
vt 0.1585 0.3502 0.0000
vt 0.1407 0.2802 0.0000
vt 0.1230 0.2102 0.0000
vt 0.1056 0.1402 0.0000
vt 0.0884 0.0693 0.0000
vt 0.0679 -0.0000 0.0000
# 75 texture coords

o Pipe_connector
g Pipe_connector
usemtl 1x2_wire_085028177
s 4
f 1/1/1 2/2/2 3/3/3 4/4/4 
f 5/5/5 6/6/6 7/7/7 8/8/8 
f 2/2/2 5/5/5 8/8/8 3/3/3 
f 6/6/6 9/9/9 10/10/10 7/7/7 
f 11/11/11 12/12/12 13/13/13 14/14/14 
f 15/15/15 16/16/16 17/17/17 18/18/18 
f 19/19/19 15/15/15 18/18/18 20/20/20 
f 9/9/9 21/21/21 22/22/22 10/10/10 
f 23/23/23 24/24/24 25/25/25 26/26/26 
f 21/21/21 23/23/23 26/26/26 22/22/22 
f 27/27/27 11/11/11 14/14/14 28/28/28 
f 24/24/24 27/27/27 28/28/28 25/25/25 
f 12/12/12 19/19/19 20/20/20 13/13/13 
f 16/16/16 29/29/29 30/30/30 17/17/17 
s off
f 31/31/31 32/32/32 2/2/2 1/1/1 
f 32/32/32 33/33/33 5/5/5 2/2/2 
f 33/33/33 34/34/34 6/6/6 5/5/5 
f 34/34/34 35/35/35 9/9/9 6/6/6 
f 35/35/35 36/36/36 21/21/21 9/9/9 
f 36/36/36 37/37/37 23/23/23 21/21/21 
f 37/37/37 38/38/38 24/24/24 23/23/23 
f 38/38/38 39/39/39 27/27/27 24/24/24 
f 39/39/39 40/40/40 11/11/11 27/27/27 
f 40/40/40 41/41/41 12/12/12 11/11/11 
f 41/41/41 42/42/42 19/19/19 12/12/12 
f 42/42/42 43/43/43 15/15/15 19/19/19 
f 43/43/43 44/44/44 16/16/16 15/15/15 
f 44/44/44 45/45/45 29/29/29 16/16/16 
f 45/45/45 46/46/46 30/30/30 29/29/29 
f 46/46/46 47/47/47 17/17/17 30/30/30 
f 47/47/47 48/48/48 18/18/18 17/17/17 
f 48/48/48 49/49/49 20/20/20 18/18/18 
f 49/49/49 50/50/50 13/13/13 20/20/20 
f 50/50/50 51/51/51 14/14/14 13/13/13 
f 51/51/51 52/52/52 28/28/28 14/14/14 
f 52/52/52 53/53/53 25/25/25 28/28/28 
f 53/53/53 54/54/54 26/26/26 25/25/25 
f 54/54/54 55/55/55 22/22/22 26/26/26 
f 55/55/55 56/56/56 10/10/10 22/22/22 
f 56/56/56 57/57/57 7/7/7 10/10/10 
f 57/57/57 58/58/58 8/8/8 7/7/7 
f 58/58/58 59/59/59 3/3/3 8/8/8 
f 59/59/59 60/60/60 4/4/4 3/3/3 
f 60/60/60 31/31/31 1/1/1 4/4/4 
s 1
f 47/61/47 46/62/46 45/45/45 44/44/44 
f 48/63/48 47/61/47 44/44/44 43/43/43 
f 49/64/49 48/63/48 43/43/43 42/42/42 
f 50/65/50 49/64/49 42/42/42 41/41/41 
f 51/66/51 50/65/50 41/41/41 40/40/40 
f 52/67/52 51/66/51 40/40/40 39/39/39 
f 53/68/53 52/67/52 39/39/39 38/38/38 
f 54/69/54 53/68/53 38/38/38 37/37/37 
f 55/70/55 54/69/54 37/37/37 36/36/36 
f 56/71/56 55/70/55 36/36/36 35/35/35 
f 57/72/57 56/71/56 35/35/35 34/34/34 
f 58/73/58 57/72/57 34/34/34 33/33/33 
f 59/74/59 58/73/58 33/33/33 32/32/32 
f 60/75/60 59/74/59 32/32/32 31/31/31 
# 58 polygons

