# 3ds Max Wavefront OBJ Exporter v0.99 - (c)2007 guruware
# File Created: 24.04.2023 23:58:53

mtllib boss gate.mtl

#
# object Boss_gate
#

v  70.8406 55.6646 -24.2753
v  69.1356 55.6646 -1.5085
v  121.0818 55.6646 -1.4470
v  121.0818 55.6646 -24.2753
v  -67.9731 55.6646 -24.2753
v  -66.2682 55.6646 -1.5085
v  -118.2144 55.6646 -24.2753
v  -118.2144 55.6646 -1.4470
v  69.1356 55.6646 16.5980
v  121.0818 55.6646 16.5980
v  -118.2144 55.6646 16.5980
v  -66.2682 55.6646 16.5980
v  -67.9732 -0.3515 -26.3350
v  -116.5094 -0.3515 -26.3462
v  -116.5094 53.3518 -26.3462
v  -67.9732 53.3518 -26.3350
v  -116.5094 -0.3515 0.1717
v  -116.5094 53.3518 0.1717
v  -116.5094 -0.3515 20.0166
v  -116.5094 53.3518 20.0166
v  -67.9732 -0.3515 20.0166
v  -67.9732 53.3518 20.0166
v  -67.9732 -0.3515 0.1828
v  -67.9732 53.3518 0.1828
v  70.8406 -0.3515 0.1828
v  70.8406 -0.3515 20.0166
v  70.8406 53.3518 20.0166
v  70.8406 53.3518 0.1828
v  119.3768 -0.3515 20.0166
v  119.3768 53.3518 20.0166
v  119.3768 -0.3515 0.1717
v  119.3768 53.3518 0.1717
v  119.3768 -0.3515 -26.3462
v  119.3768 53.3518 -26.3462
v  70.8406 -0.3515 -26.3462
v  70.8406 53.3518 -26.3462
v  -67.9732 57.1433 -27.4835
v  70.8406 57.1433 -27.4835
v  -122.8258 57.1433 -27.4835
v  -122.8258 57.1433 0.1717
v  -122.8258 57.1433 21.1539
v  -61.6568 57.1433 21.1539
v  -61.6568 57.1433 2.6588
v  64.5242 57.1433 2.6588
v  64.5242 57.1433 21.1539
v  125.6932 57.1433 21.1539
v  125.6932 57.1433 0.1717
v  125.6932 57.1433 -27.4835
v  -65.3430 50.2588 -26.3350
v  -65.3430 -0.3515 -26.3350
v  67.8177 50.2588 -26.3458
v  67.8177 -0.3515 -26.3458
v  67.8177 50.2588 0.1828
v  67.8177 -0.3515 0.1828
v  -65.3430 50.2588 0.1828
v  -65.3430 -0.3515 0.1828
v  70.8406 61.6399 -27.4835
v  -67.9732 61.6399 -27.4835
v  -67.9731 61.6399 -24.2753
v  70.8406 61.6399 -24.2753
v  -122.8258 61.6399 -27.4835
v  -118.2144 61.6399 -24.2753
v  -122.8258 61.6399 0.1717
v  -118.2144 61.6399 -1.4470
v  -122.8258 61.6399 21.1539
v  -118.2144 61.6399 16.5980
v  -61.6568 61.6399 21.1539
v  -66.2682 61.6399 16.5980
v  -61.6568 61.6399 2.6588
v  -66.2682 61.6399 -1.5085
v  64.5242 61.6399 2.6588
v  69.1356 61.6399 -1.5085
v  64.5242 61.6399 21.1539
v  69.1356 61.6399 16.5980
v  125.6932 61.6399 21.1539
v  121.0818 61.6399 16.5980
v  125.6932 61.6399 0.1717
v  121.0818 61.6399 -1.4470
v  125.6932 61.6399 -27.4835
v  121.0818 61.6399 -24.2753
# 80 vertices

vn 0.0000 1.0000 -0.0000
vn 0.0013 0.0000 -1.0000
vn -1.0000 0.0000 -0.0000
vn -1.0000 0.0000 0.0000
vn 0.0000 0.0000 1.0000
vn 1.0000 0.0000 -0.0000
vn 1.0000 0.0000 0.0000
vn 0.0000 0.0000 -1.0000
vn -0.0002 -0.9017 -0.4324
vn 0.0000 -0.9025 -0.4307
vn 0.0003 -0.9016 -0.4325
vn -0.4341 -0.9009 -0.0000
vn -0.4341 -0.9009 0.0000
vn 0.0000 -0.9009 0.4341
vn 0.4341 -0.9009 -0.0000
vn 0.0000 -0.9764 0.2161
vn 0.4341 -0.9009 0.0000
vn 0.0000 -0.9009 -0.4341
vn -0.0009 0.0001 -1.0000
vn -0.0007 0.0000 -1.0000
vn -0.0000 0.0000 1.0000
vn 0.0000 -0.0000 1.0000
vn 0.0000 -1.0000 -0.0000
# 23 vertex normals

vt 0.3885 0.7247 0.0000
vt 0.3855 0.5398 0.0000
vt 0.4600 0.5575 0.0000
vt 0.4550 0.7277 0.0000
vt 0.2131 0.7378 0.0000
vt 0.1797 0.5685 0.0000
vt 0.1488 0.7558 0.0000
vt 0.1087 0.5998 0.0000
vt 0.4324 0.4075 0.0000
vt 0.4975 0.4264 0.0000
vt 0.0386 0.4933 0.0000
vt 0.0889 0.4515 0.0000
vt 0.6309 0.3332 0.0000
vt 0.6672 0.3535 0.0000
vt 0.6535 0.4067 0.0000
vt 0.5898 0.3680 0.0000
vt 0.8450 0.3508 0.0000
vt 0.8478 0.4069 0.0000
vt 0.9863 0.3407 0.0000
vt 0.9909 0.3966 0.0000
vt 0.5542 0.7932 0.0000
vt 0.9351 0.7932 0.0000
vt 0.9351 0.9465 0.0000
vt 0.5542 0.9465 0.0000
vt 0.7425 0.1086 0.0000
vt 0.6445 0.2056 0.0000
vt 0.6075 0.1745 0.0000
vt 0.7015 0.0697 0.0000
vt 0.3949 0.1598 0.0000
vt 0.3368 0.0382 0.0000
vt 0.3875 0.0137 0.0000
vt 0.4465 0.1426 0.0000
vt 0.0672 0.7932 0.0000
vt 0.4481 0.7932 0.0000
vt 0.4481 0.9465 0.0000
vt 0.0672 0.9465 0.0000
vt 0.0324 0.2057 0.0000
vt 0.1652 0.2573 0.0000
vt 0.1462 0.3083 0.0000
vt 0.0125 0.2578 0.0000
vt 0.3349 0.3077 0.0000
vt 0.3333 0.3622 0.0000
vt 0.3785 0.2995 0.0000
vt 0.4040 0.3414 0.0000
vt 0.5870 0.3767 0.0000
vt 0.4038 0.3505 0.0000
vt 0.6500 0.4159 0.0000
vt 0.8484 0.4158 0.0000
vt 0.9997 0.4051 0.0000
vt 0.9847 0.9656 0.0000
vt 0.5047 0.9656 0.0000
vt 0.6094 0.1568 0.0000
vt 0.7003 0.0578 0.0000
vt 0.4496 0.1246 0.0000
vt 0.3924 0.0020 0.0000
vt 0.4977 0.9656 0.0000
vt 0.0177 0.9656 0.0000
vt 0.1430 0.3168 0.0000
vt 0.0017 0.2634 0.0000
vt 0.3347 0.3721 0.0000
vt 0.5871 0.3642 0.0000
vt 0.6306 0.3318 0.0000
vt 0.4080 0.3384 0.0000
vt 0.3805 0.2995 0.0000
vt 0.4486 0.1466 0.0000
vt 0.3956 0.1617 0.0000
vt 0.6051 0.1776 0.0000
vt 0.6421 0.2065 0.0000
vt 0.3916 0.7564 0.0000
vt 0.2160 0.7696 0.0000
vt 0.2135 0.7447 0.0000
vt 0.3894 0.7314 0.0000
vt 0.1450 0.7853 0.0000
vt 0.1450 0.7608 0.0000
vt 0.0923 0.5954 0.0000
vt 0.1024 0.6029 0.0000
vt 0.0091 0.4690 0.0000
vt 0.0322 0.4922 0.0000
vt 0.0725 0.4132 0.0000
vt 0.0900 0.4454 0.0000
vt 0.1650 0.5308 0.0000
vt 0.1815 0.5620 0.0000
vt 0.1837 0.5290 0.0000
vt 0.3696 0.5031 0.0000
vt 0.3817 0.5343 0.0000
vt 0.3867 0.5016 0.0000
vt 0.4357 0.3673 0.0000
vt 0.4298 0.4016 0.0000
vt 0.5180 0.3926 0.0000
vt 0.5031 0.4239 0.0000
vt 0.4751 0.5482 0.0000
vt 0.4668 0.5589 0.0000
vt 0.4649 0.7569 0.0000
vt 0.4597 0.7320 0.0000
vt 0.5854 0.3811 0.0000
vt 0.4038 0.3552 0.0000
vt 0.6492 0.4204 0.0000
vt 0.8487 0.4205 0.0000
vt 1.0000 0.4098 0.0000
vt 0.9847 0.9785 0.0000
vt 0.5047 0.9785 0.0000
vt 0.6081 0.1524 0.0000
vt 0.6969 0.0546 0.0000
vt 0.4524 0.1210 0.0000
vt 0.3966 0.0000 0.0000
vt 0.4977 0.9785 0.0000
vt 0.0177 0.9785 0.0000
vt 0.1414 0.3211 0.0000
vt 0.0000 0.2677 0.0000
vt 0.3341 0.3766 0.0000
# 110 texture coords

o Boss_gate
g Boss_gate
usemtl wire_228153184
s off
f 1/1/1 2/2/1 3/3/1 4/4/1 
f 2/2/1 1/1/1 5/5/1 6/6/1 
f 5/5/1 7/7/1 8/8/1 6/6/1 
f 3/3/1 2/2/1 9/9/1 10/10/1 
f 6/6/1 8/8/1 11/11/1 12/12/1 
f 13/13/2 14/14/2 15/15/2 16/16/2 
f 14/14/3 17/17/3 18/18/3 15/15/3 
f 17/17/4 19/19/4 20/20/4 18/18/4 
f 19/21/5 21/22/5 22/23/5 20/24/5 
f 21/25/6 23/26/6 24/27/6 22/28/6 
f 25/29/3 26/30/3 27/31/3 28/32/3 
f 26/33/5 29/34/5 30/35/5 27/36/5 
f 29/37/7 31/38/7 32/39/7 30/40/7 
f 31/38/6 33/41/6 34/42/6 32/39/6 
f 33/41/8 35/43/8 36/44/8 34/42/8 
f 36/44/9 16/16/10 37/45/10 38/46/9 
f 16/16/11 15/15/11 39/47/11 37/45/11 
f 15/15/12 18/18/12 40/48/12 39/47/12 
f 18/18/13 20/20/13 41/49/13 40/48/13 
f 20/24/14 22/23/14 42/50/14 41/51/14 
f 22/28/15 24/27/15 43/52/15 42/53/15 
f 24/27/16 28/32/16 44/54/16 43/52/16 
f 28/32/12 27/31/12 45/55/12 44/54/12 
f 27/36/14 30/35/14 46/56/14 45/57/14 
f 30/40/17 32/39/17 47/58/17 46/59/17 
f 32/39/15 34/42/15 48/60/15 47/58/15 
f 34/42/18 36/44/18 38/46/18 48/60/18 
f 13/13/8 16/16/8 49/61/8 50/62/8 
f 16/16/8 36/44/19 51/63/19 49/61/8 
f 36/44/20 35/43/20 52/64/20 51/63/20 
f 25/29/21 28/32/21 53/65/21 54/66/21 
f 28/32/22 24/27/5 55/67/5 53/65/22 
f 24/27/5 23/26/5 56/68/5 55/67/5 
f 53/65/3 51/63/3 52/64/3 54/66/3 
f 55/67/23 49/61/23 51/63/23 53/65/23 
f 56/68/6 50/62/6 49/61/6 55/67/6 
f 57/69/1 58/70/1 59/71/1 60/72/1 
f 58/70/1 61/73/1 62/74/1 59/71/1 
f 61/73/1 63/75/1 64/76/1 62/74/1 
f 63/75/1 65/77/1 66/78/1 64/76/1 
f 65/77/1 67/79/1 68/80/1 66/78/1 
f 67/79/1 69/81/1 70/82/1 68/80/1 
f 69/83/1 71/84/1 72/85/1 70/82/1 
f 71/86/1 73/87/1 74/88/1 72/85/1 
f 73/87/1 75/89/1 76/90/1 74/88/1 
f 75/89/1 77/91/1 78/92/1 76/90/1 
f 77/91/1 79/93/1 80/94/1 78/92/1 
f 79/93/1 57/69/1 60/72/1 80/94/1 
f 38/46/8 37/45/8 58/95/8 57/96/8 
f 37/45/8 39/47/8 61/97/8 58/95/8 
f 39/47/3 40/48/3 63/98/3 61/97/3 
f 40/48/4 41/49/4 65/99/4 63/98/4 
f 41/51/5 42/50/5 67/100/5 65/101/5 
f 42/53/6 43/52/6 69/102/6 67/103/6 
f 43/52/5 44/54/5 71/104/5 69/102/5 
f 44/54/3 45/55/3 73/105/3 71/104/3 
f 45/57/5 46/56/5 75/106/5 73/107/5 
f 46/59/7 47/58/7 77/108/7 75/109/7 
f 47/58/6 48/60/6 79/110/6 77/108/6 
f 48/60/8 38/46/8 57/96/8 79/110/8 
f 1/1/5 60/72/5 59/71/5 5/5/5 
f 1/1/5 4/4/5 80/94/5 60/72/5 
f 4/4/3 3/3/3 78/92/3 80/94/3 
f 3/3/3 10/10/3 76/90/3 78/92/3 
f 10/10/8 9/9/8 74/88/8 76/90/8 
f 9/9/7 2/2/7 72/85/7 74/88/7 
f 2/2/8 6/6/8 70/82/8 72/85/8 
f 6/6/3 12/12/3 68/80/3 70/82/3 
f 12/12/8 11/11/8 66/78/8 68/80/8 
f 11/11/6 8/8/6 64/76/6 66/78/6 
f 8/8/6 7/7/6 62/74/6 64/76/6 
f 7/7/5 5/5/5 59/71/5 62/74/5 
# 72 polygons

